<?xml version="1.0" encoding="utf-8" standalone="no"?>
<!DOCTYPE svg PUBLIC "-//W3C//DTD SVG 1.1//EN"
  "http://www.w3.org/Graphics/SVG/1.1/DTD/svg11.dtd">
<!-- Created with matplotlib (http://matplotlib.sourceforge.net/) -->
<svg height="442pt" version="1.1" viewBox="0 0 586 442" width="586pt" xmlns="http://www.w3.org/2000/svg" xmlns:xlink="http://www.w3.org/1999/xlink">
 <defs>
  <style type="text/css">
*{stroke-linecap:square;stroke-linejoin:round;}
  </style>
 </defs>
 <g id="figure_1">
  <g id="patch_1">
   <path d="
M0 442.8
L586.8 442.8
L586.8 0
L0 0
z
" style="fill:#ffffff;"/>
  </g>
  <g id="axes_1">
   <g id="patch_2">
    <path d="
M73.35 398.52
L528.12 398.52
L528.12 44.28
L73.35 44.28
z
" style="fill:#ffffff;"/>
   </g>
   <g id="line2d_1">
    <path clip-path="url(#p9061672a36)" d="
M73.35 398.52
L74.2595 393.459
L75.1691 388.399
L76.0786 390.929
L76.9882 390.519
L77.8977 385.618
L78.8072 388.087
L79.7168 387.204
L80.6263 385.869
L81.5359 384.207
L82.4454 385.869
L83.3549 387.204
L85.174 382.318
L86.9931 385.869
L87.9026 387.204
L88.8122 388.087
L89.7217 388.399
L90.6313 388.087
L91.5408 383.129
L92.4503 385.618
L93.3599 385.869
L94.2694 385.618
L95.179 384.894
L96.0885 380.099
L96.998 380.628
L97.9076 375.607
L100.636 383.129
L101.546 383.338
L102.455 383.129
L103.365 382.517
L104.274 377.655
L105.184 376.901
L106.093 377.655
L107.003 372.716
L107.913 372.103
L108.822 367.222
L110.641 372.103
L112.46 362.292
L113.37 364.762
L114.279 359.814
L115.189 362.292
L116.098 357.33
L117.008 359.814
L117.917 360.23
L118.827 355.208
L120.646 360.23
L121.556 355.208
L122.465 355.431
L123.375 355.505
L124.284 355.431
L125.194 357.956
L126.103 352.905
L127.013 355.431
L127.922 350.378
L129.741 355.431
L130.651 355.505
L131.561 355.431
L132.47 357.956
L133.38 352.905
L134.289 352.975
L135.199 352.905
L136.108 352.695
L137.018 347.662
L137.927 350.179
L138.837 349.849
L139.746 349.391
L140.656 349.849
L141.566 352.347
L142.475 347.348
L143.385 346.912
L144.294 347.348
L145.204 349.849
L146.113 350.179
L147.023 352.695
L147.932 347.662
L148.842 347.348
L149.751 346.912
L150.661 341.941
L151.57 344.429
L152.48 339.45
L154.299 344.429
L155.209 343.899
L157.028 344.845
L157.937 345.144
L158.847 344.845
L159.756 345.144
L162.485 352.695
L165.214 337.583
L167.033 336.955
L167.942 339.45
L170.671 324.447
L171.58 326.953
L172.49 321.94
L173.399 322.233
L175.218 327.267
L176.128 326.953
L177.947 316.921
L178.857 317.196
L179.766 312.156
L180.676 312.342
L181.585 314.867
L182.495 314.676
L183.404 314.867
L184.314 309.816
L185.223 312.342
L186.133 312.453
L188.862 320.04
L189.771 314.982
L190.681 314.867
L191.59 309.816
L192.5 312.342
L193.409 312.453
L195.228 317.511
L196.138 312.453
L197.047 314.982
L197.957 314.867
L199.776 319.918
L200.686 314.867
L201.595 317.393
L202.505 312.342
L203.414 312.156
L204.324 307.114
L205.233 309.635
L206.143 309.816
L207.052 312.342
L207.962 312.453
L208.871 312.342
L209.781 307.289
L210.691 307.395
L211.6 302.336
L212.51 302.236
L213.419 304.763
L215.238 294.655
L216.148 294.747
L217.057 289.688
L219.786 297.277
L220.695 297.309
L224.334 307.43
L225.243 307.395
L226.153 302.336
L227.972 302.336
L229.791 307.395
L230.7 307.43
L231.61 309.96
L232.52 304.899
L233.429 304.865
L235.248 294.747
L236.158 294.655
L237.067 297.182
L237.977 297.277
L238.886 299.806
L240.705 289.688
L241.615 292.218
L242.524 287.159
L243.434 289.688
L244.344 284.629
L245.253 287.159
L246.163 282.099
L249.801 282.099
L250.71 277.04
L252.529 277.04
L254.348 266.921
L256.168 271.98
L257.077 266.921
L257.987 266.848
L258.896 266.921
L259.806 269.451
L260.715 269.475
L261.625 272.006
L262.534 271.98
L263.444 266.921
L264.353 269.451
L266.172 259.331
L267.082 259.354
L267.992 254.294
L268.901 254.272
L269.811 256.801
L271.63 246.682
L273.449 246.513
L275.268 246.682
L276.177 241.622
L277.087 241.561
L277.997 241.622
L278.906 236.562
L279.816 236.503
L280.725 239.032
L281.635 238.931
L282.544 233.876
L285.273 241.459
L287.092 241.133
L288.001 241.316
L288.911 236.266
L289.821 236.088
L290.73 231.043
L291.64 233.566
L293.459 233.1
L294.368 228.068
L295.278 228.312
L296.187 228.068
L297.097 228.312
L298.006 230.832
L298.916 231.043
L300.735 230.584
L302.554 235.616
L303.464 230.584
L304.373 233.1
L306.192 232.482
L307.102 234.988
L308.011 235.321
L308.921 234.988
L309.83 235.321
L310.74 234.988
L311.649 235.321
L312.559 234.988
L315.288 219.942
L316.197 219.602
L317.107 219.942
L318.016 214.922
L319.835 219.942
L320.745 220.247
L321.654 215.218
L324.383 214.226
L325.293 214.591
L327.112 219.602
L328.021 219.942
L329.84 219.226
L330.75 214.226
L331.659 213.826
L332.569 216.322
L334.388 217.097
L335.298 219.602
L337.117 220.247
L338.936 219.602
L339.845 214.591
L340.755 214.922
L343.483 213.826
L344.393 214.226
L345.302 216.726
L346.212 216.322
L347.122 218.816
L348.031 219.226
L349.85 224.224
L350.76 219.226
L351.669 221.726
L352.579 222.106
L353.488 224.61
L354.398 224.96
L355.307 219.942
L356.217 222.451
L357.126 222.761
L358.946 212.703
L360.765 212.084
L361.674 214.591
L362.584 209.577
L363.493 209.221
L364.403 209.577
L365.312 204.561
L366.222 204.875
L367.131 199.848
L368.041 200.122
L369.86 199.542
L370.77 202.052
L372.589 192.011
L374.408 192.57
L375.317 192.306
L377.136 197.334
L378.955 197.844
L379.865 200.365
L380.775 200.122
L382.594 205.156
L384.413 195.088
L385.322 195.324
L386.232 195.088
L387.141 195.324
L388.051 197.844
L388.96 192.803
L391.689 193.317
L392.599 193.426
L393.508 188.369
L394.418 190.898
L396.237 180.783
L397.146 180.857
L398.056 175.797
L399.875 175.625
L401.694 180.68
L402.603 180.548
L403.513 175.496
L404.423 178.022
L405.332 172.969
L406.242 173.097
L407.151 172.969
L408.061 167.917
L409.88 168.139
L410.789 163.081
L411.699 163.149
L413.518 153.03
L415.337 158.09
L416.247 158.023
L417.156 158.09
L418.066 160.619
L418.975 155.56
L419.885 158.09
L420.794 153.03
L421.704 153.069
L422.613 155.599
L423.523 155.613
L424.432 158.143
L428.98 158.13
L429.89 160.66
L430.799 160.619
L431.709 155.56
L433.528 155.402
L434.437 155.494
L435.347 155.402
L436.256 157.93
L437.166 152.874
L438.076 152.756
L438.985 155.283
L439.895 155.139
L440.804 155.283
L441.714 157.81
L442.623 157.93
L444.442 162.986
L446.261 162.714
L447.171 162.864
L448.08 157.81
L448.99 157.664
L449.9 160.189
L450.809 155.139
L451.719 154.968
L452.628 157.491
L453.538 152.444
L455.357 152.028
L456.266 152.249
L457.176 147.205
L458.085 149.727
L458.995 144.683
L460.814 149.727
L461.724 149.92
L462.633 152.444
L463.543 152.249
L464.452 154.771
L466.271 155.139
L467.181 154.968
L468.09 157.491
L470.819 142.348
L472.638 141.949
L473.548 144.469
L474.457 139.428
L477.186 139.985
L478.095 142.511
L479.005 142.348
L479.914 144.872
L480.824 145.036
L481.733 139.985
L484.462 139.428
L485.372 141.949
L486.281 142.161
L487.191 144.683
L488.1 144.872
L489.01 147.396
L489.919 147.562
L490.829 150.088
L492.648 149.727
L493.557 149.92
L494.467 152.444
L495.377 147.396
L496.286 147.205
L498.105 137.116
L499.015 137.299
L499.924 132.25
L500.834 134.775
L501.743 134.933
L503.562 134.593
L505.382 124.5
L506.291 124.302
L507.201 119.259
L509.02 124.302
L510.839 124.676
L513.567 124.08
L514.477 126.6
L515.386 126.823
L516.296 129.345
L517.206 129.119
L518.115 131.638
L520.844 132.25
L521.753 132.07
L523.572 121.977
L526.301 121.318
L527.21 116.283
L528.12 116.521
L528.12 116.521" style="fill:none;stroke:#0000ff;"/>
   </g>
   <g id="line2d_2">
    <path clip-path="url(#p9061672a36)" d="
M73.35 398.52
L74.2595 395.99
L75.1691 398.52
L76.0786 395.99
L76.9882 394.942
L77.8977 394.942
L78.8072 395.99
L79.7168 392.862
L81.5359 383.129
L82.4454 382.517
L83.3549 381.546
L84.2645 383.766
L85.174 384.894
L86.0836 383.766
L87.9026 374.516
L88.8122 376.901
L90.6313 367.222
L91.5408 369.67
L92.4503 370.231
L93.3599 370.572
L94.2694 370.687
L95.179 373.217
L96.998 363.096
L97.9076 365.626
L98.8171 365.529
L99.7267 365.239
L100.636 365.529
L101.546 360.481
L102.455 360.23
L104.274 350.179
L105.184 352.695
L106.093 347.662
L107.003 347.851
L108.822 337.74
L110.641 337.74
L111.551 332.684
L112.46 335.212
L113.37 330.155
L114.279 330.015
L115.189 324.967
L116.098 324.75
L117.008 327.267
L117.917 322.233
L118.827 321.94
L119.737 324.447
L121.556 324.967
L122.465 325.098
L123.375 324.967
L125.194 325.142
L126.103 325.098
L127.013 320.04
L127.922 320.081
L128.832 322.611
L129.741 322.569
L130.651 317.511
L132.47 322.569
L133.38 322.443
L134.289 322.569
L138.837 297.277
L140.656 297.024
L141.566 299.547
L143.385 299.031
L144.294 294.01
L145.204 296.521
L146.113 296.176
L147.023 298.678
L147.932 299.031
L149.751 298.262
L150.661 300.751
L151.57 301.178
L152.48 300.751
L153.39 295.77
L154.299 298.262
L156.118 297.245
L157.028 297.784
L157.937 300.261
L158.847 299.709
L160.666 289.835
L161.575 290.337
L162.485 292.822
L163.394 293.277
L164.304 292.822
L165.214 287.851
L167.942 295.304
L168.852 294.778
L169.761 297.245
L171.58 298.262
L173.399 299.031
L174.309 299.321
L175.218 301.838
L176.128 301.54
L177.947 302.07
L178.857 302.236
L179.766 297.182
L180.676 297.277
L181.585 297.182
L182.495 297.277
L183.404 297.182
L184.314 292.128
L185.223 291.977
L186.133 286.929
L187.043 287.072
L187.952 286.929
L188.862 289.453
L189.771 289.248
L190.681 291.767
L191.59 291.977
L192.5 291.767
L194.319 281.688
L196.138 286.728
L197.047 281.688
L197.957 281.88
L198.867 284.404
L200.686 283.956
L201.595 283.649
L202.505 283.956
L203.414 283.649
L204.324 278.631
L205.233 278.285
L207.052 278.926
L208.871 278.285
L209.781 278.631
L210.691 273.61
L211.6 276.121
L212.51 271.098
L213.419 271.375
L214.329 273.892
L215.238 273.61
L216.148 276.121
L217.057 275.782
L217.967 276.121
L218.876 278.631
L219.786 273.61
L220.695 273.277
L221.605 275.782
L223.424 276.409
L224.334 276.121
L225.243 278.631
L226.153 273.61
L227.062 276.121
L228.881 275.391
L229.791 275.782
L231.61 274.95
L234.339 260
L235.248 260.393
L237.067 265.397
L237.977 265.758
L239.796 270.772
L241.615 269.973
L242.524 272.462
L243.434 267.481
L244.344 267.018
L245.253 262.049
L246.163 261.557
L247.982 262.495
L248.891 262.049
L249.801 264.534
L250.71 264.989
L251.62 264.534
L253.439 265.397
L254.348 264.989
L256.168 265.758
L257.077 268.266
L257.987 268.585
L258.896 268.266
L259.806 268.585
L260.715 263.558
L261.625 263.25
L262.534 265.758
L264.353 266.338
L267.992 246.177
L269.811 246.513
L270.72 249.04
L271.63 243.986
L273.449 249.04
L274.358 248.89
L276.177 249.147
L277.087 244.09
L277.997 243.986
L278.906 246.513
L279.816 241.459
L281.635 241.622
L283.454 231.502
L285.273 231.349
L287.092 231.043
L288.001 230.832
L288.911 225.792
L290.73 230.832
L291.64 225.792
L294.368 224.96
L295.278 219.942
L296.187 220.247
L298.006 225.274
L298.916 220.247
L300.735 219.602
L302.554 209.577
L303.464 209.221
L304.373 204.214
L306.192 203.425
L307.102 205.919
L308.011 200.931
L309.83 200.026
L310.74 200.494
L311.649 202.983
L313.469 202.003
L314.378 204.478
L315.288 204.99
L318.016 203.36
L318.926 203.935
L319.835 203.36
L320.745 203.935
L321.654 206.401
L322.564 205.819
L323.474 208.277
L324.383 208.867
L328.021 189.102
L329.84 194.052
L330.75 194.569
L331.659 189.607
L332.569 189.102
L333.478 184.146
L334.388 183.624
L335.298 186.097
L336.207 185.54
L337.117 188.004
L338.026 187.412
L338.936 188.004
L340.755 178.138
L341.664 177.572
L342.574 180.035
L344.393 178.807
L345.302 179.435
L346.212 181.889
L348.941 179.903
L349.85 182.332
L350.76 181.608
L352.579 186.443
L353.488 185.675
L354.398 186.443
L356.217 191.268
L357.126 190.482
L358.036 192.881
L358.946 192.057
L359.855 187.275
L360.765 186.443
L361.674 187.275
L362.584 182.48
L363.493 181.667
L364.403 184.057
L365.312 184.879
L366.222 180.079
L367.131 179.274
L368.041 180.079
L368.951 182.48
L372.589 163.19
L373.498 163.912
L374.408 159.05
L376.227 163.912
L377.136 163.19
L378.046 163.912
L378.955 159.05
L379.865 161.482
L380.775 156.616
L381.684 157.292
L382.594 152.405
L383.503 154.849
L384.413 149.959
L385.322 149.303
L386.232 144.418
L388.051 149.303
L390.779 151.198
L391.689 153.657
L392.599 153.043
L394.418 154.246
L395.327 149.316
L396.237 149.869
L397.146 149.316
L399.875 134.496
L402.603 132.792
L403.513 135.249
L404.423 130.334
L406.242 135.249
L407.151 134.629
L408.061 135.249
L408.97 130.334
L409.88 129.726
L410.789 130.334
L411.699 132.792
L412.608 132.178
L414.428 133.383
L415.337 135.845
L416.247 135.249
L418.975 136.969
L419.885 136.419
L420.794 138.885
L421.704 139.44
L422.613 134.496
L423.523 136.969
L424.432 137.496
L425.342 132.539
L426.252 133.033
L427.161 128.063
L428.071 128.525
L428.98 128.063
L429.89 130.549
L430.799 125.577
L431.709 128.063
L432.618 123.091
L434.437 128.063
L435.347 127.578
L436.256 130.059
L437.166 129.547
L438.985 130.549
L439.895 125.577
L441.714 130.549
L444.442 131.878
L445.352 131.458
L446.261 131.878
L447.171 134.375
L448.08 133.951
L449.9 134.775
L451.719 133.951
L452.628 134.375
L453.538 129.38
L455.357 134.375
L456.266 129.38
L457.176 131.878
L458.085 126.882
L458.995 126.47
L459.905 128.964
L460.814 128.525
L462.633 118.56
L463.543 121.053
L466.271 119.637
L467.181 122.116
L469 123.091
L469.909 118.115
L470.819 118.56
L471.729 121.053
L473.548 111.079
L474.457 111.491
L475.367 113.989
L476.276 113.573
L477.186 116.067
L478.095 115.625
L479.005 116.067
L479.914 111.079
L481.733 110.19
L482.643 112.676
L484.462 113.573
L485.372 113.136
L486.281 113.573
L487.191 116.067
L488.1 115.625
L489.919 120.603
L490.829 121.053
L491.738 123.544
L492.648 118.56
L493.557 118.984
L494.467 121.48
L495.377 116.487
L496.286 118.984
L497.196 119.385
L498.105 118.984
L499.924 123.975
L500.834 124.384
L502.653 114.383
L503.562 116.884
L505.382 106.878
L506.291 109.38
L507.201 108.993
L508.11 103.994
L509.02 103.592
L509.929 103.994
L512.658 102.725
L513.567 105.214
L514.477 104.745
L515.386 99.7748
L516.296 100.236
L517.206 99.7748
L519.025 100.676
L519.934 95.688
L520.844 96.1006
L522.663 86.104
L523.572 88.6039
L524.482 88.9863
L525.391 83.9799
L527.21 84.6728
L528.12 84.3363
L528.12 84.3363" style="fill:none;stroke:#008000;"/>
   </g>
   <g id="line2d_3">
    <path clip-path="url(#p9061672a36)" d="
M73.35 398.52
L74.2595 393.459
L75.1691 392.862
L76.0786 388.087
L76.9882 387.204
L77.8977 385.869
L78.8072 384.207
L79.7168 385.869
L81.5359 376.901
L82.4454 375.888
L83.3549 371.268
L85.174 375.888
L86.0836 371.268
L86.9931 372.103
L87.9026 372.716
L88.8122 373.091
L89.7217 375.607
L90.6313 370.572
L91.5408 373.091
L92.4503 373.217
L93.3599 373.091
L94.2694 375.607
L95.179 375.192
L96.0885 377.655
L96.998 372.716
L97.9076 372.103
L98.8171 374.516
L99.7267 373.6
L100.636 375.888
L101.546 376.901
L102.455 379.25
L103.365 380.099
L104.274 382.517
L105.184 377.655
L106.093 378.12
L107.003 378.278
L109.732 385.869
L110.641 385.618
L112.46 375.607
L113.37 378.12
L114.279 378.278
L115.189 380.808
L116.098 380.628
L117.008 380.808
L117.917 380.628
L118.827 375.607
L119.737 375.747
L120.646 370.687
L121.556 373.217
L122.465 368.157
L123.375 370.687
L124.284 365.626
L125.194 368.157
L126.103 368.051
L127.013 370.572
L127.922 365.529
L129.741 370.572
L130.651 370.687
L131.561 373.217
L132.47 373.091
L133.38 368.051
L134.289 368.157
L135.199 363.096
L136.108 365.626
L137.018 365.529
L137.927 365.626
L138.837 368.157
L139.746 368.051
L140.656 370.572
L141.566 370.231
L142.475 369.67
L143.385 368.904
L144.294 367.946
L147.023 374.649
L147.932 375.888
L148.842 371.268
L149.751 372.103
L150.661 372.716
L151.57 367.738
L152.48 368.051
L153.39 367.738
L154.299 370.231
L155.209 365.239
L156.118 364.762
L157.028 364.104
L157.937 363.277
L159.756 361.161
L160.666 363.368
L161.575 364.573
L163.394 362.028
L164.304 360.566
L166.123 352.07
L167.942 349.391
L168.852 345.144
L171.58 351.454
L172.49 349.915
L174.309 352.905
L175.218 348.615
L176.128 347.286
L177.038 348.615
L178.857 345.868
L180.676 342.796
L182.495 346.603
L184.314 350.179
L185.223 348.423
L187.043 351.864
L188.862 347.914
L191.59 353.755
L192.5 350.179
L193.409 348.423
L195.228 352.001
L196.138 348.295
L197.047 349.915
L198.867 346.603
L201.595 351.454
L202.505 352.905
L203.414 348.615
L204.324 349.849
L205.233 352.07
L206.143 347.599
L207.052 346.418
L207.962 348.615
L208.871 344.192
L209.781 345.324
L210.691 347.599
L212.51 349.652
L213.419 348.679
L214.329 344.016
L215.238 344.904
L216.148 340.104
L217.057 342.51
L217.967 341.659
L218.876 344.016
L219.786 344.904
L220.695 340.104
L221.605 342.51
L222.515 341.659
L223.424 342.51
L224.334 344.904
L225.243 340.104
L226.153 342.51
L227.062 337.688
L227.972 340.104
L228.881 339.288
L229.791 334.508
L230.7 335.263
L231.61 337.688
L232.52 338.376
L233.429 337.688
L234.339 332.83
L235.248 333.467
L237.067 332.103
L237.977 331.289
L238.886 326.507
L239.796 325.667
L241.615 330.39
L242.524 331.289
L243.434 330.39
L245.253 320.902
L247.072 319.108
L248.891 317.039
L249.801 312.453
L250.71 313.463
L251.62 308.775
L252.529 309.671
L253.439 312.045
L254.348 311.124
L255.258 312.045
L256.168 307.289
L257.987 305.483
L258.896 307.817
L260.715 309.671
L261.625 312.045
L262.534 307.289
L263.444 308.1
L265.263 312.901
L266.172 313.689
L267.992 312.045
L270.72 319.108
L271.63 314.409
L272.539 313.463
L273.449 308.775
L274.358 311.124
L275.268 306.416
L276.177 307.289
L277.087 302.502
L278.906 307.289
L280.725 308.846
L281.635 308.1
L282.544 310.504
L283.454 305.689
L285.273 307.079
L286.182 309.527
L287.092 304.626
L288.001 303.981
L288.911 304.626
L290.73 303.272
L291.64 303.981
L292.549 299.096
L294.368 300.261
L295.278 302.736
L296.187 297.784
L297.097 300.261
L298.916 299.096
L299.825 298.422
L300.735 300.85
L302.554 291.109
L303.464 290.426
L305.283 291.737
L306.192 291.109
L307.102 286.214
L308.011 288.664
L309.83 287.274
L310.74 289.688
L311.649 290.426
L312.559 285.56
L314.378 284.096
L316.197 285.56
L318.016 284.096
L318.926 283.288
L319.835 278.498
L321.654 276.803
L325.293 257.685
L326.202 256.892
L328.931 264.057
L329.84 263.179
L330.75 264.057
L331.659 263.179
L332.569 265.542
L333.478 266.435
L334.388 265.542
L336.207 267.286
L337.117 266.435
L338.936 271.173
L339.845 270.247
L341.664 274.924
L342.574 275.886
L343.483 274.924
L344.393 275.886
L346.212 280.57
L347.122 275.886
L348.941 280.57
L349.85 279.57
L350.76 280.57
L353.488 266.435
L354.398 268.807
L355.307 269.674
L357.126 260.092
L358.036 259.285
L359.855 249.684
L360.765 250.439
L361.674 245.589
L362.584 248.016
L363.493 248.719
L364.403 251.154
L365.312 246.282
L366.222 248.719
L367.131 248.016
L368.041 250.439
L368.951 249.684
L369.86 250.439
L370.77 252.858
L371.679 253.585
L372.589 252.858
L373.498 253.585
L374.408 248.719
L375.317 249.383
L376.227 251.829
L377.136 252.463
L378.046 251.829
L378.955 252.463
L379.865 254.917
L381.684 253.585
L382.594 254.272
L383.503 256.711
L384.413 256.013
L385.322 256.711
L386.232 251.829
L387.141 251.154
L388.051 251.829
L388.96 246.935
L389.87 247.549
L391.689 237.693
L392.599 240.16
L393.508 240.706
L396.237 238.951
L398.965 224.224
L401.694 231.598
L402.603 226.684
L403.513 226.07
L404.423 226.684
L405.332 226.07
L406.242 228.519
L407.151 227.862
L408.061 230.299
L408.97 229.596
L409.88 224.739
L410.789 224.022
L411.699 226.442
L412.608 225.681
L413.518 220.859
L414.428 221.599
L415.337 224.022
L417.156 214.312
L418.066 216.744
L418.975 217.432
L420.794 222.306
L421.704 221.599
L422.613 222.306
L424.432 220.859
L425.342 223.271
L426.252 218.443
L427.161 217.68
L428.98 222.488
L429.89 221.671
L431.709 223.271
L432.618 225.681
L434.437 216.023
L435.347 218.443
L437.166 216.885
L438.076 219.28
L440.804 216.674
L441.714 211.947
L442.623 214.312
L443.533 209.577
L444.442 211.947
L447.171 214.486
L448.08 216.885
L450.809 202.443
L452.628 207.27
L453.538 206.485
L454.447 207.27
L455.357 202.443
L456.266 203.179
L458.085 208.025
L458.995 208.749
L460.814 199.012
L462.633 197.605
L463.543 192.756
L464.452 195.182
L465.362 195.892
L466.271 198.323
L467.181 193.458
L468.09 194.13
L469.909 184.341
L470.819 186.791
L471.729 186.142
L472.638 186.791
L473.548 189.239
L474.457 189.867
L475.367 189.239
L476.276 184.341
L477.186 186.791
L478.095 181.889
L479.005 184.341
L479.914 184.954
L480.824 184.341
L481.733 186.791
L483.553 176.979
L485.372 178.138
L486.281 173.197
L487.191 172.643
L488.1 167.709
L489.01 167.141
L489.919 167.709
L490.829 167.141
L491.738 167.709
L493.557 172.643
L494.467 172.063
L495.377 174.522
L497.196 164.677
L498.105 167.141
L499.924 157.279
L500.834 157.823
L502.653 156.709
L503.562 151.781
L505.382 150.591
L506.291 145.681
L507.201 145.062
L508.11 145.681
L509.02 140.766
L509.929 141.35
L511.748 146.277
L512.658 141.35
L513.567 143.814
L514.477 143.224
L516.296 148.137
L519.025 149.869
L519.934 150.397
L520.844 149.869
L523.572 151.38
L524.482 153.866
L525.391 153.382
L526.301 153.866
L527.21 153.382
L528.12 148.418
L528.12 148.418" style="fill:none;stroke:#ff0000;"/>
   </g>
   <g id="matplotlib.axis_1">
    <g id="xtick_1">
     <g id="line2d_4">
      <defs>
       <path d="
M0 0
L0 -4" id="m1d6c4e73da"/>
      </defs>
      <g>
       <use style="stroke:#000000;stroke-linecap:butt;stroke-width:0.5;" x="73.35" xlink:href="#m1d6c4e73da" y="398.52"/>
      </g>
     </g>
     <g id="line2d_5">
      <defs>
       <path d="
M0 0
L0 4" id="m763cc79d7a"/>
      </defs>
      <g>
       <use style="stroke:#000000;stroke-linecap:butt;stroke-width:0.5;" x="73.35" xlink:href="#m763cc79d7a" y="44.28"/>
      </g>
     </g>
     <g id="text_1">
      <!-- 0 -->
      <defs>
       <path d="
M31.7812 66.4062
Q24.1719 66.4062 20.3281 58.9062
Q16.5 51.4219 16.5 36.375
Q16.5 21.3906 20.3281 13.8906
Q24.1719 6.39062 31.7812 6.39062
Q39.4531 6.39062 43.2812 13.8906
Q47.125 21.3906 47.125 36.375
Q47.125 51.4219 43.2812 58.9062
Q39.4531 66.4062 31.7812 66.4062
M31.7812 74.2188
Q44.0469 74.2188 50.5156 64.5156
Q56.9844 54.8281 56.9844 36.375
Q56.9844 17.9688 50.5156 8.26562
Q44.0469 -1.42188 31.7812 -1.42188
Q19.5312 -1.42188 13.0625 8.26562
Q6.59375 17.9688 6.59375 36.375
Q6.59375 54.8281 13.0625 64.5156
Q19.5312 74.2188 31.7812 74.2188" id="BitstreamVeraSans-Roman-30"/>
      </defs>
      <g transform="translate(70.3265625 411.42625)scale(0.12 -0.12)">
       <use xlink:href="#BitstreamVeraSans-Roman-30"/>
      </g>
     </g>
    </g>
    <g id="xtick_2">
     <g id="line2d_6">
      <defs>
       <path d="
M0 0
L0 -4" id="m1d6c4e73da"/>
      </defs>
      <g>
       <use style="stroke:#000000;stroke-linecap:butt;stroke-width:0.5;" x="164.304" xlink:href="#m1d6c4e73da" y="398.52"/>
      </g>
     </g>
     <g id="line2d_7">
      <defs>
       <path d="
M0 0
L0 4" id="m763cc79d7a"/>
      </defs>
      <g>
       <use style="stroke:#000000;stroke-linecap:butt;stroke-width:0.5;" x="164.304" xlink:href="#m763cc79d7a" y="44.28"/>
      </g>
     </g>
     <g id="text_2">
      <!-- 100 -->
      <defs>
       <path d="
M12.4062 8.29688
L28.5156 8.29688
L28.5156 63.9219
L10.9844 60.4062
L10.9844 69.3906
L28.4219 72.9062
L38.2812 72.9062
L38.2812 8.29688
L54.3906 8.29688
L54.3906 0
L12.4062 0
z
" id="BitstreamVeraSans-Roman-31"/>
      </defs>
      <g transform="translate(153.909 411.42625)scale(0.12 -0.12)">
       <use xlink:href="#BitstreamVeraSans-Roman-31"/>
       <use x="63.623046875" xlink:href="#BitstreamVeraSans-Roman-30"/>
       <use x="127.24609375" xlink:href="#BitstreamVeraSans-Roman-30"/>
      </g>
     </g>
    </g>
    <g id="xtick_3">
     <g id="line2d_8">
      <defs>
       <path d="
M0 0
L0 -4" id="m1d6c4e73da"/>
      </defs>
      <g>
       <use style="stroke:#000000;stroke-linecap:butt;stroke-width:0.5;" x="255.258" xlink:href="#m1d6c4e73da" y="398.52"/>
      </g>
     </g>
     <g id="line2d_9">
      <defs>
       <path d="
M0 0
L0 4" id="m763cc79d7a"/>
      </defs>
      <g>
       <use style="stroke:#000000;stroke-linecap:butt;stroke-width:0.5;" x="255.258" xlink:href="#m763cc79d7a" y="44.28"/>
      </g>
     </g>
     <g id="text_3">
      <!-- 200 -->
      <defs>
       <path d="
M19.1875 8.29688
L53.6094 8.29688
L53.6094 0
L7.32812 0
L7.32812 8.29688
Q12.9375 14.1094 22.625 23.8906
Q32.3281 33.6875 34.8125 36.5312
Q39.5469 41.8438 41.4219 45.5312
Q43.3125 49.2188 43.3125 52.7812
Q43.3125 58.5938 39.2344 62.25
Q35.1562 65.9219 28.6094 65.9219
Q23.9688 65.9219 18.8125 64.3125
Q13.6719 62.7031 7.8125 59.4219
L7.8125 69.3906
Q13.7656 71.7812 18.9375 73
Q24.125 74.2188 28.4219 74.2188
Q39.75 74.2188 46.4844 68.5469
Q53.2188 62.8906 53.2188 53.4219
Q53.2188 48.9219 51.5312 44.8906
Q49.8594 40.875 45.4062 35.4062
Q44.1875 33.9844 37.6406 27.2188
Q31.1094 20.4531 19.1875 8.29688" id="BitstreamVeraSans-Roman-32"/>
      </defs>
      <g transform="translate(244.643625 411.42625)scale(0.12 -0.12)">
       <use xlink:href="#BitstreamVeraSans-Roman-32"/>
       <use x="63.623046875" xlink:href="#BitstreamVeraSans-Roman-30"/>
       <use x="127.24609375" xlink:href="#BitstreamVeraSans-Roman-30"/>
      </g>
     </g>
    </g>
    <g id="xtick_4">
     <g id="line2d_10">
      <defs>
       <path d="
M0 0
L0 -4" id="m1d6c4e73da"/>
      </defs>
      <g>
       <use style="stroke:#000000;stroke-linecap:butt;stroke-width:0.5;" x="346.212" xlink:href="#m1d6c4e73da" y="398.52"/>
      </g>
     </g>
     <g id="line2d_11">
      <defs>
       <path d="
M0 0
L0 4" id="m763cc79d7a"/>
      </defs>
      <g>
       <use style="stroke:#000000;stroke-linecap:butt;stroke-width:0.5;" x="346.212" xlink:href="#m763cc79d7a" y="44.28"/>
      </g>
     </g>
     <g id="text_4">
      <!-- 300 -->
      <defs>
       <path d="
M40.5781 39.3125
Q47.6562 37.7969 51.625 33
Q55.6094 28.2188 55.6094 21.1875
Q55.6094 10.4062 48.1875 4.48438
Q40.7656 -1.42188 27.0938 -1.42188
Q22.5156 -1.42188 17.6562 -0.515625
Q12.7969 0.390625 7.625 2.20312
L7.625 11.7188
Q11.7188 9.32812 16.5938 8.10938
Q21.4844 6.89062 26.8125 6.89062
Q36.0781 6.89062 40.9375 10.5469
Q45.7969 14.2031 45.7969 21.1875
Q45.7969 27.6406 41.2812 31.2656
Q36.7656 34.9062 28.7188 34.9062
L20.2188 34.9062
L20.2188 43.0156
L29.1094 43.0156
Q36.375 43.0156 40.2344 45.9219
Q44.0938 48.8281 44.0938 54.2969
Q44.0938 59.9062 40.1094 62.9062
Q36.1406 65.9219 28.7188 65.9219
Q24.6562 65.9219 20.0156 65.0312
Q15.375 64.1562 9.8125 62.3125
L9.8125 71.0938
Q15.4375 72.6562 20.3438 73.4375
Q25.25 74.2188 29.5938 74.2188
Q40.8281 74.2188 47.3594 69.1094
Q53.9062 64.0156 53.9062 55.3281
Q53.9062 49.2656 50.4375 45.0938
Q46.9688 40.9219 40.5781 39.3125" id="BitstreamVeraSans-Roman-33"/>
      </defs>
      <g transform="translate(335.6154375 411.42625)scale(0.12 -0.12)">
       <use xlink:href="#BitstreamVeraSans-Roman-33"/>
       <use x="63.623046875" xlink:href="#BitstreamVeraSans-Roman-30"/>
       <use x="127.24609375" xlink:href="#BitstreamVeraSans-Roman-30"/>
      </g>
     </g>
    </g>
    <g id="xtick_5">
     <g id="line2d_12">
      <defs>
       <path d="
M0 0
L0 -4" id="m1d6c4e73da"/>
      </defs>
      <g>
       <use style="stroke:#000000;stroke-linecap:butt;stroke-width:0.5;" x="437.166" xlink:href="#m1d6c4e73da" y="398.52"/>
      </g>
     </g>
     <g id="line2d_13">
      <defs>
       <path d="
M0 0
L0 4" id="m763cc79d7a"/>
      </defs>
      <g>
       <use style="stroke:#000000;stroke-linecap:butt;stroke-width:0.5;" x="437.166" xlink:href="#m763cc79d7a" y="44.28"/>
      </g>
     </g>
     <g id="text_5">
      <!-- 400 -->
      <defs>
       <path d="
M37.7969 64.3125
L12.8906 25.3906
L37.7969 25.3906
z

M35.2031 72.9062
L47.6094 72.9062
L47.6094 25.3906
L58.0156 25.3906
L58.0156 17.1875
L47.6094 17.1875
L47.6094 0
L37.7969 0
L37.7969 17.1875
L4.89062 17.1875
L4.89062 26.7031
z
" id="BitstreamVeraSans-Roman-34"/>
      </defs>
      <g transform="translate(426.405375 411.42625)scale(0.12 -0.12)">
       <use xlink:href="#BitstreamVeraSans-Roman-34"/>
       <use x="63.623046875" xlink:href="#BitstreamVeraSans-Roman-30"/>
       <use x="127.24609375" xlink:href="#BitstreamVeraSans-Roman-30"/>
      </g>
     </g>
    </g>
    <g id="xtick_6">
     <g id="line2d_14">
      <defs>
       <path d="
M0 0
L0 -4" id="m1d6c4e73da"/>
      </defs>
      <g>
       <use style="stroke:#000000;stroke-linecap:butt;stroke-width:0.5;" x="528.12" xlink:href="#m1d6c4e73da" y="398.52"/>
      </g>
     </g>
     <g id="line2d_15">
      <defs>
       <path d="
M0 0
L0 4" id="m763cc79d7a"/>
      </defs>
      <g>
       <use style="stroke:#000000;stroke-linecap:butt;stroke-width:0.5;" x="528.12" xlink:href="#m763cc79d7a" y="44.28"/>
      </g>
     </g>
     <g id="text_6">
      <!-- 500 -->
      <defs>
       <path d="
M10.7969 72.9062
L49.5156 72.9062
L49.5156 64.5938
L19.8281 64.5938
L19.8281 46.7344
Q21.9688 47.4688 24.1094 47.8281
Q26.2656 48.1875 28.4219 48.1875
Q40.625 48.1875 47.75 41.5
Q54.8906 34.8125 54.8906 23.3906
Q54.8906 11.625 47.5625 5.09375
Q40.2344 -1.42188 26.9062 -1.42188
Q22.3125 -1.42188 17.5469 -0.640625
Q12.7969 0.140625 7.71875 1.70312
L7.71875 11.625
Q12.1094 9.23438 16.7969 8.0625
Q21.4844 6.89062 26.7031 6.89062
Q35.1562 6.89062 40.0781 11.3281
Q45.0156 15.7656 45.0156 23.3906
Q45.0156 31 40.0781 35.4375
Q35.1562 39.8906 26.7031 39.8906
Q22.75 39.8906 18.8125 39.0156
Q14.8906 38.1406 10.7969 36.2812
z
" id="BitstreamVeraSans-Roman-35"/>
      </defs>
      <g transform="translate(517.5290625 411.42625)scale(0.12 -0.12)">
       <use xlink:href="#BitstreamVeraSans-Roman-35"/>
       <use x="63.623046875" xlink:href="#BitstreamVeraSans-Roman-30"/>
       <use x="127.24609375" xlink:href="#BitstreamVeraSans-Roman-30"/>
      </g>
     </g>
    </g>
    <g id="text_7">
     <!-- Time -->
     <defs>
      <path d="
M56.2031 29.5938
L56.2031 25.2031
L14.8906 25.2031
Q15.4844 15.9219 20.4844 11.0625
Q25.4844 6.20312 34.4219 6.20312
Q39.5938 6.20312 44.4531 7.46875
Q49.3125 8.73438 54.1094 11.2812
L54.1094 2.78125
Q49.2656 0.734375 44.1875 -0.34375
Q39.1094 -1.42188 33.8906 -1.42188
Q20.7969 -1.42188 13.1562 6.1875
Q5.51562 13.8125 5.51562 26.8125
Q5.51562 40.2344 12.7656 48.1094
Q20.0156 56 32.3281 56
Q43.3594 56 49.7812 48.8906
Q56.2031 41.7969 56.2031 29.5938
M47.2188 32.2344
Q47.125 39.5938 43.0938 43.9844
Q39.0625 48.3906 32.4219 48.3906
Q24.9062 48.3906 20.3906 44.1406
Q15.875 39.8906 15.1875 32.1719
z
" id="BitstreamVeraSans-Roman-65"/>
      <path d="
M9.42188 54.6875
L18.4062 54.6875
L18.4062 0
L9.42188 0
z

M9.42188 75.9844
L18.4062 75.9844
L18.4062 64.5938
L9.42188 64.5938
z
" id="BitstreamVeraSans-Roman-69"/>
      <path d="
M-0.296875 72.9062
L61.375 72.9062
L61.375 64.5938
L35.5 64.5938
L35.5 0
L25.5938 0
L25.5938 64.5938
L-0.296875 64.5938
z
" id="BitstreamVeraSans-Roman-54"/>
      <path d="
M52 44.1875
Q55.375 50.25 60.0625 53.125
Q64.75 56 71.0938 56
Q79.6406 56 84.2812 50.0156
Q88.9219 44.0469 88.9219 33.0156
L88.9219 0
L79.8906 0
L79.8906 32.7188
Q79.8906 40.5781 77.0938 44.375
Q74.3125 48.1875 68.6094 48.1875
Q61.625 48.1875 57.5625 43.5469
Q53.5156 38.9219 53.5156 30.9062
L53.5156 0
L44.4844 0
L44.4844 32.7188
Q44.4844 40.625 41.7031 44.4062
Q38.9219 48.1875 33.1094 48.1875
Q26.2188 48.1875 22.1562 43.5312
Q18.1094 38.875 18.1094 30.9062
L18.1094 0
L9.07812 0
L9.07812 54.6875
L18.1094 54.6875
L18.1094 46.1875
Q21.1875 51.2188 25.4844 53.6094
Q29.7812 56 35.6875 56
Q41.6562 56 45.8281 52.9688
Q50 49.9531 52 44.1875" id="BitstreamVeraSans-Roman-6d"/>
     </defs>
     <g transform="translate(286.3565625 425.715)scale(0.12 -0.12)">
      <use xlink:href="#BitstreamVeraSans-Roman-54"/>
      <use x="57.958984375" xlink:href="#BitstreamVeraSans-Roman-69"/>
      <use x="85.7421875" xlink:href="#BitstreamVeraSans-Roman-6d"/>
      <use x="183.154296875" xlink:href="#BitstreamVeraSans-Roman-65"/>
     </g>
    </g>
   </g>
   <g id="matplotlib.axis_2">
    <g id="ytick_1">
     <g id="line2d_16">
      <defs>
       <path d="
M0 0
L4 0" id="mb2d347af78"/>
      </defs>
      <g>
       <use style="stroke:#000000;stroke-linecap:butt;stroke-width:0.5;" x="73.35" xlink:href="#mb2d347af78" y="398.52"/>
      </g>
     </g>
     <g id="line2d_17">
      <defs>
       <path d="
M0 0
L-4 0" id="m16ceb80ea5"/>
      </defs>
      <g>
       <use style="stroke:#000000;stroke-linecap:butt;stroke-width:0.5;" x="528.12" xlink:href="#m16ceb80ea5" y="398.52"/>
      </g>
     </g>
     <g id="text_8">
      <!-- 0 -->
      <g transform="translate(63.303125 402.8878125)scale(0.12 -0.12)">
       <use xlink:href="#BitstreamVeraSans-Roman-30"/>
      </g>
     </g>
    </g>
    <g id="ytick_2">
     <g id="line2d_18">
      <defs>
       <path d="
M0 0
L4 0" id="mb2d347af78"/>
      </defs>
      <g>
       <use style="stroke:#000000;stroke-linecap:butt;stroke-width:0.5;" x="73.35" xlink:href="#mb2d347af78" y="347.914285714"/>
      </g>
     </g>
     <g id="line2d_19">
      <defs>
       <path d="
M0 0
L-4 0" id="m16ceb80ea5"/>
      </defs>
      <g>
       <use style="stroke:#000000;stroke-linecap:butt;stroke-width:0.5;" x="528.12" xlink:href="#m16ceb80ea5" y="347.914285714"/>
      </g>
     </g>
     <g id="text_9">
      <!-- 20 -->
      <g transform="translate(55.75625 352.282098214)scale(0.12 -0.12)">
       <use xlink:href="#BitstreamVeraSans-Roman-32"/>
       <use x="63.623046875" xlink:href="#BitstreamVeraSans-Roman-30"/>
      </g>
     </g>
    </g>
    <g id="ytick_3">
     <g id="line2d_20">
      <defs>
       <path d="
M0 0
L4 0" id="mb2d347af78"/>
      </defs>
      <g>
       <use style="stroke:#000000;stroke-linecap:butt;stroke-width:0.5;" x="73.35" xlink:href="#mb2d347af78" y="297.308571429"/>
      </g>
     </g>
     <g id="line2d_21">
      <defs>
       <path d="
M0 0
L-4 0" id="m16ceb80ea5"/>
      </defs>
      <g>
       <use style="stroke:#000000;stroke-linecap:butt;stroke-width:0.5;" x="528.12" xlink:href="#m16ceb80ea5" y="297.308571429"/>
      </g>
     </g>
     <g id="text_10">
      <!-- 40 -->
      <g transform="translate(55.46375 301.676383929)scale(0.12 -0.12)">
       <use xlink:href="#BitstreamVeraSans-Roman-34"/>
       <use x="63.623046875" xlink:href="#BitstreamVeraSans-Roman-30"/>
      </g>
     </g>
    </g>
    <g id="ytick_4">
     <g id="line2d_22">
      <defs>
       <path d="
M0 0
L4 0" id="mb2d347af78"/>
      </defs>
      <g>
       <use style="stroke:#000000;stroke-linecap:butt;stroke-width:0.5;" x="73.35" xlink:href="#mb2d347af78" y="246.702857143"/>
      </g>
     </g>
     <g id="line2d_23">
      <defs>
       <path d="
M0 0
L-4 0" id="m16ceb80ea5"/>
      </defs>
      <g>
       <use style="stroke:#000000;stroke-linecap:butt;stroke-width:0.5;" x="528.12" xlink:href="#m16ceb80ea5" y="246.702857143"/>
      </g>
     </g>
     <g id="text_11">
      <!-- 60 -->
      <defs>
       <path d="
M33.0156 40.375
Q26.375 40.375 22.4844 35.8281
Q18.6094 31.2969 18.6094 23.3906
Q18.6094 15.5312 22.4844 10.9531
Q26.375 6.39062 33.0156 6.39062
Q39.6562 6.39062 43.5312 10.9531
Q47.4062 15.5312 47.4062 23.3906
Q47.4062 31.2969 43.5312 35.8281
Q39.6562 40.375 33.0156 40.375
M52.5938 71.2969
L52.5938 62.3125
Q48.875 64.0625 45.0938 64.9844
Q41.3125 65.9219 37.5938 65.9219
Q27.8281 65.9219 22.6719 59.3281
Q17.5312 52.7344 16.7969 39.4062
Q19.6719 43.6562 24.0156 45.9219
Q28.375 48.1875 33.5938 48.1875
Q44.5781 48.1875 50.9531 41.5156
Q57.3281 34.8594 57.3281 23.3906
Q57.3281 12.1562 50.6875 5.35938
Q44.0469 -1.42188 33.0156 -1.42188
Q20.3594 -1.42188 13.6719 8.26562
Q6.98438 17.9688 6.98438 36.375
Q6.98438 53.6562 15.1875 63.9375
Q23.3906 74.2188 37.2031 74.2188
Q40.9219 74.2188 44.7031 73.4844
Q48.4844 72.75 52.5938 71.2969" id="BitstreamVeraSans-Roman-36"/>
      </defs>
      <g transform="translate(55.715 251.070669643)scale(0.12 -0.12)">
       <use xlink:href="#BitstreamVeraSans-Roman-36"/>
       <use x="63.623046875" xlink:href="#BitstreamVeraSans-Roman-30"/>
      </g>
     </g>
    </g>
    <g id="ytick_5">
     <g id="line2d_24">
      <defs>
       <path d="
M0 0
L4 0" id="mb2d347af78"/>
      </defs>
      <g>
       <use style="stroke:#000000;stroke-linecap:butt;stroke-width:0.5;" x="73.35" xlink:href="#mb2d347af78" y="196.097142857"/>
      </g>
     </g>
     <g id="line2d_25">
      <defs>
       <path d="
M0 0
L-4 0" id="m16ceb80ea5"/>
      </defs>
      <g>
       <use style="stroke:#000000;stroke-linecap:butt;stroke-width:0.5;" x="528.12" xlink:href="#m16ceb80ea5" y="196.097142857"/>
      </g>
     </g>
     <g id="text_12">
      <!-- 80 -->
      <defs>
       <path d="
M31.7812 34.625
Q24.75 34.625 20.7188 30.8594
Q16.7031 27.0938 16.7031 20.5156
Q16.7031 13.9219 20.7188 10.1562
Q24.75 6.39062 31.7812 6.39062
Q38.8125 6.39062 42.8594 10.1719
Q46.9219 13.9688 46.9219 20.5156
Q46.9219 27.0938 42.8906 30.8594
Q38.875 34.625 31.7812 34.625
M21.9219 38.8125
Q15.5781 40.375 12.0312 44.7188
Q8.5 49.0781 8.5 55.3281
Q8.5 64.0625 14.7188 69.1406
Q20.9531 74.2188 31.7812 74.2188
Q42.6719 74.2188 48.875 69.1406
Q55.0781 64.0625 55.0781 55.3281
Q55.0781 49.0781 51.5312 44.7188
Q48 40.375 41.7031 38.8125
Q48.8281 37.1562 52.7969 32.3125
Q56.7812 27.4844 56.7812 20.5156
Q56.7812 9.90625 50.3125 4.23438
Q43.8438 -1.42188 31.7812 -1.42188
Q19.7344 -1.42188 13.25 4.23438
Q6.78125 9.90625 6.78125 20.5156
Q6.78125 27.4844 10.7812 32.3125
Q14.7969 37.1562 21.9219 38.8125
M18.3125 54.3906
Q18.3125 48.7344 21.8438 45.5625
Q25.3906 42.3906 31.7812 42.3906
Q38.1406 42.3906 41.7188 45.5625
Q45.3125 48.7344 45.3125 54.3906
Q45.3125 60.0625 41.7188 63.2344
Q38.1406 66.4062 31.7812 66.4062
Q25.3906 66.4062 21.8438 63.2344
Q18.3125 60.0625 18.3125 54.3906" id="BitstreamVeraSans-Roman-38"/>
      </defs>
      <g transform="translate(55.690625 200.464955357)scale(0.12 -0.12)">
       <use xlink:href="#BitstreamVeraSans-Roman-38"/>
       <use x="63.623046875" xlink:href="#BitstreamVeraSans-Roman-30"/>
      </g>
     </g>
    </g>
    <g id="ytick_6">
     <g id="line2d_26">
      <defs>
       <path d="
M0 0
L4 0" id="mb2d347af78"/>
      </defs>
      <g>
       <use style="stroke:#000000;stroke-linecap:butt;stroke-width:0.5;" x="73.35" xlink:href="#mb2d347af78" y="145.491428571"/>
      </g>
     </g>
     <g id="line2d_27">
      <defs>
       <path d="
M0 0
L-4 0" id="m16ceb80ea5"/>
      </defs>
      <g>
       <use style="stroke:#000000;stroke-linecap:butt;stroke-width:0.5;" x="528.12" xlink:href="#m16ceb80ea5" y="145.491428571"/>
      </g>
     </g>
     <g id="text_13">
      <!-- 100 -->
      <g transform="translate(48.56 149.859241071)scale(0.12 -0.12)">
       <use xlink:href="#BitstreamVeraSans-Roman-31"/>
       <use x="63.623046875" xlink:href="#BitstreamVeraSans-Roman-30"/>
       <use x="127.24609375" xlink:href="#BitstreamVeraSans-Roman-30"/>
      </g>
     </g>
    </g>
    <g id="ytick_7">
     <g id="line2d_28">
      <defs>
       <path d="
M0 0
L4 0" id="mb2d347af78"/>
      </defs>
      <g>
       <use style="stroke:#000000;stroke-linecap:butt;stroke-width:0.5;" x="73.35" xlink:href="#mb2d347af78" y="94.8857142857"/>
      </g>
     </g>
     <g id="line2d_29">
      <defs>
       <path d="
M0 0
L-4 0" id="m16ceb80ea5"/>
      </defs>
      <g>
       <use style="stroke:#000000;stroke-linecap:butt;stroke-width:0.5;" x="528.12" xlink:href="#m16ceb80ea5" y="94.8857142857"/>
      </g>
     </g>
     <g id="text_14">
      <!-- 120 -->
      <g transform="translate(48.56 99.2535267857)scale(0.12 -0.12)">
       <use xlink:href="#BitstreamVeraSans-Roman-31"/>
       <use x="63.623046875" xlink:href="#BitstreamVeraSans-Roman-32"/>
       <use x="127.24609375" xlink:href="#BitstreamVeraSans-Roman-30"/>
      </g>
     </g>
    </g>
    <g id="ytick_8">
     <g id="line2d_30">
      <defs>
       <path d="
M0 0
L4 0" id="mb2d347af78"/>
      </defs>
      <g>
       <use style="stroke:#000000;stroke-linecap:butt;stroke-width:0.5;" x="73.35" xlink:href="#mb2d347af78" y="44.28"/>
      </g>
     </g>
     <g id="line2d_31">
      <defs>
       <path d="
M0 0
L-4 0" id="m16ceb80ea5"/>
      </defs>
      <g>
       <use style="stroke:#000000;stroke-linecap:butt;stroke-width:0.5;" x="528.12" xlink:href="#m16ceb80ea5" y="44.28"/>
      </g>
     </g>
     <g id="text_15">
      <!-- 140 -->
      <g transform="translate(48.56 48.6478125)scale(0.12 -0.12)">
       <use xlink:href="#BitstreamVeraSans-Roman-31"/>
       <use x="63.623046875" xlink:href="#BitstreamVeraSans-Roman-34"/>
       <use x="127.24609375" xlink:href="#BitstreamVeraSans-Roman-30"/>
      </g>
     </g>
    </g>
    <g id="text_16">
     <!-- Distance from Origin -->
     <defs>
      <path id="BitstreamVeraSans-Roman-20"/>
      <path d="
M39.4062 66.2188
Q28.6562 66.2188 22.3281 58.2031
Q16.0156 50.2031 16.0156 36.375
Q16.0156 22.6094 22.3281 14.5938
Q28.6562 6.59375 39.4062 6.59375
Q50.1406 6.59375 56.4219 14.5938
Q62.7031 22.6094 62.7031 36.375
Q62.7031 50.2031 56.4219 58.2031
Q50.1406 66.2188 39.4062 66.2188
M39.4062 74.2188
Q54.7344 74.2188 63.9062 63.9375
Q73.0938 53.6562 73.0938 36.375
Q73.0938 19.1406 63.9062 8.85938
Q54.7344 -1.42188 39.4062 -1.42188
Q24.0312 -1.42188 14.8125 8.82812
Q5.60938 19.0938 5.60938 36.375
Q5.60938 53.6562 14.8125 63.9375
Q24.0312 74.2188 39.4062 74.2188" id="BitstreamVeraSans-Roman-4f"/>
      <path d="
M54.8906 33.0156
L54.8906 0
L45.9062 0
L45.9062 32.7188
Q45.9062 40.4844 42.875 44.3281
Q39.8438 48.1875 33.7969 48.1875
Q26.5156 48.1875 22.3125 43.5469
Q18.1094 38.9219 18.1094 30.9062
L18.1094 0
L9.07812 0
L9.07812 54.6875
L18.1094 54.6875
L18.1094 46.1875
Q21.3438 51.125 25.7031 53.5625
Q30.0781 56 35.7969 56
Q45.2188 56 50.0469 50.1719
Q54.8906 44.3438 54.8906 33.0156" id="BitstreamVeraSans-Roman-6e"/>
      <path d="
M41.1094 46.2969
Q39.5938 47.1719 37.8125 47.5781
Q36.0312 48 33.8906 48
Q26.2656 48 22.1875 43.0469
Q18.1094 38.0938 18.1094 28.8125
L18.1094 0
L9.07812 0
L9.07812 54.6875
L18.1094 54.6875
L18.1094 46.1875
Q20.9531 51.1719 25.4844 53.5781
Q30.0312 56 36.5312 56
Q37.4531 56 38.5781 55.875
Q39.7031 55.7656 41.0625 55.5156
z
" id="BitstreamVeraSans-Roman-72"/>
      <path d="
M30.6094 48.3906
Q23.3906 48.3906 19.1875 42.75
Q14.9844 37.1094 14.9844 27.2969
Q14.9844 17.4844 19.1562 11.8438
Q23.3438 6.20312 30.6094 6.20312
Q37.7969 6.20312 41.9844 11.8594
Q46.1875 17.5312 46.1875 27.2969
Q46.1875 37.0156 41.9844 42.7031
Q37.7969 48.3906 30.6094 48.3906
M30.6094 56
Q42.3281 56 49.0156 48.375
Q55.7188 40.7656 55.7188 27.2969
Q55.7188 13.875 49.0156 6.21875
Q42.3281 -1.42188 30.6094 -1.42188
Q18.8438 -1.42188 12.1719 6.21875
Q5.51562 13.875 5.51562 27.2969
Q5.51562 40.7656 12.1719 48.375
Q18.8438 56 30.6094 56" id="BitstreamVeraSans-Roman-6f"/>
      <path d="
M19.6719 64.7969
L19.6719 8.10938
L31.5938 8.10938
Q46.6875 8.10938 53.6875 14.9375
Q60.6875 21.7812 60.6875 36.5312
Q60.6875 51.1719 53.6875 57.9844
Q46.6875 64.7969 31.5938 64.7969
z

M9.8125 72.9062
L30.0781 72.9062
Q51.2656 72.9062 61.1719 64.0938
Q71.0938 55.2812 71.0938 36.5312
Q71.0938 17.6719 61.125 8.82812
Q51.1719 0 30.0781 0
L9.8125 0
z
" id="BitstreamVeraSans-Roman-44"/>
      <path d="
M45.4062 27.9844
Q45.4062 37.75 41.375 43.1094
Q37.3594 48.4844 30.0781 48.4844
Q22.8594 48.4844 18.8281 43.1094
Q14.7969 37.75 14.7969 27.9844
Q14.7969 18.2656 18.8281 12.8906
Q22.8594 7.51562 30.0781 7.51562
Q37.3594 7.51562 41.375 12.8906
Q45.4062 18.2656 45.4062 27.9844
M54.3906 6.78125
Q54.3906 -7.17188 48.1875 -13.9844
Q42 -20.7969 29.2031 -20.7969
Q24.4688 -20.7969 20.2656 -20.0938
Q16.0625 -19.3906 12.1094 -17.9219
L12.1094 -9.1875
Q16.0625 -11.3281 19.9219 -12.3438
Q23.7812 -13.375 27.7812 -13.375
Q36.625 -13.375 41.0156 -8.76562
Q45.4062 -4.15625 45.4062 5.17188
L45.4062 9.625
Q42.625 4.78125 38.2812 2.39062
Q33.9375 0 27.875 0
Q17.8281 0 11.6719 7.65625
Q5.51562 15.3281 5.51562 27.9844
Q5.51562 40.6719 11.6719 48.3281
Q17.8281 56 27.875 56
Q33.9375 56 38.2812 53.6094
Q42.625 51.2188 45.4062 46.3906
L45.4062 54.6875
L54.3906 54.6875
z
" id="BitstreamVeraSans-Roman-67"/>
      <path d="
M18.3125 70.2188
L18.3125 54.6875
L36.8125 54.6875
L36.8125 47.7031
L18.3125 47.7031
L18.3125 18.0156
Q18.3125 11.3281 20.1406 9.42188
Q21.9688 7.51562 27.5938 7.51562
L36.8125 7.51562
L36.8125 0
L27.5938 0
Q17.1875 0 13.2344 3.875
Q9.28125 7.76562 9.28125 18.0156
L9.28125 47.7031
L2.6875 47.7031
L2.6875 54.6875
L9.28125 54.6875
L9.28125 70.2188
z
" id="BitstreamVeraSans-Roman-74"/>
      <path d="
M37.1094 75.9844
L37.1094 68.5
L28.5156 68.5
Q23.6875 68.5 21.7969 66.5469
Q19.9219 64.5938 19.9219 59.5156
L19.9219 54.6875
L34.7188 54.6875
L34.7188 47.7031
L19.9219 47.7031
L19.9219 0
L10.8906 0
L10.8906 47.7031
L2.29688 47.7031
L2.29688 54.6875
L10.8906 54.6875
L10.8906 58.5
Q10.8906 67.625 15.1406 71.7969
Q19.3906 75.9844 28.6094 75.9844
z
" id="BitstreamVeraSans-Roman-66"/>
      <path d="
M34.2812 27.4844
Q23.3906 27.4844 19.1875 25
Q14.9844 22.5156 14.9844 16.5
Q14.9844 11.7188 18.1406 8.90625
Q21.2969 6.10938 26.7031 6.10938
Q34.1875 6.10938 38.7031 11.4062
Q43.2188 16.7031 43.2188 25.4844
L43.2188 27.4844
z

M52.2031 31.2031
L52.2031 0
L43.2188 0
L43.2188 8.29688
Q40.1406 3.32812 35.5469 0.953125
Q30.9531 -1.42188 24.3125 -1.42188
Q15.9219 -1.42188 10.9531 3.29688
Q6 8.01562 6 15.9219
Q6 25.1406 12.1719 29.8281
Q18.3594 34.5156 30.6094 34.5156
L43.2188 34.5156
L43.2188 35.4062
Q43.2188 41.6094 39.1406 45
Q35.0625 48.3906 27.6875 48.3906
Q23 48.3906 18.5469 47.2656
Q14.1094 46.1406 10.0156 43.8906
L10.0156 52.2031
Q14.9375 54.1094 19.5781 55.0469
Q24.2188 56 28.6094 56
Q40.4844 56 46.3438 49.8438
Q52.2031 43.7031 52.2031 31.2031" id="BitstreamVeraSans-Roman-61"/>
      <path d="
M44.2812 53.0781
L44.2812 44.5781
Q40.4844 46.5312 36.375 47.5
Q32.2812 48.4844 27.875 48.4844
Q21.1875 48.4844 17.8438 46.4375
Q14.5 44.3906 14.5 40.2812
Q14.5 37.1562 16.8906 35.375
Q19.2812 33.5938 26.5156 31.9844
L29.5938 31.2969
Q39.1562 29.25 43.1875 25.5156
Q47.2188 21.7812 47.2188 15.0938
Q47.2188 7.46875 41.1875 3.01562
Q35.1562 -1.42188 24.6094 -1.42188
Q20.2188 -1.42188 15.4531 -0.5625
Q10.6875 0.296875 5.42188 2
L5.42188 11.2812
Q10.4062 8.6875 15.2344 7.39062
Q20.0625 6.10938 24.8125 6.10938
Q31.1562 6.10938 34.5625 8.28125
Q37.9844 10.4531 37.9844 14.4062
Q37.9844 18.0625 35.5156 20.0156
Q33.0625 21.9688 24.7031 23.7812
L21.5781 24.5156
Q13.2344 26.2656 9.51562 29.9062
Q5.8125 33.5469 5.8125 39.8906
Q5.8125 47.6094 11.2812 51.7969
Q16.75 56 26.8125 56
Q31.7812 56 36.1719 55.2656
Q40.5781 54.5469 44.2812 53.0781" id="BitstreamVeraSans-Roman-73"/>
      <path d="
M48.7812 52.5938
L48.7812 44.1875
Q44.9688 46.2969 41.1406 47.3438
Q37.3125 48.3906 33.4062 48.3906
Q24.6562 48.3906 19.8125 42.8438
Q14.9844 37.3125 14.9844 27.2969
Q14.9844 17.2812 19.8125 11.7344
Q24.6562 6.20312 33.4062 6.20312
Q37.3125 6.20312 41.1406 7.25
Q44.9688 8.29688 48.7812 10.4062
L48.7812 2.09375
Q45.0156 0.34375 40.9844 -0.53125
Q36.9688 -1.42188 32.4219 -1.42188
Q20.0625 -1.42188 12.7812 6.34375
Q5.51562 14.1094 5.51562 27.2969
Q5.51562 40.6719 12.8594 48.3281
Q20.2188 56 33.0156 56
Q37.1562 56 41.1094 55.1406
Q45.0625 54.2969 48.7812 52.5938" id="BitstreamVeraSans-Roman-63"/>
     </defs>
     <g transform="translate(43.56 280.5384375)rotate(-90.0)scale(0.12 -0.12)">
      <use xlink:href="#BitstreamVeraSans-Roman-44"/>
      <use x="77.001953125" xlink:href="#BitstreamVeraSans-Roman-69"/>
      <use x="104.78515625" xlink:href="#BitstreamVeraSans-Roman-73"/>
      <use x="156.884765625" xlink:href="#BitstreamVeraSans-Roman-74"/>
      <use x="196.09375" xlink:href="#BitstreamVeraSans-Roman-61"/>
      <use x="257.373046875" xlink:href="#BitstreamVeraSans-Roman-6e"/>
      <use x="320.751953125" xlink:href="#BitstreamVeraSans-Roman-63"/>
      <use x="375.732421875" xlink:href="#BitstreamVeraSans-Roman-65"/>
      <use x="437.255859375" xlink:href="#BitstreamVeraSans-Roman-20"/>
      <use x="469.04296875" xlink:href="#BitstreamVeraSans-Roman-66"/>
      <use x="504.248046875" xlink:href="#BitstreamVeraSans-Roman-72"/>
      <use x="543.111328125" xlink:href="#BitstreamVeraSans-Roman-6f"/>
      <use x="604.29296875" xlink:href="#BitstreamVeraSans-Roman-6d"/>
      <use x="701.705078125" xlink:href="#BitstreamVeraSans-Roman-20"/>
      <use x="733.4921875" xlink:href="#BitstreamVeraSans-Roman-4f"/>
      <use x="812.203125" xlink:href="#BitstreamVeraSans-Roman-72"/>
      <use x="853.31640625" xlink:href="#BitstreamVeraSans-Roman-69"/>
      <use x="881.099609375" xlink:href="#BitstreamVeraSans-Roman-67"/>
      <use x="944.576171875" xlink:href="#BitstreamVeraSans-Roman-69"/>
      <use x="972.359375" xlink:href="#BitstreamVeraSans-Roman-6e"/>
     </g>
    </g>
   </g>
   <g id="patch_3">
    <path d="
M73.35 44.28
L528.12 44.28" style="fill:none;stroke:#000000;"/>
   </g>
   <g id="patch_4">
    <path d="
M528.12 398.52
L528.12 44.28" style="fill:none;stroke:#000000;"/>
   </g>
   <g id="patch_5">
    <path d="
M73.35 398.52
L528.12 398.52" style="fill:none;stroke:#000000;"/>
   </g>
   <g id="patch_6">
    <path d="
M73.35 398.52
L73.35 44.28" style="fill:none;stroke:#000000;"/>
   </g>
   <g id="text_17">
    <!-- ColdDrunk 3 Trials -->
    <defs>
     <path d="
M45.4062 46.3906
L45.4062 75.9844
L54.3906 75.9844
L54.3906 0
L45.4062 0
L45.4062 8.20312
Q42.5781 3.32812 38.25 0.953125
Q33.9375 -1.42188 27.875 -1.42188
Q17.9688 -1.42188 11.7344 6.48438
Q5.51562 14.4062 5.51562 27.2969
Q5.51562 40.1875 11.7344 48.0938
Q17.9688 56 27.875 56
Q33.9375 56 38.25 53.625
Q42.5781 51.2656 45.4062 46.3906
M14.7969 27.2969
Q14.7969 17.3906 18.875 11.75
Q22.9531 6.10938 30.0781 6.10938
Q37.2031 6.10938 41.2969 11.75
Q45.4062 17.3906 45.4062 27.2969
Q45.4062 37.2031 41.2969 42.8438
Q37.2031 48.4844 30.0781 48.4844
Q22.9531 48.4844 18.875 42.8438
Q14.7969 37.2031 14.7969 27.2969" id="BitstreamVeraSans-Roman-64"/>
     <path d="
M8.5 21.5781
L8.5 54.6875
L17.4844 54.6875
L17.4844 21.9219
Q17.4844 14.1562 20.5 10.2656
Q23.5312 6.39062 29.5938 6.39062
Q36.8594 6.39062 41.0781 11.0312
Q45.3125 15.6719 45.3125 23.6875
L45.3125 54.6875
L54.2969 54.6875
L54.2969 0
L45.3125 0
L45.3125 8.40625
Q42.0469 3.42188 37.7188 1
Q33.4062 -1.42188 27.6875 -1.42188
Q18.2656 -1.42188 13.375 4.4375
Q8.5 10.2969 8.5 21.5781" id="BitstreamVeraSans-Roman-75"/>
     <path d="
M64.4062 67.2812
L64.4062 56.8906
Q59.4219 61.5312 53.7812 63.8125
Q48.1406 66.1094 41.7969 66.1094
Q29.2969 66.1094 22.6562 58.4688
Q16.0156 50.8281 16.0156 36.375
Q16.0156 21.9688 22.6562 14.3281
Q29.2969 6.6875 41.7969 6.6875
Q48.1406 6.6875 53.7812 8.98438
Q59.4219 11.2812 64.4062 15.9219
L64.4062 5.60938
Q59.2344 2.09375 53.4375 0.328125
Q47.6562 -1.42188 41.2188 -1.42188
Q24.6562 -1.42188 15.125 8.70312
Q5.60938 18.8438 5.60938 36.375
Q5.60938 53.9531 15.125 64.0781
Q24.6562 74.2188 41.2188 74.2188
Q47.75 74.2188 53.5312 72.4844
Q59.3281 70.75 64.4062 67.2812" id="BitstreamVeraSans-Roman-43"/>
     <path d="
M9.42188 75.9844
L18.4062 75.9844
L18.4062 0
L9.42188 0
z
" id="BitstreamVeraSans-Roman-6c"/>
     <path d="
M9.07812 75.9844
L18.1094 75.9844
L18.1094 31.1094
L44.9219 54.6875
L56.3906 54.6875
L27.3906 29.1094
L57.625 0
L45.9062 0
L18.1094 26.7031
L18.1094 0
L9.07812 0
z
" id="BitstreamVeraSans-Roman-6b"/>
    </defs>
    <g transform="translate(235.666125 39.28)scale(0.144 -0.144)">
     <use xlink:href="#BitstreamVeraSans-Roman-43"/>
     <use x="69.82421875" xlink:href="#BitstreamVeraSans-Roman-6f"/>
     <use x="131.005859375" xlink:href="#BitstreamVeraSans-Roman-6c"/>
     <use x="158.7890625" xlink:href="#BitstreamVeraSans-Roman-64"/>
     <use x="222.265625" xlink:href="#BitstreamVeraSans-Roman-44"/>
     <use x="299.267578125" xlink:href="#BitstreamVeraSans-Roman-72"/>
     <use x="340.380859375" xlink:href="#BitstreamVeraSans-Roman-75"/>
     <use x="403.759765625" xlink:href="#BitstreamVeraSans-Roman-6e"/>
     <use x="467.138671875" xlink:href="#BitstreamVeraSans-Roman-6b"/>
     <use x="525.048828125" xlink:href="#BitstreamVeraSans-Roman-20"/>
     <use x="556.8359375" xlink:href="#BitstreamVeraSans-Roman-33"/>
     <use x="620.458984375" xlink:href="#BitstreamVeraSans-Roman-20"/>
     <use x="652.24609375" xlink:href="#BitstreamVeraSans-Roman-54"/>
     <use x="698.580078125" xlink:href="#BitstreamVeraSans-Roman-72"/>
     <use x="739.693359375" xlink:href="#BitstreamVeraSans-Roman-69"/>
     <use x="767.4765625" xlink:href="#BitstreamVeraSans-Roman-61"/>
     <use x="828.755859375" xlink:href="#BitstreamVeraSans-Roman-6c"/>
     <use x="856.5390625" xlink:href="#BitstreamVeraSans-Roman-73"/>
    </g>
   </g>
  </g>
 </g>
 <defs>
  <clipPath id="p9061672a36">
   <rect height="354.24" width="454.77" x="73.35" y="44.28"/>
  </clipPath>
 </defs>
</svg>
