<?xml version="1.0" encoding="utf-8" standalone="no"?>
<!DOCTYPE svg PUBLIC "-//W3C//DTD SVG 1.1//EN"
  "http://www.w3.org/Graphics/SVG/1.1/DTD/svg11.dtd">
<!-- Created with matplotlib (http://matplotlib.sourceforge.net/) -->
<svg height="604pt" version="1.1" viewBox="0 0 1229 604" width="1229pt" xmlns="http://www.w3.org/2000/svg" xmlns:xlink="http://www.w3.org/1999/xlink">
 <defs>
  <style type="text/css">
*{stroke-linecap:square;stroke-linejoin:round;}
  </style>
 </defs>
 <g id="figure_1">
  <g id="patch_1">
   <path d="
M0 604.8
L1229.4 604.8
L1229.4 0
L0 0
z
" style="fill:#ffffff;"/>
  </g>
  <g id="axes_1">
   <g id="patch_2">
    <path d="
M153.675 544.32
L1106.46 544.32
L1106.46 60.48
L153.675 60.48
z
" style="fill:#ffffff;"/>
   </g>
   <g id="line2d_1">
    <path clip-path="url(#p308ec8ec34)" d="
M153.675 544.32
L159.392 486.259
L161.297 505.613
L168.92 428.198
L172.731 466.906
L178.447 408.845
L180.353 428.198
L184.164 389.491
L189.881 447.552
L193.692 408.845
L195.598 428.198
L201.314 370.138
L203.22 389.491
L205.125 370.138
L210.842 428.198
L214.653 389.491
L218.464 428.198
L224.181 370.138
L235.615 486.259
L237.52 466.906
L239.426 486.259
L254.67 331.43
L258.481 370.138
L266.104 292.723
L271.82 350.784
L277.537 292.723
L279.443 312.077
L281.348 292.723
L283.254 312.077
L285.159 292.723
L287.065 312.077
L292.782 254.016
L294.687 273.37
L296.593 254.016
L298.498 273.37
L302.309 234.662
L304.215 254.016
L306.121 234.662
L308.026 254.016
L309.932 234.662
L311.837 254.016
L313.743 234.662
L317.554 273.37
L319.46 254.016
L321.365 273.37
L325.176 234.662
L330.893 292.723
L332.799 273.37
L334.704 292.723
L338.515 254.016
L340.421 273.37
L344.232 234.662
L346.138 254.016
L348.043 234.662
L357.571 331.43
L361.382 292.723
L363.288 312.077
L365.193 292.723
L367.099 312.077
L372.816 254.016
L376.627 292.723
L380.438 254.016
L386.155 312.077
L388.06 292.723
L389.966 312.077
L391.871 292.723
L393.777 312.077
L395.682 292.723
L399.494 331.43
L401.399 312.077
L410.927 408.845
L414.738 370.138
L422.36 447.552
L424.266 428.198
L428.077 466.906
L431.888 428.198
L441.416 524.966
L443.322 505.613
L447.133 544.32
L449.038 524.966
L450.944 544.32
L452.849 524.966
L454.755 544.32
L460.472 486.259
L462.377 505.613
L464.283 486.259
L470 544.32
L471.905 524.966
L473.811 544.32
L477.622 505.613
L479.527 524.966
L487.15 447.552
L492.866 505.613
L494.772 486.259
L500.489 544.32
L504.3 505.613
L506.205 524.966
L508.111 505.613
L510.017 524.966
L513.828 486.259
L519.544 544.32
L521.45 524.966
L523.356 544.32
L525.261 524.966
L527.167 544.32
L530.978 505.613
L532.883 524.966
L536.695 486.259
L542.411 544.32
L548.128 486.259
L550.034 505.613
L553.845 466.906
L557.656 505.613
L561.467 466.906
L563.373 486.259
L565.278 466.906
L567.184 486.259
L570.995 447.552
L572.9 466.906
L574.806 447.552
L580.523 505.613
L584.334 466.906
L586.239 486.259
L588.145 466.906
L590.051 486.259
L591.956 466.906
L593.862 486.259
L601.484 408.845
L603.39 428.198
L607.201 389.491
L609.106 408.845
L611.012 389.491
L612.917 408.845
L618.634 350.784
L620.54 370.138
L622.445 350.784
L624.351 370.138
L626.256 350.784
L628.162 370.138
L635.784 292.723
L637.69 312.077
L643.406 254.016
L654.84 370.138
L662.462 292.723
L664.368 312.077
L666.273 292.723
L679.612 428.198
L689.14 331.43
L696.762 408.845
L698.668 389.491
L706.29 466.906
L713.913 389.491
L719.629 447.552
L721.535 428.198
L732.968 544.32
L734.874 524.966
L736.779 544.32
L738.685 524.966
L740.591 544.32
L742.496 524.966
L744.402 544.32
L746.307 524.966
L748.213 544.32
L750.118 524.966
L752.024 544.32
L759.646 466.906
L763.457 505.613
L769.174 447.552
L771.08 466.906
L780.608 370.138
L782.513 389.491
L784.419 370.138
L793.947 466.906
L797.758 428.198
L799.663 447.552
L801.569 428.198
L805.38 466.906
L811.097 408.845
L820.624 505.613
L822.53 486.259
L828.247 544.32
L830.152 524.966
L832.058 544.32
L839.68 466.906
L841.586 486.259
L847.302 428.198
L849.208 447.552
L851.114 428.198
L853.019 447.552
L856.83 408.845
L862.547 466.906
L868.264 408.845
L875.886 486.259
L894.942 292.723
L896.847 312.077
L900.658 273.37
L902.564 292.723
L904.47 273.37
L910.186 331.43
L912.092 312.077
L913.997 331.43
L915.903 312.077
L917.809 331.43
L919.714 312.077
L931.148 428.198
L933.053 408.845
L938.77 466.906
L940.675 447.552
L944.487 486.259
L948.298 447.552
L952.109 486.259
L955.92 447.552
L961.637 505.613
L965.448 466.906
L971.165 524.966
L973.07 505.613
L976.881 544.32
L978.787 524.966
L980.692 544.32
L984.504 505.613
L988.315 544.32
L990.22 524.966
L992.126 544.32
L994.031 524.966
L995.937 544.32
L997.843 524.966
L999.748 544.32
L1003.56 505.613
L1005.46 524.966
L1007.37 505.613
L1011.18 544.32
L1013.09 524.966
L1014.99 544.32
L1018.8 505.613
L1020.71 524.966
L1022.61 505.613
L1024.52 524.966
L1028.33 486.259
L1030.24 505.613
L1032.14 486.259
L1037.86 544.32
L1039.77 524.966
L1041.67 544.32
L1045.48 505.613
L1049.29 544.32
L1053.1 505.613
L1056.92 544.32
L1064.54 466.906
L1066.44 486.259
L1074.07 408.845
L1077.88 447.552
L1079.78 428.198
L1081.69 447.552
L1089.31 370.138
L1091.22 389.491
L1093.12 370.138
L1098.84 428.198
L1106.46 350.784
L1106.46 350.784" style="fill:none;stroke:#0000ff;"/>
   </g>
   <g id="line2d_2">
    <path clip-path="url(#p308ec8ec34)" d="
M153.675 544.32
L161.297 466.906
L165.108 505.613
L174.636 408.845
L176.542 428.198
L180.353 389.491
L182.259 408.845
L186.07 370.138
L187.975 389.491
L189.881 370.138
L191.786 389.491
L195.598 350.784
L197.503 370.138
L199.409 350.784
L203.22 389.491
L210.842 312.077
L212.748 331.43
L214.653 312.077
L218.464 350.784
L220.37 331.43
L224.181 370.138
L231.803 292.723
L235.615 331.43
L239.426 292.723
L243.237 331.43
L245.142 312.077
L250.859 370.138
L252.765 350.784
L256.576 389.491
L258.481 370.138
L266.104 447.552
L268.009 428.198
L269.915 447.552
L271.82 428.198
L275.631 466.906
L277.537 447.552
L281.348 486.259
L287.065 428.198
L290.876 466.906
L292.782 447.552
L296.593 486.259
L304.215 408.845
L311.837 486.259
L313.743 466.906
L315.648 486.259
L317.554 466.906
L319.46 486.259
L328.987 389.491
L330.893 408.845
L332.799 389.491
L340.421 466.906
L344.232 428.198
L346.138 447.552
L349.949 408.845
L353.76 447.552
L359.477 389.491
L361.382 408.845
L367.099 350.784
L369.004 370.138
L370.91 350.784
L372.816 370.138
L374.721 350.784
L380.438 408.845
L382.343 389.491
L386.155 428.198
L389.966 389.491
L401.399 505.613
L410.927 408.845
L412.833 428.198
L414.738 408.845
L420.455 466.906
L426.172 408.845
L428.077 428.198
L429.983 408.845
L431.888 428.198
L433.794 408.845
L437.605 447.552
L439.51 428.198
L441.416 447.552
L443.322 428.198
L452.849 524.966
L456.661 486.259
L462.377 544.32
L466.188 505.613
L470 544.32
L473.811 505.613
L477.622 544.32
L481.433 505.613
L483.339 524.966
L485.244 505.613
L487.15 524.966
L489.055 505.613
L492.866 544.32
L498.583 486.259
L504.3 544.32
L506.205 524.966
L508.111 544.32
L510.017 524.966
L511.922 544.32
L513.828 524.966
L515.733 544.32
L517.639 524.966
L519.544 544.32
L525.261 486.259
L527.167 505.613
L532.883 447.552
L536.695 486.259
L538.6 466.906
L542.411 505.613
L546.222 466.906
L550.034 505.613
L551.939 486.259
L553.845 505.613
L555.75 486.259
L557.656 505.613
L559.561 486.259
L561.467 505.613
L563.373 486.259
L569.089 544.32
L574.806 486.259
L576.712 505.613
L578.617 486.259
L580.523 505.613
L582.428 486.259
L584.334 505.613
L586.239 486.259
L588.145 505.613
L590.051 486.259
L595.767 544.32
L601.484 486.259
L603.39 505.613
L607.201 466.906
L612.917 524.966
L616.729 486.259
L618.634 505.613
L620.54 486.259
L622.445 505.613
L624.351 486.259
L626.256 505.613
L630.067 466.906
L637.69 544.32
L641.501 505.613
L643.406 524.966
L649.123 466.906
L651.029 486.259
L652.934 466.906
L654.84 486.259
L662.462 408.845
L666.273 447.552
L670.084 408.845
L671.99 428.198
L675.801 389.491
L677.707 408.845
L679.612 389.491
L681.518 408.845
L683.423 389.491
L685.329 408.845
L687.235 389.491
L689.14 408.845
L692.951 370.138
L694.857 389.491
L704.385 292.723
L708.196 331.43
L710.101 312.077
L723.44 447.552
L727.252 408.845
L729.157 428.198
L734.874 370.138
L740.591 428.198
L742.496 408.845
L753.93 524.966
L761.552 447.552
L771.08 544.32
L776.796 486.259
L778.702 505.613
L780.608 486.259
L786.324 544.32
L788.23 524.966
L790.135 544.32
L795.852 486.259
L799.663 524.966
L803.474 486.259
L805.38 505.613
L809.191 466.906
L816.813 544.32
L818.719 524.966
L820.624 544.32
L824.436 505.613
L828.247 544.32
L833.963 486.259
L835.869 505.613
L839.68 466.906
L841.586 486.259
L847.302 428.198
L849.208 447.552
L853.019 408.845
L856.83 447.552
L858.736 428.198
L864.453 486.259
L872.075 408.845
L873.98 428.198
L875.886 408.845
L877.792 428.198
L881.603 389.491
L885.414 428.198
L887.319 408.845
L889.225 428.198
L893.036 389.491
L896.847 428.198
L898.753 408.845
L900.658 428.198
L902.564 408.845
L904.47 428.198
L908.281 389.491
L919.714 505.613
L925.431 447.552
L927.336 466.906
L931.148 428.198
L933.053 447.552
L938.77 389.491
L940.675 408.845
L942.581 389.491
L944.487 408.845
L946.392 389.491
L948.298 408.845
L952.109 370.138
L954.014 389.491
L955.92 370.138
L957.826 389.491
L965.448 312.077
L967.353 331.43
L969.259 312.077
L978.787 408.845
L982.598 370.138
L990.22 447.552
L994.031 408.845
L997.843 447.552
L1003.56 389.491
L1005.46 408.845
L1007.37 389.491
L1009.28 408.845
L1011.18 389.491
L1013.09 408.845
L1016.9 370.138
L1018.8 389.491
L1020.71 370.138
L1028.33 447.552
L1030.24 428.198
L1032.14 447.552
L1037.86 389.491
L1039.77 408.845
L1043.58 370.138
L1047.39 408.845
L1049.29 389.491
L1055.01 447.552
L1060.73 389.491
L1064.54 428.198
L1066.44 408.845
L1068.35 428.198
L1070.25 408.845
L1077.88 486.259
L1079.78 466.906
L1087.4 544.32
L1091.22 505.613
L1093.12 524.966
L1095.03 505.613
L1098.84 544.32
L1104.55 486.259
L1106.46 505.613
L1106.46 505.613" style="fill:none;stroke:#008000;"/>
   </g>
   <g id="line2d_3">
    <path clip-path="url(#p308ec8ec34)" d="
M153.675 544.32
L159.392 486.259
L165.108 544.32
L168.92 505.613
L172.731 544.32
L176.542 505.613
L180.353 544.32
L189.881 447.552
L191.786 466.906
L193.692 447.552
L195.598 466.906
L199.409 428.198
L208.937 524.966
L210.842 505.613
L212.748 524.966
L214.653 505.613
L218.464 544.32
L233.709 389.491
L235.615 408.845
L239.426 370.138
L245.142 428.198
L247.048 408.845
L250.859 447.552
L254.67 408.845
L256.576 428.198
L258.481 408.845
L260.387 428.198
L264.198 389.491
L273.726 486.259
L277.537 447.552
L283.254 505.613
L285.159 486.259
L287.065 505.613
L292.782 447.552
L294.687 466.906
L300.404 408.845
L302.309 428.198
L309.932 350.784
L317.554 428.198
L319.46 408.845
L321.365 428.198
L328.987 350.784
L330.893 370.138
L332.799 350.784
L338.515 408.845
L340.421 389.491
L342.326 408.845
L344.232 389.491
L357.571 524.966
L359.477 505.613
L361.382 524.966
L365.193 486.259
L369.004 524.966
L374.721 466.906
L376.627 486.259
L378.532 466.906
L380.438 486.259
L388.06 408.845
L395.682 486.259
L403.305 408.845
L407.116 447.552
L414.738 370.138
L416.644 389.491
L420.455 350.784
L424.266 389.491
L429.983 331.43
L431.888 350.784
L441.416 254.016
L443.322 273.37
L456.661 137.894
L460.472 176.602
L462.377 157.248
L466.188 195.955
L468.094 176.602
L470 195.955
L471.905 176.602
L477.622 234.662
L481.433 195.955
L489.055 273.37
L490.961 254.016
L492.866 273.37
L494.772 254.016
L496.678 273.37
L498.583 254.016
L500.489 273.37
L504.3 234.662
L508.111 273.37
L515.733 195.955
L521.45 254.016
L525.261 215.309
L529.072 254.016
L534.789 195.955
L536.695 215.309
L538.6 195.955
L544.317 254.016
L548.128 215.309
L550.034 234.662
L555.75 176.602
L561.467 234.662
L563.373 215.309
L567.184 254.016
L570.995 215.309
L574.806 254.016
L576.712 234.662
L580.523 273.37
L582.428 254.016
L586.239 292.723
L588.145 273.37
L593.862 331.43
L601.484 254.016
L607.201 312.077
L609.106 292.723
L611.012 312.077
L612.917 292.723
L614.823 312.077
L616.729 292.723
L618.634 312.077
L622.445 273.37
L626.256 312.077
L628.162 292.723
L630.067 312.077
L631.973 292.723
L635.784 331.43
L637.69 312.077
L643.406 370.138
L647.218 331.43
L651.029 370.138
L652.934 350.784
L656.745 389.491
L660.557 350.784
L662.462 370.138
L666.273 331.43
L668.179 350.784
L671.99 312.077
L675.801 350.784
L683.423 273.37
L685.329 292.723
L689.14 254.016
L691.046 273.37
L694.857 234.662
L702.479 312.077
L704.385 292.723
L706.29 312.077
L710.101 273.37
L712.007 292.723
L713.913 273.37
L715.818 292.723
L719.629 254.016
L721.535 273.37
L723.44 254.016
L725.346 273.37
L729.157 234.662
L732.968 273.37
L738.685 215.309
L740.591 234.662
L742.496 215.309
L750.118 292.723
L755.835 234.662
L759.646 273.37
L761.552 254.016
L763.457 273.37
L765.363 254.016
L767.269 273.37
L769.174 254.016
L774.891 312.077
L780.608 254.016
L782.513 273.37
L784.419 254.016
L786.324 273.37
L788.23 254.016
L790.135 273.37
L792.041 254.016
L799.663 331.43
L807.286 254.016
L813.002 312.077
L820.624 234.662
L822.53 254.016
L828.247 195.955
L832.058 234.662
L833.963 215.309
L837.775 254.016
L847.302 157.248
L851.114 195.955
L856.83 137.894
L858.736 157.248
L864.453 99.1872
L868.264 137.894
L870.169 118.541
L875.886 176.602
L877.792 157.248
L881.603 195.955
L885.414 157.248
L887.319 176.602
L891.131 137.894
L893.036 157.248
L894.942 137.894
L902.564 215.309
L910.186 137.894
L912.092 157.248
L915.903 118.541
L917.809 137.894
L919.714 118.541
L927.336 195.955
L936.864 99.1872
L946.392 195.955
L948.298 176.602
L952.109 215.309
L954.014 195.955
L955.92 215.309
L959.731 176.602
L961.637 195.955
L963.542 176.602
L967.353 215.309
L971.165 176.602
L973.07 195.955
L976.881 157.248
L982.598 215.309
L988.315 157.248
L990.22 176.602
L992.126 157.248
L995.937 195.955
L999.748 157.248
L1003.56 195.955
L1007.37 157.248
L1011.18 195.955
L1016.9 137.894
L1020.71 176.602
L1022.61 157.248
L1024.52 176.602
L1030.24 118.541
L1041.67 234.662
L1049.29 157.248
L1055.01 215.309
L1056.92 195.955
L1062.63 254.016
L1068.35 195.955
L1077.88 292.723
L1079.78 273.37
L1083.59 312.077
L1085.5 292.723
L1093.12 370.138
L1096.93 331.43
L1098.84 350.784
L1102.65 312.077
L1106.46 350.784
L1106.46 350.784" style="fill:none;stroke:#ff0000;"/>
   </g>
   <g id="matplotlib.axis_1">
    <g id="xtick_1">
     <g id="line2d_4">
      <defs>
       <path d="
M0 0
L0 -4" id="m1d6c4e73da"/>
      </defs>
      <g>
       <use style="stroke:#000000;stroke-linecap:butt;stroke-width:0.5;" x="153.675" xlink:href="#m1d6c4e73da" y="544.32"/>
      </g>
     </g>
     <g id="line2d_5">
      <defs>
       <path d="
M0 0
L0 4" id="m763cc79d7a"/>
      </defs>
      <g>
       <use style="stroke:#000000;stroke-linecap:butt;stroke-width:0.5;" x="153.675" xlink:href="#m763cc79d7a" y="60.48"/>
      </g>
     </g>
     <g id="text_1">
      <!-- 0 -->
      <defs>
       <path d="
M31.7812 66.4062
Q24.1719 66.4062 20.3281 58.9062
Q16.5 51.4219 16.5 36.375
Q16.5 21.3906 20.3281 13.8906
Q24.1719 6.39062 31.7812 6.39062
Q39.4531 6.39062 43.2812 13.8906
Q47.125 21.3906 47.125 36.375
Q47.125 51.4219 43.2812 58.9062
Q39.4531 66.4062 31.7812 66.4062
M31.7812 74.2188
Q44.0469 74.2188 50.5156 64.5156
Q56.9844 54.8281 56.9844 36.375
Q56.9844 17.9688 50.5156 8.26562
Q44.0469 -1.42188 31.7812 -1.42188
Q19.5312 -1.42188 13.0625 8.26562
Q6.59375 17.9688 6.59375 36.375
Q6.59375 54.8281 13.0625 64.5156
Q19.5312 74.2188 31.7812 74.2188" id="BitstreamVeraSans-Roman-30"/>
      </defs>
      <g transform="translate(150.6515625 557.22625)scale(0.12 -0.12)">
       <use xlink:href="#BitstreamVeraSans-Roman-30"/>
      </g>
     </g>
    </g>
    <g id="xtick_2">
     <g id="line2d_6">
      <defs>
       <path d="
M0 0
L0 -4" id="m1d6c4e73da"/>
      </defs>
      <g>
       <use style="stroke:#000000;stroke-linecap:butt;stroke-width:0.5;" x="344.232" xlink:href="#m1d6c4e73da" y="544.32"/>
      </g>
     </g>
     <g id="line2d_7">
      <defs>
       <path d="
M0 0
L0 4" id="m763cc79d7a"/>
      </defs>
      <g>
       <use style="stroke:#000000;stroke-linecap:butt;stroke-width:0.5;" x="344.232" xlink:href="#m763cc79d7a" y="60.48"/>
      </g>
     </g>
     <g id="text_2">
      <!-- 100 -->
      <defs>
       <path d="
M12.4062 8.29688
L28.5156 8.29688
L28.5156 63.9219
L10.9844 60.4062
L10.9844 69.3906
L28.4219 72.9062
L38.2812 72.9062
L38.2812 8.29688
L54.3906 8.29688
L54.3906 0
L12.4062 0
z
" id="BitstreamVeraSans-Roman-31"/>
      </defs>
      <g transform="translate(333.837 557.22625)scale(0.12 -0.12)">
       <use xlink:href="#BitstreamVeraSans-Roman-31"/>
       <use x="63.623046875" xlink:href="#BitstreamVeraSans-Roman-30"/>
       <use x="127.24609375" xlink:href="#BitstreamVeraSans-Roman-30"/>
      </g>
     </g>
    </g>
    <g id="xtick_3">
     <g id="line2d_8">
      <defs>
       <path d="
M0 0
L0 -4" id="m1d6c4e73da"/>
      </defs>
      <g>
       <use style="stroke:#000000;stroke-linecap:butt;stroke-width:0.5;" x="534.789" xlink:href="#m1d6c4e73da" y="544.32"/>
      </g>
     </g>
     <g id="line2d_9">
      <defs>
       <path d="
M0 0
L0 4" id="m763cc79d7a"/>
      </defs>
      <g>
       <use style="stroke:#000000;stroke-linecap:butt;stroke-width:0.5;" x="534.789" xlink:href="#m763cc79d7a" y="60.48"/>
      </g>
     </g>
     <g id="text_3">
      <!-- 200 -->
      <defs>
       <path d="
M19.1875 8.29688
L53.6094 8.29688
L53.6094 0
L7.32812 0
L7.32812 8.29688
Q12.9375 14.1094 22.625 23.8906
Q32.3281 33.6875 34.8125 36.5312
Q39.5469 41.8438 41.4219 45.5312
Q43.3125 49.2188 43.3125 52.7812
Q43.3125 58.5938 39.2344 62.25
Q35.1562 65.9219 28.6094 65.9219
Q23.9688 65.9219 18.8125 64.3125
Q13.6719 62.7031 7.8125 59.4219
L7.8125 69.3906
Q13.7656 71.7812 18.9375 73
Q24.125 74.2188 28.4219 74.2188
Q39.75 74.2188 46.4844 68.5469
Q53.2188 62.8906 53.2188 53.4219
Q53.2188 48.9219 51.5312 44.8906
Q49.8594 40.875 45.4062 35.4062
Q44.1875 33.9844 37.6406 27.2188
Q31.1094 20.4531 19.1875 8.29688" id="BitstreamVeraSans-Roman-32"/>
      </defs>
      <g transform="translate(524.174625 557.22625)scale(0.12 -0.12)">
       <use xlink:href="#BitstreamVeraSans-Roman-32"/>
       <use x="63.623046875" xlink:href="#BitstreamVeraSans-Roman-30"/>
       <use x="127.24609375" xlink:href="#BitstreamVeraSans-Roman-30"/>
      </g>
     </g>
    </g>
    <g id="xtick_4">
     <g id="line2d_10">
      <defs>
       <path d="
M0 0
L0 -4" id="m1d6c4e73da"/>
      </defs>
      <g>
       <use style="stroke:#000000;stroke-linecap:butt;stroke-width:0.5;" x="725.346" xlink:href="#m1d6c4e73da" y="544.32"/>
      </g>
     </g>
     <g id="line2d_11">
      <defs>
       <path d="
M0 0
L0 4" id="m763cc79d7a"/>
      </defs>
      <g>
       <use style="stroke:#000000;stroke-linecap:butt;stroke-width:0.5;" x="725.346" xlink:href="#m763cc79d7a" y="60.48"/>
      </g>
     </g>
     <g id="text_4">
      <!-- 300 -->
      <defs>
       <path d="
M40.5781 39.3125
Q47.6562 37.7969 51.625 33
Q55.6094 28.2188 55.6094 21.1875
Q55.6094 10.4062 48.1875 4.48438
Q40.7656 -1.42188 27.0938 -1.42188
Q22.5156 -1.42188 17.6562 -0.515625
Q12.7969 0.390625 7.625 2.20312
L7.625 11.7188
Q11.7188 9.32812 16.5938 8.10938
Q21.4844 6.89062 26.8125 6.89062
Q36.0781 6.89062 40.9375 10.5469
Q45.7969 14.2031 45.7969 21.1875
Q45.7969 27.6406 41.2812 31.2656
Q36.7656 34.9062 28.7188 34.9062
L20.2188 34.9062
L20.2188 43.0156
L29.1094 43.0156
Q36.375 43.0156 40.2344 45.9219
Q44.0938 48.8281 44.0938 54.2969
Q44.0938 59.9062 40.1094 62.9062
Q36.1406 65.9219 28.7188 65.9219
Q24.6562 65.9219 20.0156 65.0312
Q15.375 64.1562 9.8125 62.3125
L9.8125 71.0938
Q15.4375 72.6562 20.3438 73.4375
Q25.25 74.2188 29.5938 74.2188
Q40.8281 74.2188 47.3594 69.1094
Q53.9062 64.0156 53.9062 55.3281
Q53.9062 49.2656 50.4375 45.0938
Q46.9688 40.9219 40.5781 39.3125" id="BitstreamVeraSans-Roman-33"/>
      </defs>
      <g transform="translate(714.7494375 557.22625)scale(0.12 -0.12)">
       <use xlink:href="#BitstreamVeraSans-Roman-33"/>
       <use x="63.623046875" xlink:href="#BitstreamVeraSans-Roman-30"/>
       <use x="127.24609375" xlink:href="#BitstreamVeraSans-Roman-30"/>
      </g>
     </g>
    </g>
    <g id="xtick_5">
     <g id="line2d_12">
      <defs>
       <path d="
M0 0
L0 -4" id="m1d6c4e73da"/>
      </defs>
      <g>
       <use style="stroke:#000000;stroke-linecap:butt;stroke-width:0.5;" x="915.903" xlink:href="#m1d6c4e73da" y="544.32"/>
      </g>
     </g>
     <g id="line2d_13">
      <defs>
       <path d="
M0 0
L0 4" id="m763cc79d7a"/>
      </defs>
      <g>
       <use style="stroke:#000000;stroke-linecap:butt;stroke-width:0.5;" x="915.903" xlink:href="#m763cc79d7a" y="60.48"/>
      </g>
     </g>
     <g id="text_5">
      <!-- 400 -->
      <defs>
       <path d="
M37.7969 64.3125
L12.8906 25.3906
L37.7969 25.3906
z

M35.2031 72.9062
L47.6094 72.9062
L47.6094 25.3906
L58.0156 25.3906
L58.0156 17.1875
L47.6094 17.1875
L47.6094 0
L37.7969 0
L37.7969 17.1875
L4.89062 17.1875
L4.89062 26.7031
z
" id="BitstreamVeraSans-Roman-34"/>
      </defs>
      <g transform="translate(905.142375 557.22625)scale(0.12 -0.12)">
       <use xlink:href="#BitstreamVeraSans-Roman-34"/>
       <use x="63.623046875" xlink:href="#BitstreamVeraSans-Roman-30"/>
       <use x="127.24609375" xlink:href="#BitstreamVeraSans-Roman-30"/>
      </g>
     </g>
    </g>
    <g id="xtick_6">
     <g id="line2d_14">
      <defs>
       <path d="
M0 0
L0 -4" id="m1d6c4e73da"/>
      </defs>
      <g>
       <use style="stroke:#000000;stroke-linecap:butt;stroke-width:0.5;" x="1106.46" xlink:href="#m1d6c4e73da" y="544.32"/>
      </g>
     </g>
     <g id="line2d_15">
      <defs>
       <path d="
M0 0
L0 4" id="m763cc79d7a"/>
      </defs>
      <g>
       <use style="stroke:#000000;stroke-linecap:butt;stroke-width:0.5;" x="1106.46" xlink:href="#m763cc79d7a" y="60.48"/>
      </g>
     </g>
     <g id="text_6">
      <!-- 500 -->
      <defs>
       <path d="
M10.7969 72.9062
L49.5156 72.9062
L49.5156 64.5938
L19.8281 64.5938
L19.8281 46.7344
Q21.9688 47.4688 24.1094 47.8281
Q26.2656 48.1875 28.4219 48.1875
Q40.625 48.1875 47.75 41.5
Q54.8906 34.8125 54.8906 23.3906
Q54.8906 11.625 47.5625 5.09375
Q40.2344 -1.42188 26.9062 -1.42188
Q22.3125 -1.42188 17.5469 -0.640625
Q12.7969 0.140625 7.71875 1.70312
L7.71875 11.625
Q12.1094 9.23438 16.7969 8.0625
Q21.4844 6.89062 26.7031 6.89062
Q35.1562 6.89062 40.0781 11.3281
Q45.0156 15.7656 45.0156 23.3906
Q45.0156 31 40.0781 35.4375
Q35.1562 39.8906 26.7031 39.8906
Q22.75 39.8906 18.8125 39.0156
Q14.8906 38.1406 10.7969 36.2812
z
" id="BitstreamVeraSans-Roman-35"/>
      </defs>
      <g transform="translate(1095.8690625 557.22625)scale(0.12 -0.12)">
       <use xlink:href="#BitstreamVeraSans-Roman-35"/>
       <use x="63.623046875" xlink:href="#BitstreamVeraSans-Roman-30"/>
       <use x="127.24609375" xlink:href="#BitstreamVeraSans-Roman-30"/>
      </g>
     </g>
    </g>
    <g id="text_7">
     <!-- Time -->
     <defs>
      <path d="
M56.2031 29.5938
L56.2031 25.2031
L14.8906 25.2031
Q15.4844 15.9219 20.4844 11.0625
Q25.4844 6.20312 34.4219 6.20312
Q39.5938 6.20312 44.4531 7.46875
Q49.3125 8.73438 54.1094 11.2812
L54.1094 2.78125
Q49.2656 0.734375 44.1875 -0.34375
Q39.1094 -1.42188 33.8906 -1.42188
Q20.7969 -1.42188 13.1562 6.1875
Q5.51562 13.8125 5.51562 26.8125
Q5.51562 40.2344 12.7656 48.1094
Q20.0156 56 32.3281 56
Q43.3594 56 49.7812 48.8906
Q56.2031 41.7969 56.2031 29.5938
M47.2188 32.2344
Q47.125 39.5938 43.0938 43.9844
Q39.0625 48.3906 32.4219 48.3906
Q24.9062 48.3906 20.3906 44.1406
Q15.875 39.8906 15.1875 32.1719
z
" id="BitstreamVeraSans-Roman-65"/>
      <path d="
M9.42188 54.6875
L18.4062 54.6875
L18.4062 0
L9.42188 0
z

M9.42188 75.9844
L18.4062 75.9844
L18.4062 64.5938
L9.42188 64.5938
z
" id="BitstreamVeraSans-Roman-69"/>
      <path d="
M-0.296875 72.9062
L61.375 72.9062
L61.375 64.5938
L35.5 64.5938
L35.5 0
L25.5938 0
L25.5938 64.5938
L-0.296875 64.5938
z
" id="BitstreamVeraSans-Roman-54"/>
      <path d="
M52 44.1875
Q55.375 50.25 60.0625 53.125
Q64.75 56 71.0938 56
Q79.6406 56 84.2812 50.0156
Q88.9219 44.0469 88.9219 33.0156
L88.9219 0
L79.8906 0
L79.8906 32.7188
Q79.8906 40.5781 77.0938 44.375
Q74.3125 48.1875 68.6094 48.1875
Q61.625 48.1875 57.5625 43.5469
Q53.5156 38.9219 53.5156 30.9062
L53.5156 0
L44.4844 0
L44.4844 32.7188
Q44.4844 40.625 41.7031 44.4062
Q38.9219 48.1875 33.1094 48.1875
Q26.2188 48.1875 22.1562 43.5312
Q18.1094 38.875 18.1094 30.9062
L18.1094 0
L9.07812 0
L9.07812 54.6875
L18.1094 54.6875
L18.1094 46.1875
Q21.1875 51.2188 25.4844 53.6094
Q29.7812 56 35.6875 56
Q41.6562 56 45.8281 52.9688
Q50 49.9531 52 44.1875" id="BitstreamVeraSans-Roman-6d"/>
     </defs>
     <g transform="translate(615.6890625 571.515)scale(0.12 -0.12)">
      <use xlink:href="#BitstreamVeraSans-Roman-54"/>
      <use x="57.958984375" xlink:href="#BitstreamVeraSans-Roman-69"/>
      <use x="85.7421875" xlink:href="#BitstreamVeraSans-Roman-6d"/>
      <use x="183.154296875" xlink:href="#BitstreamVeraSans-Roman-65"/>
     </g>
    </g>
   </g>
   <g id="matplotlib.axis_2">
    <g id="ytick_1">
     <g id="line2d_16">
      <defs>
       <path d="
M0 0
L4 0" id="mb2d347af78"/>
      </defs>
      <g>
       <use style="stroke:#000000;stroke-linecap:butt;stroke-width:0.5;" x="153.675" xlink:href="#mb2d347af78" y="544.32"/>
      </g>
     </g>
     <g id="line2d_17">
      <defs>
       <path d="
M0 0
L-4 0" id="m16ceb80ea5"/>
      </defs>
      <g>
       <use style="stroke:#000000;stroke-linecap:butt;stroke-width:0.5;" x="1106.46" xlink:href="#m16ceb80ea5" y="544.32"/>
      </g>
     </g>
     <g id="text_8">
      <!-- 0 -->
      <g transform="translate(143.628125 548.6878125)scale(0.12 -0.12)">
       <use xlink:href="#BitstreamVeraSans-Roman-30"/>
      </g>
     </g>
    </g>
    <g id="ytick_2">
     <g id="line2d_18">
      <defs>
       <path d="
M0 0
L4 0" id="mb2d347af78"/>
      </defs>
      <g>
       <use style="stroke:#000000;stroke-linecap:butt;stroke-width:0.5;" x="153.675" xlink:href="#mb2d347af78" y="447.552"/>
      </g>
     </g>
     <g id="line2d_19">
      <defs>
       <path d="
M0 0
L-4 0" id="m16ceb80ea5"/>
      </defs>
      <g>
       <use style="stroke:#000000;stroke-linecap:butt;stroke-width:0.5;" x="1106.46" xlink:href="#m16ceb80ea5" y="447.552"/>
      </g>
     </g>
     <g id="text_9">
      <!-- 5 -->
      <g transform="translate(144.014375 451.8410625)scale(0.12 -0.12)">
       <use xlink:href="#BitstreamVeraSans-Roman-35"/>
      </g>
     </g>
    </g>
    <g id="ytick_3">
     <g id="line2d_20">
      <defs>
       <path d="
M0 0
L4 0" id="mb2d347af78"/>
      </defs>
      <g>
       <use style="stroke:#000000;stroke-linecap:butt;stroke-width:0.5;" x="153.675" xlink:href="#mb2d347af78" y="350.784"/>
      </g>
     </g>
     <g id="line2d_21">
      <defs>
       <path d="
M0 0
L-4 0" id="m16ceb80ea5"/>
      </defs>
      <g>
       <use style="stroke:#000000;stroke-linecap:butt;stroke-width:0.5;" x="1106.46" xlink:href="#m16ceb80ea5" y="350.784"/>
      </g>
     </g>
     <g id="text_10">
      <!-- 10 -->
      <g transform="translate(136.52 355.1518125)scale(0.12 -0.12)">
       <use xlink:href="#BitstreamVeraSans-Roman-31"/>
       <use x="63.623046875" xlink:href="#BitstreamVeraSans-Roman-30"/>
      </g>
     </g>
    </g>
    <g id="ytick_4">
     <g id="line2d_22">
      <defs>
       <path d="
M0 0
L4 0" id="mb2d347af78"/>
      </defs>
      <g>
       <use style="stroke:#000000;stroke-linecap:butt;stroke-width:0.5;" x="153.675" xlink:href="#mb2d347af78" y="254.016"/>
      </g>
     </g>
     <g id="line2d_23">
      <defs>
       <path d="
M0 0
L-4 0" id="m16ceb80ea5"/>
      </defs>
      <g>
       <use style="stroke:#000000;stroke-linecap:butt;stroke-width:0.5;" x="1106.46" xlink:href="#m16ceb80ea5" y="254.016"/>
      </g>
     </g>
     <g id="text_11">
      <!-- 15 -->
      <g transform="translate(136.77125 258.3050625)scale(0.12 -0.12)">
       <use xlink:href="#BitstreamVeraSans-Roman-31"/>
       <use x="63.623046875" xlink:href="#BitstreamVeraSans-Roman-35"/>
      </g>
     </g>
    </g>
    <g id="ytick_5">
     <g id="line2d_24">
      <defs>
       <path d="
M0 0
L4 0" id="mb2d347af78"/>
      </defs>
      <g>
       <use style="stroke:#000000;stroke-linecap:butt;stroke-width:0.5;" x="153.675" xlink:href="#mb2d347af78" y="157.248"/>
      </g>
     </g>
     <g id="line2d_25">
      <defs>
       <path d="
M0 0
L-4 0" id="m16ceb80ea5"/>
      </defs>
      <g>
       <use style="stroke:#000000;stroke-linecap:butt;stroke-width:0.5;" x="1106.46" xlink:href="#m16ceb80ea5" y="157.248"/>
      </g>
     </g>
     <g id="text_12">
      <!-- 20 -->
      <g transform="translate(136.08125 161.6158125)scale(0.12 -0.12)">
       <use xlink:href="#BitstreamVeraSans-Roman-32"/>
       <use x="63.623046875" xlink:href="#BitstreamVeraSans-Roman-30"/>
      </g>
     </g>
    </g>
    <g id="ytick_6">
     <g id="line2d_26">
      <defs>
       <path d="
M0 0
L4 0" id="mb2d347af78"/>
      </defs>
      <g>
       <use style="stroke:#000000;stroke-linecap:butt;stroke-width:0.5;" x="153.675" xlink:href="#mb2d347af78" y="60.48"/>
      </g>
     </g>
     <g id="line2d_27">
      <defs>
       <path d="
M0 0
L-4 0" id="m16ceb80ea5"/>
      </defs>
      <g>
       <use style="stroke:#000000;stroke-linecap:butt;stroke-width:0.5;" x="1106.46" xlink:href="#m16ceb80ea5" y="60.48"/>
      </g>
     </g>
     <g id="text_13">
      <!-- 25 -->
      <g transform="translate(136.3325 64.8478125)scale(0.12 -0.12)">
       <use xlink:href="#BitstreamVeraSans-Roman-32"/>
       <use x="63.623046875" xlink:href="#BitstreamVeraSans-Roman-35"/>
      </g>
     </g>
    </g>
    <g id="text_14">
     <!-- Distance from Origin -->
     <defs>
      <path id="BitstreamVeraSans-Roman-20"/>
      <path d="
M39.4062 66.2188
Q28.6562 66.2188 22.3281 58.2031
Q16.0156 50.2031 16.0156 36.375
Q16.0156 22.6094 22.3281 14.5938
Q28.6562 6.59375 39.4062 6.59375
Q50.1406 6.59375 56.4219 14.5938
Q62.7031 22.6094 62.7031 36.375
Q62.7031 50.2031 56.4219 58.2031
Q50.1406 66.2188 39.4062 66.2188
M39.4062 74.2188
Q54.7344 74.2188 63.9062 63.9375
Q73.0938 53.6562 73.0938 36.375
Q73.0938 19.1406 63.9062 8.85938
Q54.7344 -1.42188 39.4062 -1.42188
Q24.0312 -1.42188 14.8125 8.82812
Q5.60938 19.0938 5.60938 36.375
Q5.60938 53.6562 14.8125 63.9375
Q24.0312 74.2188 39.4062 74.2188" id="BitstreamVeraSans-Roman-4f"/>
      <path d="
M54.8906 33.0156
L54.8906 0
L45.9062 0
L45.9062 32.7188
Q45.9062 40.4844 42.875 44.3281
Q39.8438 48.1875 33.7969 48.1875
Q26.5156 48.1875 22.3125 43.5469
Q18.1094 38.9219 18.1094 30.9062
L18.1094 0
L9.07812 0
L9.07812 54.6875
L18.1094 54.6875
L18.1094 46.1875
Q21.3438 51.125 25.7031 53.5625
Q30.0781 56 35.7969 56
Q45.2188 56 50.0469 50.1719
Q54.8906 44.3438 54.8906 33.0156" id="BitstreamVeraSans-Roman-6e"/>
      <path d="
M41.1094 46.2969
Q39.5938 47.1719 37.8125 47.5781
Q36.0312 48 33.8906 48
Q26.2656 48 22.1875 43.0469
Q18.1094 38.0938 18.1094 28.8125
L18.1094 0
L9.07812 0
L9.07812 54.6875
L18.1094 54.6875
L18.1094 46.1875
Q20.9531 51.1719 25.4844 53.5781
Q30.0312 56 36.5312 56
Q37.4531 56 38.5781 55.875
Q39.7031 55.7656 41.0625 55.5156
z
" id="BitstreamVeraSans-Roman-72"/>
      <path d="
M30.6094 48.3906
Q23.3906 48.3906 19.1875 42.75
Q14.9844 37.1094 14.9844 27.2969
Q14.9844 17.4844 19.1562 11.8438
Q23.3438 6.20312 30.6094 6.20312
Q37.7969 6.20312 41.9844 11.8594
Q46.1875 17.5312 46.1875 27.2969
Q46.1875 37.0156 41.9844 42.7031
Q37.7969 48.3906 30.6094 48.3906
M30.6094 56
Q42.3281 56 49.0156 48.375
Q55.7188 40.7656 55.7188 27.2969
Q55.7188 13.875 49.0156 6.21875
Q42.3281 -1.42188 30.6094 -1.42188
Q18.8438 -1.42188 12.1719 6.21875
Q5.51562 13.875 5.51562 27.2969
Q5.51562 40.7656 12.1719 48.375
Q18.8438 56 30.6094 56" id="BitstreamVeraSans-Roman-6f"/>
      <path d="
M19.6719 64.7969
L19.6719 8.10938
L31.5938 8.10938
Q46.6875 8.10938 53.6875 14.9375
Q60.6875 21.7812 60.6875 36.5312
Q60.6875 51.1719 53.6875 57.9844
Q46.6875 64.7969 31.5938 64.7969
z

M9.8125 72.9062
L30.0781 72.9062
Q51.2656 72.9062 61.1719 64.0938
Q71.0938 55.2812 71.0938 36.5312
Q71.0938 17.6719 61.125 8.82812
Q51.1719 0 30.0781 0
L9.8125 0
z
" id="BitstreamVeraSans-Roman-44"/>
      <path d="
M45.4062 27.9844
Q45.4062 37.75 41.375 43.1094
Q37.3594 48.4844 30.0781 48.4844
Q22.8594 48.4844 18.8281 43.1094
Q14.7969 37.75 14.7969 27.9844
Q14.7969 18.2656 18.8281 12.8906
Q22.8594 7.51562 30.0781 7.51562
Q37.3594 7.51562 41.375 12.8906
Q45.4062 18.2656 45.4062 27.9844
M54.3906 6.78125
Q54.3906 -7.17188 48.1875 -13.9844
Q42 -20.7969 29.2031 -20.7969
Q24.4688 -20.7969 20.2656 -20.0938
Q16.0625 -19.3906 12.1094 -17.9219
L12.1094 -9.1875
Q16.0625 -11.3281 19.9219 -12.3438
Q23.7812 -13.375 27.7812 -13.375
Q36.625 -13.375 41.0156 -8.76562
Q45.4062 -4.15625 45.4062 5.17188
L45.4062 9.625
Q42.625 4.78125 38.2812 2.39062
Q33.9375 0 27.875 0
Q17.8281 0 11.6719 7.65625
Q5.51562 15.3281 5.51562 27.9844
Q5.51562 40.6719 11.6719 48.3281
Q17.8281 56 27.875 56
Q33.9375 56 38.2812 53.6094
Q42.625 51.2188 45.4062 46.3906
L45.4062 54.6875
L54.3906 54.6875
z
" id="BitstreamVeraSans-Roman-67"/>
      <path d="
M18.3125 70.2188
L18.3125 54.6875
L36.8125 54.6875
L36.8125 47.7031
L18.3125 47.7031
L18.3125 18.0156
Q18.3125 11.3281 20.1406 9.42188
Q21.9688 7.51562 27.5938 7.51562
L36.8125 7.51562
L36.8125 0
L27.5938 0
Q17.1875 0 13.2344 3.875
Q9.28125 7.76562 9.28125 18.0156
L9.28125 47.7031
L2.6875 47.7031
L2.6875 54.6875
L9.28125 54.6875
L9.28125 70.2188
z
" id="BitstreamVeraSans-Roman-74"/>
      <path d="
M37.1094 75.9844
L37.1094 68.5
L28.5156 68.5
Q23.6875 68.5 21.7969 66.5469
Q19.9219 64.5938 19.9219 59.5156
L19.9219 54.6875
L34.7188 54.6875
L34.7188 47.7031
L19.9219 47.7031
L19.9219 0
L10.8906 0
L10.8906 47.7031
L2.29688 47.7031
L2.29688 54.6875
L10.8906 54.6875
L10.8906 58.5
Q10.8906 67.625 15.1406 71.7969
Q19.3906 75.9844 28.6094 75.9844
z
" id="BitstreamVeraSans-Roman-66"/>
      <path d="
M34.2812 27.4844
Q23.3906 27.4844 19.1875 25
Q14.9844 22.5156 14.9844 16.5
Q14.9844 11.7188 18.1406 8.90625
Q21.2969 6.10938 26.7031 6.10938
Q34.1875 6.10938 38.7031 11.4062
Q43.2188 16.7031 43.2188 25.4844
L43.2188 27.4844
z

M52.2031 31.2031
L52.2031 0
L43.2188 0
L43.2188 8.29688
Q40.1406 3.32812 35.5469 0.953125
Q30.9531 -1.42188 24.3125 -1.42188
Q15.9219 -1.42188 10.9531 3.29688
Q6 8.01562 6 15.9219
Q6 25.1406 12.1719 29.8281
Q18.3594 34.5156 30.6094 34.5156
L43.2188 34.5156
L43.2188 35.4062
Q43.2188 41.6094 39.1406 45
Q35.0625 48.3906 27.6875 48.3906
Q23 48.3906 18.5469 47.2656
Q14.1094 46.1406 10.0156 43.8906
L10.0156 52.2031
Q14.9375 54.1094 19.5781 55.0469
Q24.2188 56 28.6094 56
Q40.4844 56 46.3438 49.8438
Q52.2031 43.7031 52.2031 31.2031" id="BitstreamVeraSans-Roman-61"/>
      <path d="
M44.2812 53.0781
L44.2812 44.5781
Q40.4844 46.5312 36.375 47.5
Q32.2812 48.4844 27.875 48.4844
Q21.1875 48.4844 17.8438 46.4375
Q14.5 44.3906 14.5 40.2812
Q14.5 37.1562 16.8906 35.375
Q19.2812 33.5938 26.5156 31.9844
L29.5938 31.2969
Q39.1562 29.25 43.1875 25.5156
Q47.2188 21.7812 47.2188 15.0938
Q47.2188 7.46875 41.1875 3.01562
Q35.1562 -1.42188 24.6094 -1.42188
Q20.2188 -1.42188 15.4531 -0.5625
Q10.6875 0.296875 5.42188 2
L5.42188 11.2812
Q10.4062 8.6875 15.2344 7.39062
Q20.0625 6.10938 24.8125 6.10938
Q31.1562 6.10938 34.5625 8.28125
Q37.9844 10.4531 37.9844 14.4062
Q37.9844 18.0625 35.5156 20.0156
Q33.0625 21.9688 24.7031 23.7812
L21.5781 24.5156
Q13.2344 26.2656 9.51562 29.9062
Q5.8125 33.5469 5.8125 39.8906
Q5.8125 47.6094 11.2812 51.7969
Q16.75 56 26.8125 56
Q31.7812 56 36.1719 55.2656
Q40.5781 54.5469 44.2812 53.0781" id="BitstreamVeraSans-Roman-73"/>
      <path d="
M48.7812 52.5938
L48.7812 44.1875
Q44.9688 46.2969 41.1406 47.3438
Q37.3125 48.3906 33.4062 48.3906
Q24.6562 48.3906 19.8125 42.8438
Q14.9844 37.3125 14.9844 27.2969
Q14.9844 17.2812 19.8125 11.7344
Q24.6562 6.20312 33.4062 6.20312
Q37.3125 6.20312 41.1406 7.25
Q44.9688 8.29688 48.7812 10.4062
L48.7812 2.09375
Q45.0156 0.34375 40.9844 -0.53125
Q36.9688 -1.42188 32.4219 -1.42188
Q20.0625 -1.42188 12.7812 6.34375
Q5.51562 14.1094 5.51562 27.2969
Q5.51562 40.6719 12.8594 48.3281
Q20.2188 56 33.0156 56
Q37.1562 56 41.1094 55.1406
Q45.0625 54.2969 48.7812 52.5938" id="BitstreamVeraSans-Roman-63"/>
     </defs>
     <g transform="translate(131.08125 361.5384375)rotate(-90.0)scale(0.12 -0.12)">
      <use xlink:href="#BitstreamVeraSans-Roman-44"/>
      <use x="77.001953125" xlink:href="#BitstreamVeraSans-Roman-69"/>
      <use x="104.78515625" xlink:href="#BitstreamVeraSans-Roman-73"/>
      <use x="156.884765625" xlink:href="#BitstreamVeraSans-Roman-74"/>
      <use x="196.09375" xlink:href="#BitstreamVeraSans-Roman-61"/>
      <use x="257.373046875" xlink:href="#BitstreamVeraSans-Roman-6e"/>
      <use x="320.751953125" xlink:href="#BitstreamVeraSans-Roman-63"/>
      <use x="375.732421875" xlink:href="#BitstreamVeraSans-Roman-65"/>
      <use x="437.255859375" xlink:href="#BitstreamVeraSans-Roman-20"/>
      <use x="469.04296875" xlink:href="#BitstreamVeraSans-Roman-66"/>
      <use x="504.248046875" xlink:href="#BitstreamVeraSans-Roman-72"/>
      <use x="543.111328125" xlink:href="#BitstreamVeraSans-Roman-6f"/>
      <use x="604.29296875" xlink:href="#BitstreamVeraSans-Roman-6d"/>
      <use x="701.705078125" xlink:href="#BitstreamVeraSans-Roman-20"/>
      <use x="733.4921875" xlink:href="#BitstreamVeraSans-Roman-4f"/>
      <use x="812.203125" xlink:href="#BitstreamVeraSans-Roman-72"/>
      <use x="853.31640625" xlink:href="#BitstreamVeraSans-Roman-69"/>
      <use x="881.099609375" xlink:href="#BitstreamVeraSans-Roman-67"/>
      <use x="944.576171875" xlink:href="#BitstreamVeraSans-Roman-69"/>
      <use x="972.359375" xlink:href="#BitstreamVeraSans-Roman-6e"/>
     </g>
    </g>
   </g>
   <g id="patch_3">
    <path d="
M153.675 60.48
L1106.46 60.48" style="fill:none;stroke:#000000;"/>
   </g>
   <g id="patch_4">
    <path d="
M1106.46 544.32
L1106.46 60.48" style="fill:none;stroke:#000000;"/>
   </g>
   <g id="patch_5">
    <path d="
M153.675 544.32
L1106.46 544.32" style="fill:none;stroke:#000000;"/>
   </g>
   <g id="patch_6">
    <path d="
M153.675 544.32
L153.675 60.48" style="fill:none;stroke:#000000;"/>
   </g>
   <g id="text_15">
    <!-- EWDrunk in 3 Trials -->
    <defs>
     <path d="
M9.8125 72.9062
L55.9062 72.9062
L55.9062 64.5938
L19.6719 64.5938
L19.6719 43.0156
L54.3906 43.0156
L54.3906 34.7188
L19.6719 34.7188
L19.6719 8.29688
L56.7812 8.29688
L56.7812 0
L9.8125 0
z
" id="BitstreamVeraSans-Roman-45"/>
     <path d="
M8.5 21.5781
L8.5 54.6875
L17.4844 54.6875
L17.4844 21.9219
Q17.4844 14.1562 20.5 10.2656
Q23.5312 6.39062 29.5938 6.39062
Q36.8594 6.39062 41.0781 11.0312
Q45.3125 15.6719 45.3125 23.6875
L45.3125 54.6875
L54.2969 54.6875
L54.2969 0
L45.3125 0
L45.3125 8.40625
Q42.0469 3.42188 37.7188 1
Q33.4062 -1.42188 27.6875 -1.42188
Q18.2656 -1.42188 13.375 4.4375
Q8.5 10.2969 8.5 21.5781" id="BitstreamVeraSans-Roman-75"/>
     <path d="
M9.42188 75.9844
L18.4062 75.9844
L18.4062 0
L9.42188 0
z
" id="BitstreamVeraSans-Roman-6c"/>
     <path d="
M9.07812 75.9844
L18.1094 75.9844
L18.1094 31.1094
L44.9219 54.6875
L56.3906 54.6875
L27.3906 29.1094
L57.625 0
L45.9062 0
L18.1094 26.7031
L18.1094 0
L9.07812 0
z
" id="BitstreamVeraSans-Roman-6b"/>
     <path d="
M3.32812 72.9062
L13.2812 72.9062
L28.6094 11.2812
L43.8906 72.9062
L54.9844 72.9062
L70.3125 11.2812
L85.5938 72.9062
L95.6094 72.9062
L77.2969 0
L64.8906 0
L49.5156 63.2812
L33.9844 0
L21.5781 0
z
" id="BitstreamVeraSans-Roman-57"/>
    </defs>
    <g transform="translate(560.482875 55.48)scale(0.144 -0.144)">
     <use xlink:href="#BitstreamVeraSans-Roman-45"/>
     <use x="63.18359375" xlink:href="#BitstreamVeraSans-Roman-57"/>
     <use x="162.060546875" xlink:href="#BitstreamVeraSans-Roman-44"/>
     <use x="239.0625" xlink:href="#BitstreamVeraSans-Roman-72"/>
     <use x="280.17578125" xlink:href="#BitstreamVeraSans-Roman-75"/>
     <use x="343.5546875" xlink:href="#BitstreamVeraSans-Roman-6e"/>
     <use x="406.93359375" xlink:href="#BitstreamVeraSans-Roman-6b"/>
     <use x="464.84375" xlink:href="#BitstreamVeraSans-Roman-20"/>
     <use x="496.630859375" xlink:href="#BitstreamVeraSans-Roman-69"/>
     <use x="524.4140625" xlink:href="#BitstreamVeraSans-Roman-6e"/>
     <use x="587.79296875" xlink:href="#BitstreamVeraSans-Roman-20"/>
     <use x="619.580078125" xlink:href="#BitstreamVeraSans-Roman-33"/>
     <use x="683.203125" xlink:href="#BitstreamVeraSans-Roman-20"/>
     <use x="714.990234375" xlink:href="#BitstreamVeraSans-Roman-54"/>
     <use x="761.32421875" xlink:href="#BitstreamVeraSans-Roman-72"/>
     <use x="802.4375" xlink:href="#BitstreamVeraSans-Roman-69"/>
     <use x="830.220703125" xlink:href="#BitstreamVeraSans-Roman-61"/>
     <use x="891.5" xlink:href="#BitstreamVeraSans-Roman-6c"/>
     <use x="919.283203125" xlink:href="#BitstreamVeraSans-Roman-73"/>
    </g>
   </g>
  </g>
 </g>
 <defs>
  <clipPath id="p308ec8ec34">
   <rect height="483.84" width="952.785" x="153.675" y="60.48"/>
  </clipPath>
 </defs>
</svg>
