<?xml version="1.0" encoding="utf-8" standalone="no"?>
<!DOCTYPE svg PUBLIC "-//W3C//DTD SVG 1.1//EN"
  "http://www.w3.org/Graphics/SVG/1.1/DTD/svg11.dtd">
<!-- Created with matplotlib (http://matplotlib.sourceforge.net/) -->
<svg height="442pt" version="1.1" viewBox="0 0 586 442" width="586pt" xmlns="http://www.w3.org/2000/svg" xmlns:xlink="http://www.w3.org/1999/xlink">
 <defs>
  <style type="text/css">
*{stroke-linecap:square;stroke-linejoin:round;}
  </style>
 </defs>
 <g id="figure_1">
  <g id="patch_1">
   <path d="
M0 442.8
L586.8 442.8
L586.8 0
L0 0
z
" style="fill:#ffffff;"/>
  </g>
  <g id="axes_1">
   <g id="patch_2">
    <path d="
M73.35 398.52
L528.12 398.52
L528.12 44.28
L73.35 44.28
z
" style="fill:#ffffff;"/>
   </g>
   <g id="line2d_1">
    <path clip-path="url(#p9061672a36)" d="
M73.35 398.52
L74.2595 380.808
L75.1691 380.985
L76.0786 371.952
L76.9882 371.421
L77.8977 364.867
L78.8072 363.627
L79.7168 357.074
L80.6263 357.96
L81.5359 355.834
L82.4454 355.303
L83.3549 350.343
L84.2645 350.698
L85.174 346.624
L86.0836 344.321
L86.9931 342.373
L87.9026 342.019
L88.8122 338.299
L89.7217 337.236
L90.6313 335.288
L91.5408 334.934
L93.3599 332.631
L94.2694 327.672
L95.179 326.786
L96.0885 323.421
L96.998 325.015
L97.9076 323.244
L98.8171 324.13
L99.7267 322.004
L100.636 318.639
L101.546 316.513
L102.455 315.982
L103.365 315.274
L104.274 314.211
L105.184 310.846
L106.093 311.2
L107.003 309.074
L107.913 309.252
L108.822 306.24
L109.732 305.709
L110.641 302.698
L111.551 303.052
L112.46 301.99
L113.37 303.584
L114.279 300.041
L115.189 300.927
L116.098 297.739
L117.008 298.979
L117.917 297.207
L118.827 298.801
L119.737 297.384
L120.646 297.03
L121.556 292.602
L122.465 294.019
L123.375 290.123
L124.284 292.602
L125.194 289.414
L126.103 291.185
L127.013 289.414
L127.922 288.528
L128.832 288.706
L129.741 285.163
L130.651 284.632
L132.47 281.089
L133.38 280.204
L134.289 277.37
L135.199 279.318
L136.108 275.599
L137.018 276.13
L137.927 271.879
L138.837 271.525
L139.746 270.462
L140.656 271.348
L141.566 269.222
L142.475 269.222
L143.385 266.034
L144.294 266.211
L145.204 264.617
L146.113 263.732
L147.023 261.96
L147.932 263.909
L148.842 260.898
L149.751 262.492
L150.661 260.189
L151.57 259.835
L152.48 257.887
L153.39 257.355
L154.299 257.532
L155.209 257.532
L157.028 254.521
L157.937 253.99
L158.847 253.282
L159.756 252.75
L160.666 251.51
L161.575 246.905
L162.485 245.311
L163.394 243.009
L164.304 243.186
L165.214 241.769
L166.123 239.643
L167.033 238.049
L167.942 237.164
L168.852 236.987
L169.761 238.226
L170.671 237.695
L171.58 237.872
L172.49 235.392
L173.399 235.392
L174.309 234.507
L175.218 235.215
L176.128 234.684
L177.038 233.621
L177.947 233.09
L178.857 234.507
L179.766 232.381
L180.676 232.736
L181.585 233.267
L182.495 233.09
L183.404 231.319
L184.314 233.267
L185.223 231.496
L186.133 230.61
L187.043 227.953
L187.952 229.193
L188.862 227.068
L189.771 227.776
L190.681 226.891
L191.59 227.776
L192.5 226.891
L193.409 226.359
L194.319 226.891
L195.228 226.182
L196.138 226.536
L197.047 225.474
L197.957 223.348
L198.867 223.171
L199.776 219.629
L200.686 217.503
L201.595 217.149
L202.505 217.503
L203.414 216.086
L204.324 218.035
L205.233 218.743
L206.143 218.566
L207.052 219.983
L207.962 220.337
L208.871 218.92
L209.781 219.275
L210.691 216.795
L211.6 218.566
L212.51 216.972
L213.419 215.732
L214.329 216.086
L215.238 214.847
L216.148 213.075
L217.057 214.138
L217.967 213.607
L218.876 213.252
L219.786 211.658
L220.695 211.658
L221.605 210.064
L222.515 209.887
L225.243 204.396
L226.153 204.574
L227.972 199.614
L228.881 198.552
L229.791 200.854
L230.7 197.843
L231.61 196.78
L232.52 195.54
L233.429 194.832
L234.339 191.644
L235.248 189.873
L236.158 189.873
L237.977 185.445
L238.886 186.684
L239.796 185.268
L240.705 185.976
L241.615 184.382
L242.524 186.153
L243.434 185.622
L244.344 186.862
L245.253 186.507
L246.163 185.799
L247.072 183.496
L247.982 183.319
L248.891 184.205
L249.801 182.611
L250.71 182.788
L251.62 184.205
L252.529 183.496
L253.439 182.611
L254.348 180.131
L255.258 180.308
L256.168 180.662
L257.077 180.308
L257.987 179.423
L258.896 182.079
L259.806 181.017
L260.715 181.017
L261.625 180.131
L262.534 178.714
L263.444 178.891
L264.353 179.423
L265.263 177.12
L266.172 176.943
L267.082 175.526
L267.992 176.766
L268.901 175.526
L269.811 175.703
L270.72 174.817
L271.63 174.109
L272.539 171.098
L273.449 172.161
L274.358 171.984
L275.268 172.338
L276.177 170.389
L277.087 170.389
L277.997 167.91
L278.906 168.441
L279.816 169.681
L280.725 169.681
L281.635 168.972
L282.544 168.441
L283.454 168.087
L284.363 168.795
L285.273 165.607
L286.182 164.722
L287.092 164.013
L288.001 164.899
L288.911 161.711
L289.821 159.054
L290.73 159.231
L291.64 158.522
L292.549 156.928
L293.459 156.574
L294.368 158.168
L295.278 160.116
L296.187 158.345
L297.097 158.877
L298.006 157.991
L298.916 158.345
L299.825 156.574
L300.735 157.637
L301.645 156.22
L302.554 158.7
L303.464 157.46
L304.373 159.231
L305.283 157.991
L306.192 159.408
L307.102 156.928
L308.011 157.46
L308.921 157.283
L309.83 154.272
L310.74 153.032
L311.649 152.323
L312.559 150.552
L313.469 152.677
L314.378 151.438
L315.288 151.792
L316.197 151.969
L318.016 149.312
L318.926 147.895
L319.835 145.593
L320.745 146.301
L321.654 145.416
L322.564 146.832
L324.383 142.759
L325.293 142.05
L326.202 144.884
L327.112 145.061
L328.021 146.655
L328.931 147.01
L329.84 146.655
L330.75 144.707
L331.659 143.999
L332.569 142.759
L333.478 143.999
L334.388 144.176
L335.298 144.176
L336.207 143.29
L337.117 142.05
L338.936 141.696
L339.845 141.696
L340.755 140.633
L341.664 140.988
L342.574 143.113
L343.483 141.873
L344.393 142.404
L345.302 142.05
L346.212 142.05
L347.122 141.873
L348.031 139.925
L349.85 140.988
L350.76 140.102
L351.669 137.976
L352.579 136.205
L353.488 137.268
L354.398 137.445
L355.307 135.143
L356.217 135.851
L357.126 135.674
L359.855 133.548
L360.765 133.548
L361.674 133.371
L362.584 134.257
L363.493 134.257
L364.403 133.726
L365.312 134.08
L366.222 133.194
L367.131 132.486
L368.041 131.246
L368.951 130.715
L369.86 131.6
L370.77 130.537
L371.679 130.006
L372.589 130.006
L373.498 131.777
L374.408 130.715
L375.317 129.12
L376.227 129.12
L377.136 128.058
L378.046 126.641
L379.865 124.515
L380.775 124.515
L381.684 124.692
L382.594 125.578
L383.503 124.161
L384.413 124.87
L385.322 124.161
L386.232 124.161
L387.141 125.578
L388.051 124.161
L388.96 123.984
L389.87 124.87
L390.779 122.213
L391.689 122.921
L392.599 124.692
L393.508 121.504
L394.418 120.619
L395.327 119.91
L396.237 119.733
L397.146 120.619
L398.056 118.67
L398.965 119.202
L399.875 118.316
L400.784 120.973
L401.694 121.15
L402.603 119.91
L404.423 116.545
L405.332 116.014
L406.242 114.597
L407.151 114.951
L408.061 113.711
L408.97 114.065
L409.88 113.534
L410.789 111.763
L411.699 111.408
L412.608 108.397
L413.518 106.803
L414.428 103.438
L415.337 101.844
L416.247 101.844
L417.156 101.667
L418.066 100.073
L418.975 99.7186
L419.885 97.416
L420.794 99.3643
L422.613 101.49
L423.523 99.3643
L424.432 100.781
L425.342 99.0101
L426.252 98.833
L427.161 96.7075
L428.071 97.5931
L428.98 99.3643
L429.89 98.3016
L430.799 97.5931
L431.709 97.0618
L432.618 96.1762
L433.528 95.8219
L434.437 95.8219
L435.347 94.5821
L437.166 93.8736
L438.076 92.1024
L438.985 91.3939
L439.895 93.3422
L440.804 93.1651
L441.714 91.571
L442.623 90.6854
L443.533 89.4456
L444.442 91.571
L445.352 91.0397
L446.261 91.9253
L447.171 91.9253
L448.08 90.8626
L448.99 88.9142
L450.809 87.4973
L451.719 88.0286
L452.628 85.7261
L453.538 86.4346
L454.447 87.8515
L455.357 87.3202
L456.266 86.6117
L457.176 87.143
L458.085 85.3718
L458.995 84.8405
L459.905 85.549
L460.814 84.3091
L461.724 80.9438
L462.633 80.0582
L463.543 80.5896
L464.452 77.0472
L465.362 76.8701
L467.181 78.9955
L468.09 78.1099
L469 75.8074
L469.909 76.8701
L470.819 78.1099
L471.729 78.4642
L472.638 78.6413
L473.548 77.2243
L474.457 76.3387
L475.367 74.3904
L476.276 74.7446
L477.186 75.6302
L478.095 74.5675
L480.824 72.4421
L481.733 73.1506
L482.643 72.9734
L483.553 72.0878
L484.462 75.276
L485.372 74.3904
L486.281 75.0989
L488.1 73.6819
L489.01 72.4421
L489.919 73.5048
L490.829 72.7963
L491.738 71.3794
L492.648 71.2022
L493.557 69.9624
L494.467 68.3683
L495.377 69.431
L496.286 69.6082
L497.196 70.4938
L498.105 70.848
L499.015 69.6082
L499.924 71.0251
L500.834 67.837
L501.743 67.837
L502.653 68.1912
L503.562 70.3166
L504.472 70.4938
L505.382 71.3794
L506.291 73.6819
L507.201 72.6192
L508.11 72.7963
L509.929 74.9218
L510.839 74.2133
L511.748 74.2133
L512.658 73.5048
L513.567 71.5565
L514.477 70.1395
L515.386 70.4938
L516.296 69.9624
L517.206 68.3683
L518.115 69.0768
L519.025 68.0141
L519.934 65.7115
L520.844 64.8259
L521.753 65.003
L522.663 65.8886
L523.572 63.409
L524.482 62.1691
L525.391 64.4717
L526.301 64.2946
L527.21 65.5344
L528.12 63.7632
L528.12 63.7632" style="fill:none;stroke:#0000ff;"/>
   </g>
   <g id="matplotlib.axis_1">
    <g id="xtick_1">
     <g id="line2d_2">
      <defs>
       <path d="
M0 0
L0 -4" id="m39a0496978"/>
      </defs>
      <g>
       <use style="stroke:#000000;stroke-linecap:butt;stroke-width:0.5;" x="73.35" xlink:href="#m39a0496978" y="398.52"/>
      </g>
     </g>
     <g id="line2d_3">
      <defs>
       <path d="
M0 0
L0 4" id="m76eaaab397"/>
      </defs>
      <g>
       <use style="stroke:#000000;stroke-linecap:butt;stroke-width:0.5;" x="73.35" xlink:href="#m76eaaab397" y="44.28"/>
      </g>
     </g>
     <g id="text_1">
      <!-- 0 -->
      <defs>
       <path d="
M31.7812 66.4062
Q24.1719 66.4062 20.3281 58.9062
Q16.5 51.4219 16.5 36.375
Q16.5 21.3906 20.3281 13.8906
Q24.1719 6.39062 31.7812 6.39062
Q39.4531 6.39062 43.2812 13.8906
Q47.125 21.3906 47.125 36.375
Q47.125 51.4219 43.2812 58.9062
Q39.4531 66.4062 31.7812 66.4062
M31.7812 74.2188
Q44.0469 74.2188 50.5156 64.5156
Q56.9844 54.8281 56.9844 36.375
Q56.9844 17.9688 50.5156 8.26562
Q44.0469 -1.42188 31.7812 -1.42188
Q19.5312 -1.42188 13.0625 8.26562
Q6.59375 17.9688 6.59375 36.375
Q6.59375 54.8281 13.0625 64.5156
Q19.5312 74.2188 31.7812 74.2188" id="BitstreamVeraSans-Roman-30"/>
      </defs>
      <g transform="translate(70.3265625 411.42625)scale(0.12 -0.12)">
       <use xlink:href="#BitstreamVeraSans-Roman-30"/>
      </g>
     </g>
    </g>
    <g id="xtick_2">
     <g id="line2d_4">
      <defs>
       <path d="
M0 0
L0 -4" id="m39a0496978"/>
      </defs>
      <g>
       <use style="stroke:#000000;stroke-linecap:butt;stroke-width:0.5;" x="164.304" xlink:href="#m39a0496978" y="398.52"/>
      </g>
     </g>
     <g id="line2d_5">
      <defs>
       <path d="
M0 0
L0 4" id="m76eaaab397"/>
      </defs>
      <g>
       <use style="stroke:#000000;stroke-linecap:butt;stroke-width:0.5;" x="164.304" xlink:href="#m76eaaab397" y="44.28"/>
      </g>
     </g>
     <g id="text_2">
      <!-- 100 -->
      <defs>
       <path d="
M12.4062 8.29688
L28.5156 8.29688
L28.5156 63.9219
L10.9844 60.4062
L10.9844 69.3906
L28.4219 72.9062
L38.2812 72.9062
L38.2812 8.29688
L54.3906 8.29688
L54.3906 0
L12.4062 0
z
" id="BitstreamVeraSans-Roman-31"/>
      </defs>
      <g transform="translate(153.909 411.42625)scale(0.12 -0.12)">
       <use xlink:href="#BitstreamVeraSans-Roman-31"/>
       <use x="63.623046875" xlink:href="#BitstreamVeraSans-Roman-30"/>
       <use x="127.24609375" xlink:href="#BitstreamVeraSans-Roman-30"/>
      </g>
     </g>
    </g>
    <g id="xtick_3">
     <g id="line2d_6">
      <defs>
       <path d="
M0 0
L0 -4" id="m39a0496978"/>
      </defs>
      <g>
       <use style="stroke:#000000;stroke-linecap:butt;stroke-width:0.5;" x="255.258" xlink:href="#m39a0496978" y="398.52"/>
      </g>
     </g>
     <g id="line2d_7">
      <defs>
       <path d="
M0 0
L0 4" id="m76eaaab397"/>
      </defs>
      <g>
       <use style="stroke:#000000;stroke-linecap:butt;stroke-width:0.5;" x="255.258" xlink:href="#m76eaaab397" y="44.28"/>
      </g>
     </g>
     <g id="text_3">
      <!-- 200 -->
      <defs>
       <path d="
M19.1875 8.29688
L53.6094 8.29688
L53.6094 0
L7.32812 0
L7.32812 8.29688
Q12.9375 14.1094 22.625 23.8906
Q32.3281 33.6875 34.8125 36.5312
Q39.5469 41.8438 41.4219 45.5312
Q43.3125 49.2188 43.3125 52.7812
Q43.3125 58.5938 39.2344 62.25
Q35.1562 65.9219 28.6094 65.9219
Q23.9688 65.9219 18.8125 64.3125
Q13.6719 62.7031 7.8125 59.4219
L7.8125 69.3906
Q13.7656 71.7812 18.9375 73
Q24.125 74.2188 28.4219 74.2188
Q39.75 74.2188 46.4844 68.5469
Q53.2188 62.8906 53.2188 53.4219
Q53.2188 48.9219 51.5312 44.8906
Q49.8594 40.875 45.4062 35.4062
Q44.1875 33.9844 37.6406 27.2188
Q31.1094 20.4531 19.1875 8.29688" id="BitstreamVeraSans-Roman-32"/>
      </defs>
      <g transform="translate(244.643625 411.42625)scale(0.12 -0.12)">
       <use xlink:href="#BitstreamVeraSans-Roman-32"/>
       <use x="63.623046875" xlink:href="#BitstreamVeraSans-Roman-30"/>
       <use x="127.24609375" xlink:href="#BitstreamVeraSans-Roman-30"/>
      </g>
     </g>
    </g>
    <g id="xtick_4">
     <g id="line2d_8">
      <defs>
       <path d="
M0 0
L0 -4" id="m39a0496978"/>
      </defs>
      <g>
       <use style="stroke:#000000;stroke-linecap:butt;stroke-width:0.5;" x="346.212" xlink:href="#m39a0496978" y="398.52"/>
      </g>
     </g>
     <g id="line2d_9">
      <defs>
       <path d="
M0 0
L0 4" id="m76eaaab397"/>
      </defs>
      <g>
       <use style="stroke:#000000;stroke-linecap:butt;stroke-width:0.5;" x="346.212" xlink:href="#m76eaaab397" y="44.28"/>
      </g>
     </g>
     <g id="text_4">
      <!-- 300 -->
      <defs>
       <path d="
M40.5781 39.3125
Q47.6562 37.7969 51.625 33
Q55.6094 28.2188 55.6094 21.1875
Q55.6094 10.4062 48.1875 4.48438
Q40.7656 -1.42188 27.0938 -1.42188
Q22.5156 -1.42188 17.6562 -0.515625
Q12.7969 0.390625 7.625 2.20312
L7.625 11.7188
Q11.7188 9.32812 16.5938 8.10938
Q21.4844 6.89062 26.8125 6.89062
Q36.0781 6.89062 40.9375 10.5469
Q45.7969 14.2031 45.7969 21.1875
Q45.7969 27.6406 41.2812 31.2656
Q36.7656 34.9062 28.7188 34.9062
L20.2188 34.9062
L20.2188 43.0156
L29.1094 43.0156
Q36.375 43.0156 40.2344 45.9219
Q44.0938 48.8281 44.0938 54.2969
Q44.0938 59.9062 40.1094 62.9062
Q36.1406 65.9219 28.7188 65.9219
Q24.6562 65.9219 20.0156 65.0312
Q15.375 64.1562 9.8125 62.3125
L9.8125 71.0938
Q15.4375 72.6562 20.3438 73.4375
Q25.25 74.2188 29.5938 74.2188
Q40.8281 74.2188 47.3594 69.1094
Q53.9062 64.0156 53.9062 55.3281
Q53.9062 49.2656 50.4375 45.0938
Q46.9688 40.9219 40.5781 39.3125" id="BitstreamVeraSans-Roman-33"/>
      </defs>
      <g transform="translate(335.6154375 411.42625)scale(0.12 -0.12)">
       <use xlink:href="#BitstreamVeraSans-Roman-33"/>
       <use x="63.623046875" xlink:href="#BitstreamVeraSans-Roman-30"/>
       <use x="127.24609375" xlink:href="#BitstreamVeraSans-Roman-30"/>
      </g>
     </g>
    </g>
    <g id="xtick_5">
     <g id="line2d_10">
      <defs>
       <path d="
M0 0
L0 -4" id="m39a0496978"/>
      </defs>
      <g>
       <use style="stroke:#000000;stroke-linecap:butt;stroke-width:0.5;" x="437.166" xlink:href="#m39a0496978" y="398.52"/>
      </g>
     </g>
     <g id="line2d_11">
      <defs>
       <path d="
M0 0
L0 4" id="m76eaaab397"/>
      </defs>
      <g>
       <use style="stroke:#000000;stroke-linecap:butt;stroke-width:0.5;" x="437.166" xlink:href="#m76eaaab397" y="44.28"/>
      </g>
     </g>
     <g id="text_5">
      <!-- 400 -->
      <defs>
       <path d="
M37.7969 64.3125
L12.8906 25.3906
L37.7969 25.3906
z

M35.2031 72.9062
L47.6094 72.9062
L47.6094 25.3906
L58.0156 25.3906
L58.0156 17.1875
L47.6094 17.1875
L47.6094 0
L37.7969 0
L37.7969 17.1875
L4.89062 17.1875
L4.89062 26.7031
z
" id="BitstreamVeraSans-Roman-34"/>
      </defs>
      <g transform="translate(426.405375 411.42625)scale(0.12 -0.12)">
       <use xlink:href="#BitstreamVeraSans-Roman-34"/>
       <use x="63.623046875" xlink:href="#BitstreamVeraSans-Roman-30"/>
       <use x="127.24609375" xlink:href="#BitstreamVeraSans-Roman-30"/>
      </g>
     </g>
    </g>
    <g id="xtick_6">
     <g id="line2d_12">
      <defs>
       <path d="
M0 0
L0 -4" id="m39a0496978"/>
      </defs>
      <g>
       <use style="stroke:#000000;stroke-linecap:butt;stroke-width:0.5;" x="528.12" xlink:href="#m39a0496978" y="398.52"/>
      </g>
     </g>
     <g id="line2d_13">
      <defs>
       <path d="
M0 0
L0 4" id="m76eaaab397"/>
      </defs>
      <g>
       <use style="stroke:#000000;stroke-linecap:butt;stroke-width:0.5;" x="528.12" xlink:href="#m76eaaab397" y="44.28"/>
      </g>
     </g>
     <g id="text_6">
      <!-- 500 -->
      <defs>
       <path d="
M10.7969 72.9062
L49.5156 72.9062
L49.5156 64.5938
L19.8281 64.5938
L19.8281 46.7344
Q21.9688 47.4688 24.1094 47.8281
Q26.2656 48.1875 28.4219 48.1875
Q40.625 48.1875 47.75 41.5
Q54.8906 34.8125 54.8906 23.3906
Q54.8906 11.625 47.5625 5.09375
Q40.2344 -1.42188 26.9062 -1.42188
Q22.3125 -1.42188 17.5469 -0.640625
Q12.7969 0.140625 7.71875 1.70312
L7.71875 11.625
Q12.1094 9.23438 16.7969 8.0625
Q21.4844 6.89062 26.7031 6.89062
Q35.1562 6.89062 40.0781 11.3281
Q45.0156 15.7656 45.0156 23.3906
Q45.0156 31 40.0781 35.4375
Q35.1562 39.8906 26.7031 39.8906
Q22.75 39.8906 18.8125 39.0156
Q14.8906 38.1406 10.7969 36.2812
z
" id="BitstreamVeraSans-Roman-35"/>
      </defs>
      <g transform="translate(517.5290625 411.42625)scale(0.12 -0.12)">
       <use xlink:href="#BitstreamVeraSans-Roman-35"/>
       <use x="63.623046875" xlink:href="#BitstreamVeraSans-Roman-30"/>
       <use x="127.24609375" xlink:href="#BitstreamVeraSans-Roman-30"/>
      </g>
     </g>
    </g>
    <g id="text_7">
     <!-- Time -->
     <defs>
      <path d="
M56.2031 29.5938
L56.2031 25.2031
L14.8906 25.2031
Q15.4844 15.9219 20.4844 11.0625
Q25.4844 6.20312 34.4219 6.20312
Q39.5938 6.20312 44.4531 7.46875
Q49.3125 8.73438 54.1094 11.2812
L54.1094 2.78125
Q49.2656 0.734375 44.1875 -0.34375
Q39.1094 -1.42188 33.8906 -1.42188
Q20.7969 -1.42188 13.1562 6.1875
Q5.51562 13.8125 5.51562 26.8125
Q5.51562 40.2344 12.7656 48.1094
Q20.0156 56 32.3281 56
Q43.3594 56 49.7812 48.8906
Q56.2031 41.7969 56.2031 29.5938
M47.2188 32.2344
Q47.125 39.5938 43.0938 43.9844
Q39.0625 48.3906 32.4219 48.3906
Q24.9062 48.3906 20.3906 44.1406
Q15.875 39.8906 15.1875 32.1719
z
" id="BitstreamVeraSans-Roman-65"/>
      <path d="
M9.42188 54.6875
L18.4062 54.6875
L18.4062 0
L9.42188 0
z

M9.42188 75.9844
L18.4062 75.9844
L18.4062 64.5938
L9.42188 64.5938
z
" id="BitstreamVeraSans-Roman-69"/>
      <path d="
M-0.296875 72.9062
L61.375 72.9062
L61.375 64.5938
L35.5 64.5938
L35.5 0
L25.5938 0
L25.5938 64.5938
L-0.296875 64.5938
z
" id="BitstreamVeraSans-Roman-54"/>
      <path d="
M52 44.1875
Q55.375 50.25 60.0625 53.125
Q64.75 56 71.0938 56
Q79.6406 56 84.2812 50.0156
Q88.9219 44.0469 88.9219 33.0156
L88.9219 0
L79.8906 0
L79.8906 32.7188
Q79.8906 40.5781 77.0938 44.375
Q74.3125 48.1875 68.6094 48.1875
Q61.625 48.1875 57.5625 43.5469
Q53.5156 38.9219 53.5156 30.9062
L53.5156 0
L44.4844 0
L44.4844 32.7188
Q44.4844 40.625 41.7031 44.4062
Q38.9219 48.1875 33.1094 48.1875
Q26.2188 48.1875 22.1562 43.5312
Q18.1094 38.875 18.1094 30.9062
L18.1094 0
L9.07812 0
L9.07812 54.6875
L18.1094 54.6875
L18.1094 46.1875
Q21.1875 51.2188 25.4844 53.6094
Q29.7812 56 35.6875 56
Q41.6562 56 45.8281 52.9688
Q50 49.9531 52 44.1875" id="BitstreamVeraSans-Roman-6d"/>
     </defs>
     <g transform="translate(286.3565625 425.715)scale(0.12 -0.12)">
      <use xlink:href="#BitstreamVeraSans-Roman-54"/>
      <use x="57.958984375" xlink:href="#BitstreamVeraSans-Roman-69"/>
      <use x="85.7421875" xlink:href="#BitstreamVeraSans-Roman-6d"/>
      <use x="183.154296875" xlink:href="#BitstreamVeraSans-Roman-65"/>
     </g>
    </g>
   </g>
   <g id="matplotlib.axis_2">
    <g id="ytick_1">
     <g id="line2d_14">
      <defs>
       <path d="
M0 0
L4 0" id="m81fd026057"/>
      </defs>
      <g>
       <use style="stroke:#000000;stroke-linecap:butt;stroke-width:0.5;" x="73.35" xlink:href="#m81fd026057" y="398.52"/>
      </g>
     </g>
     <g id="line2d_15">
      <defs>
       <path d="
M0 0
L-4 0" id="mc459b3d9cf"/>
      </defs>
      <g>
       <use style="stroke:#000000;stroke-linecap:butt;stroke-width:0.5;" x="528.12" xlink:href="#mc459b3d9cf" y="398.52"/>
      </g>
     </g>
     <g id="text_8">
      <!-- 0 -->
      <g transform="translate(63.303125 402.8878125)scale(0.12 -0.12)">
       <use xlink:href="#BitstreamVeraSans-Roman-30"/>
      </g>
     </g>
    </g>
    <g id="ytick_2">
     <g id="line2d_16">
      <defs>
       <path d="
M0 0
L4 0" id="m81fd026057"/>
      </defs>
      <g>
       <use style="stroke:#000000;stroke-linecap:butt;stroke-width:0.5;" x="73.35" xlink:href="#m81fd026057" y="309.96"/>
      </g>
     </g>
     <g id="line2d_17">
      <defs>
       <path d="
M0 0
L-4 0" id="mc459b3d9cf"/>
      </defs>
      <g>
       <use style="stroke:#000000;stroke-linecap:butt;stroke-width:0.5;" x="528.12" xlink:href="#mc459b3d9cf" y="309.96"/>
      </g>
     </g>
     <g id="text_9">
      <!-- 5 -->
      <g transform="translate(63.689375 314.2490625)scale(0.12 -0.12)">
       <use xlink:href="#BitstreamVeraSans-Roman-35"/>
      </g>
     </g>
    </g>
    <g id="ytick_3">
     <g id="line2d_18">
      <defs>
       <path d="
M0 0
L4 0" id="m81fd026057"/>
      </defs>
      <g>
       <use style="stroke:#000000;stroke-linecap:butt;stroke-width:0.5;" x="73.35" xlink:href="#m81fd026057" y="221.4"/>
      </g>
     </g>
     <g id="line2d_19">
      <defs>
       <path d="
M0 0
L-4 0" id="mc459b3d9cf"/>
      </defs>
      <g>
       <use style="stroke:#000000;stroke-linecap:butt;stroke-width:0.5;" x="528.12" xlink:href="#mc459b3d9cf" y="221.4"/>
      </g>
     </g>
     <g id="text_10">
      <!-- 10 -->
      <g transform="translate(56.195 225.7678125)scale(0.12 -0.12)">
       <use xlink:href="#BitstreamVeraSans-Roman-31"/>
       <use x="63.623046875" xlink:href="#BitstreamVeraSans-Roman-30"/>
      </g>
     </g>
    </g>
    <g id="ytick_4">
     <g id="line2d_20">
      <defs>
       <path d="
M0 0
L4 0" id="m81fd026057"/>
      </defs>
      <g>
       <use style="stroke:#000000;stroke-linecap:butt;stroke-width:0.5;" x="73.35" xlink:href="#m81fd026057" y="132.84"/>
      </g>
     </g>
     <g id="line2d_21">
      <defs>
       <path d="
M0 0
L-4 0" id="mc459b3d9cf"/>
      </defs>
      <g>
       <use style="stroke:#000000;stroke-linecap:butt;stroke-width:0.5;" x="528.12" xlink:href="#mc459b3d9cf" y="132.84"/>
      </g>
     </g>
     <g id="text_11">
      <!-- 15 -->
      <g transform="translate(56.44625 137.1290625)scale(0.12 -0.12)">
       <use xlink:href="#BitstreamVeraSans-Roman-31"/>
       <use x="63.623046875" xlink:href="#BitstreamVeraSans-Roman-35"/>
      </g>
     </g>
    </g>
    <g id="ytick_5">
     <g id="line2d_22">
      <defs>
       <path d="
M0 0
L4 0" id="m81fd026057"/>
      </defs>
      <g>
       <use style="stroke:#000000;stroke-linecap:butt;stroke-width:0.5;" x="73.35" xlink:href="#m81fd026057" y="44.28"/>
      </g>
     </g>
     <g id="line2d_23">
      <defs>
       <path d="
M0 0
L-4 0" id="mc459b3d9cf"/>
      </defs>
      <g>
       <use style="stroke:#000000;stroke-linecap:butt;stroke-width:0.5;" x="528.12" xlink:href="#mc459b3d9cf" y="44.28"/>
      </g>
     </g>
     <g id="text_12">
      <!-- 20 -->
      <g transform="translate(55.75625 48.6478125)scale(0.12 -0.12)">
       <use xlink:href="#BitstreamVeraSans-Roman-32"/>
       <use x="63.623046875" xlink:href="#BitstreamVeraSans-Roman-30"/>
      </g>
     </g>
    </g>
    <g id="text_13">
     <!-- Distance -->
     <defs>
      <path d="
M54.8906 33.0156
L54.8906 0
L45.9062 0
L45.9062 32.7188
Q45.9062 40.4844 42.875 44.3281
Q39.8438 48.1875 33.7969 48.1875
Q26.5156 48.1875 22.3125 43.5469
Q18.1094 38.9219 18.1094 30.9062
L18.1094 0
L9.07812 0
L9.07812 54.6875
L18.1094 54.6875
L18.1094 46.1875
Q21.3438 51.125 25.7031 53.5625
Q30.0781 56 35.7969 56
Q45.2188 56 50.0469 50.1719
Q54.8906 44.3438 54.8906 33.0156" id="BitstreamVeraSans-Roman-6e"/>
      <path d="
M19.6719 64.7969
L19.6719 8.10938
L31.5938 8.10938
Q46.6875 8.10938 53.6875 14.9375
Q60.6875 21.7812 60.6875 36.5312
Q60.6875 51.1719 53.6875 57.9844
Q46.6875 64.7969 31.5938 64.7969
z

M9.8125 72.9062
L30.0781 72.9062
Q51.2656 72.9062 61.1719 64.0938
Q71.0938 55.2812 71.0938 36.5312
Q71.0938 17.6719 61.125 8.82812
Q51.1719 0 30.0781 0
L9.8125 0
z
" id="BitstreamVeraSans-Roman-44"/>
      <path d="
M18.3125 70.2188
L18.3125 54.6875
L36.8125 54.6875
L36.8125 47.7031
L18.3125 47.7031
L18.3125 18.0156
Q18.3125 11.3281 20.1406 9.42188
Q21.9688 7.51562 27.5938 7.51562
L36.8125 7.51562
L36.8125 0
L27.5938 0
Q17.1875 0 13.2344 3.875
Q9.28125 7.76562 9.28125 18.0156
L9.28125 47.7031
L2.6875 47.7031
L2.6875 54.6875
L9.28125 54.6875
L9.28125 70.2188
z
" id="BitstreamVeraSans-Roman-74"/>
      <path d="
M34.2812 27.4844
Q23.3906 27.4844 19.1875 25
Q14.9844 22.5156 14.9844 16.5
Q14.9844 11.7188 18.1406 8.90625
Q21.2969 6.10938 26.7031 6.10938
Q34.1875 6.10938 38.7031 11.4062
Q43.2188 16.7031 43.2188 25.4844
L43.2188 27.4844
z

M52.2031 31.2031
L52.2031 0
L43.2188 0
L43.2188 8.29688
Q40.1406 3.32812 35.5469 0.953125
Q30.9531 -1.42188 24.3125 -1.42188
Q15.9219 -1.42188 10.9531 3.29688
Q6 8.01562 6 15.9219
Q6 25.1406 12.1719 29.8281
Q18.3594 34.5156 30.6094 34.5156
L43.2188 34.5156
L43.2188 35.4062
Q43.2188 41.6094 39.1406 45
Q35.0625 48.3906 27.6875 48.3906
Q23 48.3906 18.5469 47.2656
Q14.1094 46.1406 10.0156 43.8906
L10.0156 52.2031
Q14.9375 54.1094 19.5781 55.0469
Q24.2188 56 28.6094 56
Q40.4844 56 46.3438 49.8438
Q52.2031 43.7031 52.2031 31.2031" id="BitstreamVeraSans-Roman-61"/>
      <path d="
M44.2812 53.0781
L44.2812 44.5781
Q40.4844 46.5312 36.375 47.5
Q32.2812 48.4844 27.875 48.4844
Q21.1875 48.4844 17.8438 46.4375
Q14.5 44.3906 14.5 40.2812
Q14.5 37.1562 16.8906 35.375
Q19.2812 33.5938 26.5156 31.9844
L29.5938 31.2969
Q39.1562 29.25 43.1875 25.5156
Q47.2188 21.7812 47.2188 15.0938
Q47.2188 7.46875 41.1875 3.01562
Q35.1562 -1.42188 24.6094 -1.42188
Q20.2188 -1.42188 15.4531 -0.5625
Q10.6875 0.296875 5.42188 2
L5.42188 11.2812
Q10.4062 8.6875 15.2344 7.39062
Q20.0625 6.10938 24.8125 6.10938
Q31.1562 6.10938 34.5625 8.28125
Q37.9844 10.4531 37.9844 14.4062
Q37.9844 18.0625 35.5156 20.0156
Q33.0625 21.9688 24.7031 23.7812
L21.5781 24.5156
Q13.2344 26.2656 9.51562 29.9062
Q5.8125 33.5469 5.8125 39.8906
Q5.8125 47.6094 11.2812 51.7969
Q16.75 56 26.8125 56
Q31.7812 56 36.1719 55.2656
Q40.5781 54.5469 44.2812 53.0781" id="BitstreamVeraSans-Roman-73"/>
      <path d="
M48.7812 52.5938
L48.7812 44.1875
Q44.9688 46.2969 41.1406 47.3438
Q37.3125 48.3906 33.4062 48.3906
Q24.6562 48.3906 19.8125 42.8438
Q14.9844 37.3125 14.9844 27.2969
Q14.9844 17.2812 19.8125 11.7344
Q24.6562 6.20312 33.4062 6.20312
Q37.3125 6.20312 41.1406 7.25
Q44.9688 8.29688 48.7812 10.4062
L48.7812 2.09375
Q45.0156 0.34375 40.9844 -0.53125
Q36.9688 -1.42188 32.4219 -1.42188
Q20.0625 -1.42188 12.7812 6.34375
Q5.51562 14.1094 5.51562 27.2969
Q5.51562 40.6719 12.8594 48.3281
Q20.2188 56 33.0156 56
Q37.1562 56 41.1094 55.1406
Q45.0625 54.2969 48.7812 52.5938" id="BitstreamVeraSans-Roman-63"/>
     </defs>
     <g transform="translate(50.75625 246.5559375)rotate(-90.0)scale(0.12 -0.12)">
      <use xlink:href="#BitstreamVeraSans-Roman-44"/>
      <use x="77.001953125" xlink:href="#BitstreamVeraSans-Roman-69"/>
      <use x="104.78515625" xlink:href="#BitstreamVeraSans-Roman-73"/>
      <use x="156.884765625" xlink:href="#BitstreamVeraSans-Roman-74"/>
      <use x="196.09375" xlink:href="#BitstreamVeraSans-Roman-61"/>
      <use x="257.373046875" xlink:href="#BitstreamVeraSans-Roman-6e"/>
      <use x="320.751953125" xlink:href="#BitstreamVeraSans-Roman-63"/>
      <use x="375.732421875" xlink:href="#BitstreamVeraSans-Roman-65"/>
     </g>
    </g>
   </g>
   <g id="patch_3">
    <path d="
M73.35 44.28
L528.12 44.28" style="fill:none;stroke:#000000;"/>
   </g>
   <g id="patch_4">
    <path d="
M528.12 398.52
L528.12 44.28" style="fill:none;stroke:#000000;"/>
   </g>
   <g id="patch_5">
    <path d="
M73.35 398.52
L528.12 398.52" style="fill:none;stroke:#000000;"/>
   </g>
   <g id="patch_6">
    <path d="
M73.35 398.52
L73.35 44.28" style="fill:none;stroke:#000000;"/>
   </g>
   <g id="text_14">
    <!-- EWDrunk Simulation in 200 Trials -->
    <defs>
     <path id="BitstreamVeraSans-Roman-20"/>
     <path d="
M30.6094 48.3906
Q23.3906 48.3906 19.1875 42.75
Q14.9844 37.1094 14.9844 27.2969
Q14.9844 17.4844 19.1562 11.8438
Q23.3438 6.20312 30.6094 6.20312
Q37.7969 6.20312 41.9844 11.8594
Q46.1875 17.5312 46.1875 27.2969
Q46.1875 37.0156 41.9844 42.7031
Q37.7969 48.3906 30.6094 48.3906
M30.6094 56
Q42.3281 56 49.0156 48.375
Q55.7188 40.7656 55.7188 27.2969
Q55.7188 13.875 49.0156 6.21875
Q42.3281 -1.42188 30.6094 -1.42188
Q18.8438 -1.42188 12.1719 6.21875
Q5.51562 13.875 5.51562 27.2969
Q5.51562 40.7656 12.1719 48.375
Q18.8438 56 30.6094 56" id="BitstreamVeraSans-Roman-6f"/>
     <path d="
M9.42188 75.9844
L18.4062 75.9844
L18.4062 0
L9.42188 0
z
" id="BitstreamVeraSans-Roman-6c"/>
     <path d="
M9.07812 75.9844
L18.1094 75.9844
L18.1094 31.1094
L44.9219 54.6875
L56.3906 54.6875
L27.3906 29.1094
L57.625 0
L45.9062 0
L18.1094 26.7031
L18.1094 0
L9.07812 0
z
" id="BitstreamVeraSans-Roman-6b"/>
     <path d="
M9.8125 72.9062
L55.9062 72.9062
L55.9062 64.5938
L19.6719 64.5938
L19.6719 43.0156
L54.3906 43.0156
L54.3906 34.7188
L19.6719 34.7188
L19.6719 8.29688
L56.7812 8.29688
L56.7812 0
L9.8125 0
z
" id="BitstreamVeraSans-Roman-45"/>
     <path d="
M53.5156 70.5156
L53.5156 60.8906
Q47.9062 63.5781 42.9219 64.8906
Q37.9375 66.2188 33.2969 66.2188
Q25.25 66.2188 20.875 63.0938
Q16.5 59.9688 16.5 54.2031
Q16.5 49.3594 19.4062 46.8906
Q22.3125 44.4375 30.4219 42.9219
L36.375 41.7031
Q47.4062 39.5938 52.6562 34.2969
Q57.9062 29 57.9062 20.125
Q57.9062 9.51562 50.7969 4.04688
Q43.7031 -1.42188 29.9844 -1.42188
Q24.8125 -1.42188 18.9688 -0.25
Q13.1406 0.921875 6.89062 3.21875
L6.89062 13.375
Q12.8906 10.0156 18.6562 8.29688
Q24.4219 6.59375 29.9844 6.59375
Q38.4219 6.59375 43.0156 9.90625
Q47.6094 13.2344 47.6094 19.3906
Q47.6094 24.75 44.3125 27.7812
Q41.0156 30.8125 33.5 32.3281
L27.4844 33.5
Q16.4531 35.6875 11.5156 40.375
Q6.59375 45.0625 6.59375 53.4219
Q6.59375 63.0938 13.4062 68.6562
Q20.2188 74.2188 32.1719 74.2188
Q37.3125 74.2188 42.625 73.2812
Q47.9531 72.3594 53.5156 70.5156" id="BitstreamVeraSans-Roman-53"/>
     <path d="
M3.32812 72.9062
L13.2812 72.9062
L28.6094 11.2812
L43.8906 72.9062
L54.9844 72.9062
L70.3125 11.2812
L85.5938 72.9062
L95.6094 72.9062
L77.2969 0
L64.8906 0
L49.5156 63.2812
L33.9844 0
L21.5781 0
z
" id="BitstreamVeraSans-Roman-57"/>
     <path d="
M8.5 21.5781
L8.5 54.6875
L17.4844 54.6875
L17.4844 21.9219
Q17.4844 14.1562 20.5 10.2656
Q23.5312 6.39062 29.5938 6.39062
Q36.8594 6.39062 41.0781 11.0312
Q45.3125 15.6719 45.3125 23.6875
L45.3125 54.6875
L54.2969 54.6875
L54.2969 0
L45.3125 0
L45.3125 8.40625
Q42.0469 3.42188 37.7188 1
Q33.4062 -1.42188 27.6875 -1.42188
Q18.2656 -1.42188 13.375 4.4375
Q8.5 10.2969 8.5 21.5781" id="BitstreamVeraSans-Roman-75"/>
     <path d="
M41.1094 46.2969
Q39.5938 47.1719 37.8125 47.5781
Q36.0312 48 33.8906 48
Q26.2656 48 22.1875 43.0469
Q18.1094 38.0938 18.1094 28.8125
L18.1094 0
L9.07812 0
L9.07812 54.6875
L18.1094 54.6875
L18.1094 46.1875
Q20.9531 51.1719 25.4844 53.5781
Q30.0312 56 36.5312 56
Q37.4531 56 38.5781 55.875
Q39.7031 55.7656 41.0625 55.5156
z
" id="BitstreamVeraSans-Roman-72"/>
    </defs>
    <g transform="translate(181.348875 39.28)scale(0.144 -0.144)">
     <use xlink:href="#BitstreamVeraSans-Roman-45"/>
     <use x="63.18359375" xlink:href="#BitstreamVeraSans-Roman-57"/>
     <use x="162.060546875" xlink:href="#BitstreamVeraSans-Roman-44"/>
     <use x="239.0625" xlink:href="#BitstreamVeraSans-Roman-72"/>
     <use x="280.17578125" xlink:href="#BitstreamVeraSans-Roman-75"/>
     <use x="343.5546875" xlink:href="#BitstreamVeraSans-Roman-6e"/>
     <use x="406.93359375" xlink:href="#BitstreamVeraSans-Roman-6b"/>
     <use x="464.84375" xlink:href="#BitstreamVeraSans-Roman-20"/>
     <use x="496.630859375" xlink:href="#BitstreamVeraSans-Roman-53"/>
     <use x="560.107421875" xlink:href="#BitstreamVeraSans-Roman-69"/>
     <use x="587.890625" xlink:href="#BitstreamVeraSans-Roman-6d"/>
     <use x="685.302734375" xlink:href="#BitstreamVeraSans-Roman-75"/>
     <use x="748.681640625" xlink:href="#BitstreamVeraSans-Roman-6c"/>
     <use x="776.46484375" xlink:href="#BitstreamVeraSans-Roman-61"/>
     <use x="837.744140625" xlink:href="#BitstreamVeraSans-Roman-74"/>
     <use x="876.953125" xlink:href="#BitstreamVeraSans-Roman-69"/>
     <use x="904.736328125" xlink:href="#BitstreamVeraSans-Roman-6f"/>
     <use x="965.91796875" xlink:href="#BitstreamVeraSans-Roman-6e"/>
     <use x="1029.296875" xlink:href="#BitstreamVeraSans-Roman-20"/>
     <use x="1061.08398438" xlink:href="#BitstreamVeraSans-Roman-69"/>
     <use x="1088.8671875" xlink:href="#BitstreamVeraSans-Roman-6e"/>
     <use x="1152.24609375" xlink:href="#BitstreamVeraSans-Roman-20"/>
     <use x="1184.03320312" xlink:href="#BitstreamVeraSans-Roman-32"/>
     <use x="1247.65625" xlink:href="#BitstreamVeraSans-Roman-30"/>
     <use x="1311.27929688" xlink:href="#BitstreamVeraSans-Roman-30"/>
     <use x="1374.90234375" xlink:href="#BitstreamVeraSans-Roman-20"/>
     <use x="1406.68945312" xlink:href="#BitstreamVeraSans-Roman-54"/>
     <use x="1453.0234375" xlink:href="#BitstreamVeraSans-Roman-72"/>
     <use x="1494.13671875" xlink:href="#BitstreamVeraSans-Roman-69"/>
     <use x="1521.91992188" xlink:href="#BitstreamVeraSans-Roman-61"/>
     <use x="1583.19921875" xlink:href="#BitstreamVeraSans-Roman-6c"/>
     <use x="1610.98242188" xlink:href="#BitstreamVeraSans-Roman-73"/>
    </g>
   </g>
  </g>
 </g>
 <defs>
  <clipPath id="p9061672a36">
   <rect height="354.24" width="454.77" x="73.35" y="44.28"/>
  </clipPath>
 </defs>
</svg>
