<?xml version="1.0" encoding="utf-8" standalone="no"?>
<!DOCTYPE svg PUBLIC "-//W3C//DTD SVG 1.1//EN"
  "http://www.w3.org/Graphics/SVG/1.1/DTD/svg11.dtd">
<!-- Created with matplotlib (http://matplotlib.sourceforge.net/) -->
<svg height="442pt" version="1.1" viewBox="0 0 586 442" width="586pt" xmlns="http://www.w3.org/2000/svg" xmlns:xlink="http://www.w3.org/1999/xlink">
 <defs>
  <style type="text/css">
*{stroke-linecap:square;stroke-linejoin:round;}
  </style>
 </defs>
 <g id="figure_1">
  <g id="patch_1">
   <path d="
M0 442.8
L586.8 442.8
L586.8 0
L0 0
z
" style="fill:#ffffff;"/>
  </g>
  <g id="axes_1">
   <g id="patch_2">
    <path d="
M73.35 398.52
L528.12 398.52
L528.12 44.28
L73.35 44.28
z
" style="fill:#ffffff;"/>
   </g>
   <g id="line2d_1">
    <path clip-path="url(#p9061672a36)" d="
M73.35 398.52
L74.2595 388.399
L75.1691 398.52
L76.0786 388.399
L76.9882 384.207
L77.8977 388.399
L78.8072 384.207
L79.7168 375.888
L80.6263 378.278
L82.4454 358.035
L83.3549 356.789
L84.2645 353.257
L85.174 362.028
L86.0836 366.514
L86.9931 375.888
L87.9026 369.893
L88.8122 362.028
L89.7217 366.514
L90.6313 362.028
L91.5408 369.893
L92.4503 375.888
L93.3599 384.207
L94.2694 375.888
L95.179 378.278
L96.0885 375.888
L96.998 378.278
L97.9076 388.399
L98.8171 384.207
L99.7267 388.399
L100.636 398.52
L101.546 388.399
L102.455 384.207
L103.365 388.399
L104.274 398.52
L105.184 388.399
L106.093 384.207
L107.003 388.399
L107.913 384.207
L108.822 388.399
L109.732 378.278
L110.641 388.399
L111.551 384.207
L112.46 388.399
L113.37 384.207
L114.279 388.399
L115.189 384.207
L116.098 388.399
L117.008 378.278
L117.917 375.888
L118.827 366.514
L119.737 362.028
L120.646 355.58
L121.556 362.028
L122.465 355.58
L123.375 347.914
L124.284 353.257
L125.194 356.789
L126.103 358.035
L127.013 368.157
L127.922 366.514
L128.832 356.789
L129.741 366.514
L130.651 356.789
L131.561 353.257
L132.47 347.914
L133.38 339.504
L134.289 344.016
L135.199 339.504
L136.108 344.016
L137.018 346.912
L137.927 356.789
L138.837 353.257
L139.746 362.028
L140.656 353.257
L141.566 356.789
L142.475 358.035
L144.294 378.278
L145.204 375.888
L146.113 369.893
L147.023 375.888
L147.932 369.893
L148.842 375.888
L149.751 378.278
L150.661 388.399
L151.57 384.207
L152.48 388.399
L153.39 398.52
L155.209 378.278
L156.118 388.399
L157.028 378.278
L157.937 375.888
L158.847 378.278
L159.756 375.888
L160.666 369.893
L161.575 362.028
L162.485 366.514
L163.394 375.888
L164.304 378.278
L166.123 358.035
L167.033 368.157
L167.942 366.514
L168.852 368.157
L169.761 366.514
L170.671 362.028
L171.58 355.58
L172.49 362.028
L173.399 369.893
L174.309 375.888
L175.218 384.207
L176.128 375.888
L177.038 378.278
L177.947 368.157
L178.857 366.514
L179.766 362.028
L180.676 366.514
L182.495 346.912
L183.404 344.016
L184.314 339.504
L185.223 330.625
L186.133 339.504
L187.043 344.016
L187.952 346.912
L188.862 356.789
L190.681 336.955
L191.59 334.508
L192.5 336.955
L193.409 337.793
L194.319 327.672
L195.228 326.953
L197.047 346.912
L197.957 336.955
L198.867 334.508
L200.686 353.257
L201.595 347.914
L202.505 341.266
L203.414 333.713
L204.324 339.504
L205.233 347.914
L206.143 341.266
L207.052 347.914
L207.962 341.266
L208.871 347.914
L209.781 341.266
L210.691 347.914
L211.6 353.257
L212.51 344.016
L213.419 346.912
L215.238 326.953
L216.148 324.837
L217.057 334.508
L217.967 330.625
L218.876 325.535
L219.786 319.471
L221.605 305.208
L222.515 311.455
L223.424 303.037
L224.334 297.309
L226.153 280.488
L227.062 274.976
L227.972 283.121
L228.881 274.976
L229.791 280.488
L230.7 271.702
L231.61 280.488
L232.52 271.702
L233.429 276.226
L234.339 266.945
L235.248 262.731
L236.158 271.702
L237.067 266.556
L237.977 271.702
L238.886 266.556
L239.796 274.976
L240.705 266.556
L241.615 271.702
L242.524 266.556
L244.344 283.121
L245.253 274.976
L246.163 283.121
L247.072 276.645
L249.801 252.551
L251.62 262.731
L252.529 253.607
L253.439 249.083
L254.348 240.099
L255.258 244.359
L256.168 253.607
L257.987 235.008
L258.896 230.985
L259.806 240.099
L260.715 235.321
L261.625 244.027
L264.353 217.467
L265.263 221.762
L266.172 217.467
L267.992 199.157
L268.901 194.836
L269.811 199.157
L270.72 208.361
L271.63 203.836
L272.539 194.836
L273.449 199.157
L274.358 194.836
L275.268 185.735
L276.177 194.836
L277.087 199.157
L277.997 189.867
L279.816 181.21
L280.725 172.204
L281.635 167.501
L283.454 185.014
L284.363 176.315
L285.273 171.076
L286.182 176.315
L287.092 185.014
L288.001 190.113
L288.911 185.014
L289.821 190.113
L290.73 185.014
L291.64 190.113
L292.549 181.21
L293.459 176.315
L294.368 185.014
L295.278 179.566
L296.187 187.913
L298.006 175.625
L298.916 183.342
L299.825 175.625
L300.735 169.058
L301.645 161.374
L302.554 169.058
L303.464 161.374
L304.373 169.058
L305.283 175.625
L306.192 167.722
L307.102 175.625
L308.011 169.058
L308.921 176.546
L309.83 169.505
L310.74 176.546
L311.649 169.505
L312.559 176.546
L313.469 169.058
L314.378 176.546
L315.288 169.058
L316.197 176.546
L317.107 169.505
L318.016 176.546
L320.745 154.771
L322.564 169.505
L323.474 162.24
L326.202 183.342
L327.112 189.867
L328.021 183.342
L328.931 189.867
L329.84 197.621
L332.569 176.546
L334.388 189.867
L335.298 183.342
L336.207 175.625
L337.117 181.918
L338.026 175.625
L338.936 183.342
L339.845 175.625
L340.755 169.058
L342.574 181.918
L343.483 175.625
L344.393 167.722
L345.302 173.794
L346.212 165.514
L347.122 173.794
L348.941 161.374
L349.85 154.771
L350.76 161.374
L351.669 169.058
L354.398 147.932
L355.307 140.878
L357.126 154.771
L358.946 140.48
L359.855 132.852
L360.765 140.48
L361.674 132.852
L364.403 112.251
L367.131 133.624
L368.041 126.188
L369.86 139.292
L370.77 147.116
L371.679 139.292
L372.589 147.116
L373.498 139.292
L376.227 119.316
L378.046 105.007
L378.955 112.251
L379.865 105.007
L380.775 111.893
L381.684 105.007
L382.594 112.251
L383.503 105.007
L386.232 126.564
L388.051 111.893
L388.96 118.583
L389.87 126.188
L390.779 132.852
L392.599 117.123
L394.418 132.852
L397.146 151.431
L398.056 159.652
L398.965 153.513
L399.875 159.652
L400.784 167.722
L403.513 147.932
L405.332 162.24
L406.242 154.771
L407.151 161.374
L408.061 153.513
L408.97 159.652
L409.88 153.513
L410.789 145.491
L411.699 139.292
L413.518 123.195
L414.428 131.314
L415.337 123.195
L416.247 131.314
L417.156 125.062
L418.975 140.48
L419.885 132.852
L420.794 139.292
L421.704 132.852
L422.613 139.292
L423.523 132.852
L424.432 139.292
L425.342 147.116
L426.252 140.48
L427.161 132.852
L429.89 151.431
L430.799 145.491
L432.618 161.374
L433.528 153.513
L434.437 161.374
L435.347 154.771
L438.076 176.546
L438.985 169.505
L439.895 176.546
L440.804 169.505
L442.623 183.818
L443.533 176.546
L445.352 190.852
L446.261 183.818
L451.719 226.759
L454.447 205.156
L456.266 218.318
L457.176 211.895
L458.085 204.099
L458.995 211.895
L459.905 218.318
L460.814 210.256
L462.633 221.472
L463.543 212.721
L464.452 207.555
L465.362 216.059
L467.181 226.461
L468.09 235.321
L469 226.461
L470.819 216.059
L471.729 221.472
L472.638 230.071
L473.548 235.321
L475.367 252.551
L476.276 246.703
L477.186 254.672
L478.095 260.858
L479.914 248.058
L480.824 241.072
L481.733 248.058
L482.643 240.423
L484.462 226.759
L486.281 241.072
L488.1 226.163
L489.01 233.76
L492.648 205.156
L493.557 212.445
L494.467 205.156
L496.286 219.459
L499.924 190.852
L502.653 212.445
L503.562 205.156
L504.472 211.895
L505.382 205.156
L506.291 211.895
L507.201 204.099
L508.11 197.621
L509.02 204.099
L509.929 211.895
L510.839 204.099
L511.748 197.621
L512.658 205.156
L514.477 190.852
L516.296 204.099
L518.115 216.059
L520.844 240.423
L521.753 248.058
L525.391 219.459
L526.301 226.163
L527.21 233.76
L528.12 226.759
L528.12 226.759" style="fill:none;stroke:#0000ff;"/>
   </g>
   <g id="line2d_2">
    <path clip-path="url(#p9061672a36)" d="
M73.35 398.52
L74.2595 388.399
L75.1691 384.207
L76.0786 388.399
L76.9882 378.278
L77.8977 375.888
L78.8072 378.278
L80.6263 398.52
L83.3549 368.157
L85.174 388.399
L86.0836 378.278
L86.9931 375.888
L87.9026 378.278
L88.8122 368.157
L90.6313 388.399
L91.5408 384.207
L92.4503 388.399
L93.3599 384.207
L94.2694 375.888
L95.179 366.514
L96.0885 375.888
L96.998 369.893
L97.9076 375.888
L98.8171 384.207
L99.7267 375.888
L100.636 369.893
L101.546 375.888
L102.455 384.207
L103.365 388.399
L104.274 378.278
L105.184 375.888
L106.093 384.207
L107.003 388.399
L107.913 384.207
L108.822 388.399
L109.732 378.278
L110.641 375.888
L111.551 384.207
L112.46 375.888
L113.37 378.278
L114.279 375.888
L115.189 366.514
L116.098 362.028
L117.008 353.257
L117.917 362.028
L118.827 353.257
L119.737 347.914
L120.646 353.257
L121.556 362.028
L122.465 355.58
L124.284 339.504
L125.194 344.016
L126.103 339.504
L127.013 347.914
L127.922 339.504
L129.741 355.58
L130.651 347.914
L131.561 353.257
L132.47 347.914
L133.38 355.58
L134.289 362.028
L135.199 353.257
L136.108 356.789
L137.018 358.035
L137.927 347.914
L138.837 346.912
L139.746 344.016
L140.656 334.508
L141.566 330.625
L142.475 339.504
L143.385 344.016
L144.294 353.257
L145.204 344.016
L146.113 353.257
L147.023 347.914
L147.932 341.266
L148.842 347.914
L149.751 355.58
L150.661 347.914
L151.57 341.266
L152.48 347.914
L153.39 339.504
L154.299 344.016
L155.209 339.504
L156.118 333.713
L157.028 326.953
L157.937 333.713
L158.847 339.504
L159.756 330.625
L160.666 325.535
L161.575 330.625
L162.485 325.535
L163.394 330.625
L164.304 339.504
L165.214 330.625
L166.123 334.508
L167.033 336.955
L167.942 337.793
L168.852 347.914
L169.761 346.912
L170.671 347.914
L171.58 346.912
L172.49 356.789
L173.399 353.257
L174.309 347.914
L175.218 355.58
L176.128 362.028
L177.038 353.257
L177.947 356.789
L178.857 353.257
L179.766 344.016
L180.676 339.504
L181.585 333.713
L182.495 339.504
L183.404 344.016
L184.314 339.504
L185.223 344.016
L186.133 346.912
L187.043 347.914
L187.952 358.035
L189.771 337.793
L190.681 336.955
L191.59 346.912
L192.5 347.914
L194.319 327.672
L195.228 326.953
L196.138 324.837
L197.047 326.953
L198.867 346.912
L199.776 336.955
L200.686 334.508
L201.595 330.625
L202.505 339.504
L203.414 330.625
L204.324 325.535
L205.233 316.921
L206.143 311.455
L207.052 319.471
L207.962 311.455
L208.871 319.471
L209.781 325.535
L210.691 319.471
L212.51 333.713
L213.419 325.535
L214.329 330.625
L215.238 321.44
L216.148 324.837
L217.057 321.44
L217.967 312.045
L218.876 321.44
L220.695 302.502
L221.605 298.838
L222.515 302.502
L223.424 305.208
L224.334 306.869
L225.243 316.921
L226.153 315.059
L227.062 305.208
L227.972 315.059
L228.881 305.208
L229.791 302.502
L230.7 292.852
L231.61 289.512
L232.52 285.362
L233.429 276.226
L234.339 285.362
L235.248 280.488
L236.158 285.362
L237.067 280.488
L237.977 285.362
L238.886 294.316
L240.705 283.121
L242.524 266.556
L243.434 274.976
L245.253 285.362
L246.163 289.512
L247.072 292.852
L247.982 289.512
L248.891 285.362
L249.801 276.226
L250.71 271.702
L251.62 266.556
L253.439 283.121
L254.348 274.976
L255.258 268.906
L256.168 260.858
L257.077 268.906
L257.987 274.976
L259.806 262.354
L261.625 276.645
L262.534 269.699
L265.263 290.931
L267.992 269.699
L269.811 284.012
L271.63 268.906
L272.539 260.858
L274.358 248.058
L275.268 240.423
L276.177 246.703
L277.997 233.76
L279.816 246.703
L281.635 257.913
L282.544 252.551
L283.454 260.858
L286.182 235.321
L287.092 230.071
L288.911 240.099
L289.821 235.321
L290.73 240.099
L291.64 230.985
L292.549 226.461
L294.368 235.008
L295.278 244.359
L296.187 235.008
L297.097 244.359
L298.006 240.099
L299.825 221.762
L300.735 230.985
L301.645 221.762
L302.554 217.467
L303.464 208.361
L304.373 203.836
L305.283 212.721
L306.192 217.467
L308.011 207.555
L308.921 198.9
L309.83 193.582
L310.74 202.003
L312.559 212.721
L313.469 207.555
L314.378 198.9
L315.288 207.555
L316.197 212.721
L317.107 207.555
L318.016 212.721
L319.835 230.071
L320.745 221.472
L323.474 246.703
L324.383 238.491
L326.202 254.672
L328.021 238.491
L328.931 246.703
L329.84 252.551
L330.75 260.858
L331.659 254.672
L332.569 246.703
L333.478 252.551
L335.298 268.906
L336.207 260.858
L337.117 254.672
L339.845 230.071
L340.755 238.491
L341.664 244.027
L342.574 238.491
L343.483 246.703
L345.302 233.76
L346.212 241.072
L347.122 233.76
L348.941 248.058
L349.85 254.672
L350.76 262.354
L352.579 274.976
L353.488 280.488
L354.398 289.043
L355.307 283.121
L356.217 274.976
L357.126 283.121
L358.036 274.976
L358.946 283.121
L359.855 289.043
L360.765 297.309
L361.674 289.043
L362.584 283.121
L363.493 290.931
L365.312 274.976
L367.131 290.931
L368.041 297.309
L369.86 312.639
L371.679 325.535
L372.589 330.625
L373.498 325.535
L374.408 316.921
L375.317 325.535
L377.136 307.994
L378.046 316.921
L378.955 307.994
L379.865 303.037
L380.775 297.309
L381.684 289.043
L382.594 283.121
L383.503 274.976
L384.413 280.488
L386.232 262.731
L387.141 266.945
L388.051 276.226
L388.96 271.702
L389.87 262.731
L390.779 266.945
L391.689 276.226
L392.599 280.055
L393.508 270.497
L394.418 273.328
L395.327 275.391
L397.146 295.304
L398.056 292.852
L398.965 283.121
L399.875 285.362
L400.784 275.391
L401.694 276.645
L403.513 256.463
L404.423 266.556
L405.332 265.397
L406.242 255.385
L407.151 265.397
L408.061 266.556
L408.97 276.645
L409.88 275.391
L410.789 276.645
L411.699 275.391
L412.608 273.328
L413.518 263.487
L414.428 273.328
L415.337 270.497
L416.247 273.328
L417.156 283.121
L418.066 273.328
L418.975 275.391
L419.885 285.362
L420.794 283.121
L421.704 280.055
L422.613 276.226
L425.342 303.037
L428.071 276.226
L428.98 271.702
L431.709 244.359
L432.618 253.607
L433.528 257.549
L434.437 266.945
L435.347 262.731
L436.256 253.607
L437.166 257.549
L438.076 260.858
L438.985 257.549
L439.895 248.058
L440.804 251.154
L441.714 241.398
L442.623 238.491
L446.261 276.226
L447.171 271.702
L448.99 260.858
L451.719 235.321
L452.628 226.461
L453.538 230.985
L454.447 221.762
L456.266 240.099
L458.085 230.071
L458.995 238.491
L460.814 226.163
L462.633 240.423
L463.543 232.521
L464.452 226.163
L465.362 232.521
L466.271 226.163
L467.181 233.76
L469.909 211.895
L470.819 204.099
L472.638 219.459
L474.457 232.521
L476.276 244.027
L477.186 249.083
L478.095 244.027
L479.914 253.607
L481.733 244.027
L483.553 232.521
L484.462 240.423
L485.372 233.76
L486.281 240.423
L487.191 248.058
L488.1 240.423
L489.01 248.058
L489.919 241.072
L490.829 248.058
L492.648 232.521
L493.557 238.491
L494.467 246.703
L495.377 240.423
L496.286 246.703
L497.196 240.423
L498.105 232.521
L499.015 238.491
L499.924 232.521
L500.834 240.423
L502.653 224.389
L503.562 232.521
L505.382 216.059
L506.291 210.256
L507.201 218.318
L509.929 193.582
L510.839 187.913
L511.748 179.566
L513.567 167.722
L514.477 173.794
L515.386 167.722
L516.296 175.625
L517.206 181.918
L518.115 189.867
L519.934 202.003
L520.844 193.582
L521.753 202.003
L522.663 193.582
L523.572 202.003
L524.482 207.555
L525.391 198.9
L526.301 207.555
L527.21 212.721
L528.12 203.836
L528.12 203.836" style="fill:none;stroke:#008000;"/>
   </g>
   <g id="line2d_3">
    <path clip-path="url(#p9061672a36)" d="
M73.35 398.52
L74.2595 388.399
L75.1691 398.52
L76.0786 388.399
L76.9882 384.207
L77.8977 388.399
L78.8072 384.207
L79.7168 375.888
L80.6263 378.278
L81.5359 375.888
L82.4454 384.207
L83.3549 388.399
L84.2645 384.207
L85.174 388.399
L86.0836 384.207
L86.9931 375.888
L87.9026 366.514
L88.8122 362.028
L89.7217 355.58
L90.6313 347.914
L91.5408 341.266
L93.3599 326.953
L94.2694 333.713
L95.179 339.504
L96.0885 347.914
L96.998 353.257
L97.9076 362.028
L98.8171 355.58
L100.636 339.504
L101.546 344.016
L102.455 353.257
L104.274 334.508
L105.184 344.016
L106.093 346.912
L107.003 336.955
L107.913 337.793
L108.822 336.955
L109.732 337.793
L110.641 327.672
L111.551 326.953
L112.46 327.672
L113.37 337.793
L114.279 336.955
L115.189 334.508
L116.098 336.955
L117.008 346.912
L117.917 344.016
L118.827 339.504
L119.737 330.625
L120.646 339.504
L121.556 330.625
L122.465 325.535
L123.375 316.921
L124.284 325.535
L125.194 330.625
L126.103 321.44
L127.013 324.837
L127.922 326.953
L128.832 327.672
L129.741 337.793
L130.651 336.955
L131.561 334.508
L132.47 330.625
L133.38 339.504
L134.289 330.625
L135.199 339.504
L136.108 344.016
L137.018 339.504
L138.837 321.44
L139.746 330.625
L140.656 321.44
L141.566 324.837
L142.475 315.059
L143.385 316.921
L144.294 315.059
L145.204 316.921
L146.113 326.953
L147.023 316.921
L147.932 315.059
L148.842 316.921
L149.751 306.869
L150.661 305.208
L151.57 306.869
L153.39 326.953
L154.299 327.672
L157.028 358.035
L157.937 356.789
L158.847 346.912
L159.756 347.914
L160.666 358.035
L161.575 356.789
L162.485 346.912
L163.394 347.914
L164.304 346.912
L165.214 356.789
L166.123 353.257
L167.033 347.914
L167.942 353.257
L168.852 347.914
L169.761 353.257
L170.671 344.016
L171.58 339.504
L172.49 333.713
L174.309 316.921
L175.218 325.535
L176.128 330.625
L178.857 302.502
L179.766 312.045
L180.676 302.502
L181.585 312.045
L182.495 307.994
L183.404 316.921
L184.314 311.455
L186.133 326.953
L188.862 305.208
L189.771 311.455
L190.681 303.037
L192.5 319.471
L194.319 303.037
L195.228 307.994
L196.138 312.045
L197.047 307.994
L197.957 312.045
L198.867 315.059
L199.776 305.208
L200.686 306.869
L201.595 305.208
L202.505 306.869
L204.324 286.728
L205.233 296.804
L206.143 295.304
L207.052 296.804
L207.962 286.728
L208.871 296.804
L209.781 297.309
L210.691 296.804
L211.6 286.728
L212.51 287.187
L213.419 286.728
L214.329 276.645
L215.238 275.391
L216.148 285.362
L217.057 286.728
L217.967 287.187
L218.876 277.066
L219.786 276.645
L220.695 277.066
L221.605 287.187
L223.424 266.945
L224.334 266.556
L226.153 286.728
L227.062 276.645
L227.972 277.066
L228.881 276.645
L229.791 286.728
L230.7 285.362
L231.61 286.728
L232.52 276.645
L233.429 275.391
L234.339 276.645
L235.248 277.066
L237.067 256.824
L237.977 256.463
L238.886 246.366
L239.796 245.359
L240.705 255.385
L241.615 253.607
L242.524 255.385
L244.344 235.321
L246.163 255.385
L247.072 245.359
L247.982 246.366
L249.801 226.163
L250.71 226.461
L251.62 236.582
L252.529 226.461
L253.439 226.163
L254.348 225.274
L255.258 235.321
L256.168 233.76
L257.077 243.696
L257.987 245.359
L258.896 255.385
L259.806 256.463
L260.715 246.366
L261.625 256.463
L262.534 246.366
L263.444 245.359
L264.353 235.321
L265.263 233.76
L266.172 243.696
L267.082 241.398
L267.992 243.696
L268.901 241.398
L269.811 238.491
L270.72 241.398
L271.63 251.154
L272.539 253.607
L273.449 251.154
L274.358 248.058
L275.268 257.549
L276.177 248.058
L277.087 257.549
L277.997 260.858
L278.906 270.497
L281.635 241.398
L282.544 243.696
L284.363 263.487
L285.273 265.397
L286.182 266.556
L287.092 256.463
L288.001 256.824
L288.911 256.463
L289.821 246.366
L290.73 245.359
L291.64 246.366
L293.459 266.556
L294.368 266.945
L295.278 266.556
L296.187 266.945
L297.097 256.824
L298.006 266.945
L298.916 266.556
L299.825 276.645
L300.735 266.556
L301.645 266.945
L303.464 246.703
L304.373 246.366
L305.283 246.703
L306.192 236.582
L307.102 236.266
L308.011 236.582
L308.921 236.266
L309.83 226.163
L310.74 225.274
L311.649 226.163
L313.469 205.952
L314.378 205.156
L315.288 195.088
L316.197 195.844
L317.107 196.097
L318.016 195.844
L318.926 185.735
L319.835 195.844
L320.745 196.097
L322.564 216.339
L323.474 216.059
L325.293 236.266
L326.202 226.163
L327.112 236.266
L328.021 226.163
L328.931 225.274
L329.84 223.802
L330.75 225.274
L331.659 215.218
L332.569 213.826
L333.478 223.802
L334.388 221.762
L335.298 211.895
L336.207 213.826
L337.117 215.218
L338.026 216.059
L338.936 215.218
L339.845 205.156
L340.755 205.952
L341.664 195.844
L342.574 205.952
L343.483 195.844
L344.393 195.088
L345.302 185.014
L346.212 195.088
L347.122 185.014
L348.031 183.818
L348.941 173.794
L349.85 172.204
L352.579 142.273
L353.488 140.48
L354.398 138.306
L355.307 140.48
L357.126 160.297
L358.036 150.397
L358.946 160.297
L359.855 157.943
L361.674 177.471
L362.584 174.479
L363.493 177.471
L364.403 174.479
L366.222 155.191
L367.131 164.855
L368.041 167.722
L368.951 170.177
L369.86 172.204
L370.77 162.24
L371.679 163.762
L372.589 173.794
L373.498 163.762
L374.408 164.855
L375.317 165.514
L376.227 165.734
L377.136 155.613
L378.046 155.402
L378.955 154.771
L379.865 144.683
L380.775 145.289
L381.684 145.491
L382.594 135.37
L383.503 145.491
L384.413 145.289
L386.232 125.062
L387.141 124.5
L388.051 123.567
L389.87 143.676
L390.779 133.624
L391.689 143.676
L392.599 144.683
L393.508 143.676
L394.418 153.722
L395.327 154.771
L396.237 164.855
L397.146 154.771
L398.056 164.855
L398.965 154.771
L399.875 153.722
L400.784 154.771
L401.694 155.402
L402.603 155.613
L403.513 165.734
L404.423 165.514
L405.332 164.855
L406.242 154.771
L408.061 174.937
L409.88 154.771
L410.789 153.722
L411.699 152.262
L412.608 162.24
L413.518 163.762
L414.428 162.24
L415.337 163.762
L416.247 164.855
L417.156 174.937
L418.066 173.794
L418.975 163.762
L419.885 162.24
L420.794 160.297
L422.613 140.48
L423.523 142.273
L424.432 140.48
L425.342 142.273
L426.252 143.676
L427.161 153.722
L428.98 133.624
L429.89 132.274
L430.799 122.267
L431.709 123.567
L432.618 124.5
L433.528 125.062
L435.347 145.289
L436.256 135.176
L437.166 145.289
L438.076 144.683
L438.985 145.289
L439.895 144.683
L440.804 143.676
L446.261 203.836
L447.171 193.833
L448.08 192.088
L448.99 182.155
L449.9 180.035
L450.809 189.867
L451.719 192.088
L452.628 193.833
L453.538 192.088
L454.447 193.833
L455.357 183.818
L456.266 182.155
L458.085 162.24
L458.995 163.762
L459.905 164.855
L460.814 174.937
L461.724 173.794
L462.633 174.937
L463.543 175.625
L464.452 175.855
L465.362 175.625
L466.271 185.735
L467.181 185.014
L468.09 185.735
L469 185.976
L469.909 196.097
L470.819 195.844
L471.729 205.952
L472.638 195.844
L473.548 196.097
L474.457 206.218
L475.367 205.952
L476.276 205.156
L477.186 205.952
L478.095 205.156
L479.005 205.952
L479.914 216.059
L480.824 216.339
L481.733 216.059
L484.462 185.735
L485.372 185.976
L486.281 185.735
L487.191 185.976
L488.1 185.735
L489.01 185.014
L489.919 174.937
L490.829 185.014
L491.738 183.818
L492.648 193.833
L493.557 183.818
L494.467 185.014
L495.377 185.735
L496.286 175.625
L497.196 174.937
L498.105 164.855
L499.015 165.514
L499.924 164.855
L500.834 163.762
L501.743 162.24
L502.653 152.262
L503.562 162.24
L504.472 163.762
L505.382 153.722
L506.291 152.262
L507.201 153.722
L509.02 133.624
L509.929 134.593
L510.839 133.624
L511.748 143.676
L512.658 142.273
L513.567 132.274
L514.477 142.273
L515.386 132.274
L516.296 133.624
L517.206 134.593
L518.115 133.624
L519.025 123.567
L519.934 122.267
L520.844 112.251
L521.753 110.645
L523.572 90.6975
L524.482 100.676
L525.391 90.6975
L526.301 100.676
L527.21 98.7906
L528.12 100.676
L528.12 100.676" style="fill:none;stroke:#ff0000;"/>
   </g>
   <g id="matplotlib.axis_1">
    <g id="xtick_1">
     <g id="line2d_4">
      <defs>
       <path d="
M0 0
L0 -4" id="m1d6c4e73da"/>
      </defs>
      <g>
       <use style="stroke:#000000;stroke-linecap:butt;stroke-width:0.5;" x="73.35" xlink:href="#m1d6c4e73da" y="398.52"/>
      </g>
     </g>
     <g id="line2d_5">
      <defs>
       <path d="
M0 0
L0 4" id="m763cc79d7a"/>
      </defs>
      <g>
       <use style="stroke:#000000;stroke-linecap:butt;stroke-width:0.5;" x="73.35" xlink:href="#m763cc79d7a" y="44.28"/>
      </g>
     </g>
     <g id="text_1">
      <!-- 0 -->
      <defs>
       <path d="
M31.7812 66.4062
Q24.1719 66.4062 20.3281 58.9062
Q16.5 51.4219 16.5 36.375
Q16.5 21.3906 20.3281 13.8906
Q24.1719 6.39062 31.7812 6.39062
Q39.4531 6.39062 43.2812 13.8906
Q47.125 21.3906 47.125 36.375
Q47.125 51.4219 43.2812 58.9062
Q39.4531 66.4062 31.7812 66.4062
M31.7812 74.2188
Q44.0469 74.2188 50.5156 64.5156
Q56.9844 54.8281 56.9844 36.375
Q56.9844 17.9688 50.5156 8.26562
Q44.0469 -1.42188 31.7812 -1.42188
Q19.5312 -1.42188 13.0625 8.26562
Q6.59375 17.9688 6.59375 36.375
Q6.59375 54.8281 13.0625 64.5156
Q19.5312 74.2188 31.7812 74.2188" id="BitstreamVeraSans-Roman-30"/>
      </defs>
      <g transform="translate(70.3265625 411.42625)scale(0.12 -0.12)">
       <use xlink:href="#BitstreamVeraSans-Roman-30"/>
      </g>
     </g>
    </g>
    <g id="xtick_2">
     <g id="line2d_6">
      <defs>
       <path d="
M0 0
L0 -4" id="m1d6c4e73da"/>
      </defs>
      <g>
       <use style="stroke:#000000;stroke-linecap:butt;stroke-width:0.5;" x="164.304" xlink:href="#m1d6c4e73da" y="398.52"/>
      </g>
     </g>
     <g id="line2d_7">
      <defs>
       <path d="
M0 0
L0 4" id="m763cc79d7a"/>
      </defs>
      <g>
       <use style="stroke:#000000;stroke-linecap:butt;stroke-width:0.5;" x="164.304" xlink:href="#m763cc79d7a" y="44.28"/>
      </g>
     </g>
     <g id="text_2">
      <!-- 100 -->
      <defs>
       <path d="
M12.4062 8.29688
L28.5156 8.29688
L28.5156 63.9219
L10.9844 60.4062
L10.9844 69.3906
L28.4219 72.9062
L38.2812 72.9062
L38.2812 8.29688
L54.3906 8.29688
L54.3906 0
L12.4062 0
z
" id="BitstreamVeraSans-Roman-31"/>
      </defs>
      <g transform="translate(153.909 411.42625)scale(0.12 -0.12)">
       <use xlink:href="#BitstreamVeraSans-Roman-31"/>
       <use x="63.623046875" xlink:href="#BitstreamVeraSans-Roman-30"/>
       <use x="127.24609375" xlink:href="#BitstreamVeraSans-Roman-30"/>
      </g>
     </g>
    </g>
    <g id="xtick_3">
     <g id="line2d_8">
      <defs>
       <path d="
M0 0
L0 -4" id="m1d6c4e73da"/>
      </defs>
      <g>
       <use style="stroke:#000000;stroke-linecap:butt;stroke-width:0.5;" x="255.258" xlink:href="#m1d6c4e73da" y="398.52"/>
      </g>
     </g>
     <g id="line2d_9">
      <defs>
       <path d="
M0 0
L0 4" id="m763cc79d7a"/>
      </defs>
      <g>
       <use style="stroke:#000000;stroke-linecap:butt;stroke-width:0.5;" x="255.258" xlink:href="#m763cc79d7a" y="44.28"/>
      </g>
     </g>
     <g id="text_3">
      <!-- 200 -->
      <defs>
       <path d="
M19.1875 8.29688
L53.6094 8.29688
L53.6094 0
L7.32812 0
L7.32812 8.29688
Q12.9375 14.1094 22.625 23.8906
Q32.3281 33.6875 34.8125 36.5312
Q39.5469 41.8438 41.4219 45.5312
Q43.3125 49.2188 43.3125 52.7812
Q43.3125 58.5938 39.2344 62.25
Q35.1562 65.9219 28.6094 65.9219
Q23.9688 65.9219 18.8125 64.3125
Q13.6719 62.7031 7.8125 59.4219
L7.8125 69.3906
Q13.7656 71.7812 18.9375 73
Q24.125 74.2188 28.4219 74.2188
Q39.75 74.2188 46.4844 68.5469
Q53.2188 62.8906 53.2188 53.4219
Q53.2188 48.9219 51.5312 44.8906
Q49.8594 40.875 45.4062 35.4062
Q44.1875 33.9844 37.6406 27.2188
Q31.1094 20.4531 19.1875 8.29688" id="BitstreamVeraSans-Roman-32"/>
      </defs>
      <g transform="translate(244.643625 411.42625)scale(0.12 -0.12)">
       <use xlink:href="#BitstreamVeraSans-Roman-32"/>
       <use x="63.623046875" xlink:href="#BitstreamVeraSans-Roman-30"/>
       <use x="127.24609375" xlink:href="#BitstreamVeraSans-Roman-30"/>
      </g>
     </g>
    </g>
    <g id="xtick_4">
     <g id="line2d_10">
      <defs>
       <path d="
M0 0
L0 -4" id="m1d6c4e73da"/>
      </defs>
      <g>
       <use style="stroke:#000000;stroke-linecap:butt;stroke-width:0.5;" x="346.212" xlink:href="#m1d6c4e73da" y="398.52"/>
      </g>
     </g>
     <g id="line2d_11">
      <defs>
       <path d="
M0 0
L0 4" id="m763cc79d7a"/>
      </defs>
      <g>
       <use style="stroke:#000000;stroke-linecap:butt;stroke-width:0.5;" x="346.212" xlink:href="#m763cc79d7a" y="44.28"/>
      </g>
     </g>
     <g id="text_4">
      <!-- 300 -->
      <defs>
       <path d="
M40.5781 39.3125
Q47.6562 37.7969 51.625 33
Q55.6094 28.2188 55.6094 21.1875
Q55.6094 10.4062 48.1875 4.48438
Q40.7656 -1.42188 27.0938 -1.42188
Q22.5156 -1.42188 17.6562 -0.515625
Q12.7969 0.390625 7.625 2.20312
L7.625 11.7188
Q11.7188 9.32812 16.5938 8.10938
Q21.4844 6.89062 26.8125 6.89062
Q36.0781 6.89062 40.9375 10.5469
Q45.7969 14.2031 45.7969 21.1875
Q45.7969 27.6406 41.2812 31.2656
Q36.7656 34.9062 28.7188 34.9062
L20.2188 34.9062
L20.2188 43.0156
L29.1094 43.0156
Q36.375 43.0156 40.2344 45.9219
Q44.0938 48.8281 44.0938 54.2969
Q44.0938 59.9062 40.1094 62.9062
Q36.1406 65.9219 28.7188 65.9219
Q24.6562 65.9219 20.0156 65.0312
Q15.375 64.1562 9.8125 62.3125
L9.8125 71.0938
Q15.4375 72.6562 20.3438 73.4375
Q25.25 74.2188 29.5938 74.2188
Q40.8281 74.2188 47.3594 69.1094
Q53.9062 64.0156 53.9062 55.3281
Q53.9062 49.2656 50.4375 45.0938
Q46.9688 40.9219 40.5781 39.3125" id="BitstreamVeraSans-Roman-33"/>
      </defs>
      <g transform="translate(335.6154375 411.42625)scale(0.12 -0.12)">
       <use xlink:href="#BitstreamVeraSans-Roman-33"/>
       <use x="63.623046875" xlink:href="#BitstreamVeraSans-Roman-30"/>
       <use x="127.24609375" xlink:href="#BitstreamVeraSans-Roman-30"/>
      </g>
     </g>
    </g>
    <g id="xtick_5">
     <g id="line2d_12">
      <defs>
       <path d="
M0 0
L0 -4" id="m1d6c4e73da"/>
      </defs>
      <g>
       <use style="stroke:#000000;stroke-linecap:butt;stroke-width:0.5;" x="437.166" xlink:href="#m1d6c4e73da" y="398.52"/>
      </g>
     </g>
     <g id="line2d_13">
      <defs>
       <path d="
M0 0
L0 4" id="m763cc79d7a"/>
      </defs>
      <g>
       <use style="stroke:#000000;stroke-linecap:butt;stroke-width:0.5;" x="437.166" xlink:href="#m763cc79d7a" y="44.28"/>
      </g>
     </g>
     <g id="text_5">
      <!-- 400 -->
      <defs>
       <path d="
M37.7969 64.3125
L12.8906 25.3906
L37.7969 25.3906
z

M35.2031 72.9062
L47.6094 72.9062
L47.6094 25.3906
L58.0156 25.3906
L58.0156 17.1875
L47.6094 17.1875
L47.6094 0
L37.7969 0
L37.7969 17.1875
L4.89062 17.1875
L4.89062 26.7031
z
" id="BitstreamVeraSans-Roman-34"/>
      </defs>
      <g transform="translate(426.405375 411.42625)scale(0.12 -0.12)">
       <use xlink:href="#BitstreamVeraSans-Roman-34"/>
       <use x="63.623046875" xlink:href="#BitstreamVeraSans-Roman-30"/>
       <use x="127.24609375" xlink:href="#BitstreamVeraSans-Roman-30"/>
      </g>
     </g>
    </g>
    <g id="xtick_6">
     <g id="line2d_14">
      <defs>
       <path d="
M0 0
L0 -4" id="m1d6c4e73da"/>
      </defs>
      <g>
       <use style="stroke:#000000;stroke-linecap:butt;stroke-width:0.5;" x="528.12" xlink:href="#m1d6c4e73da" y="398.52"/>
      </g>
     </g>
     <g id="line2d_15">
      <defs>
       <path d="
M0 0
L0 4" id="m763cc79d7a"/>
      </defs>
      <g>
       <use style="stroke:#000000;stroke-linecap:butt;stroke-width:0.5;" x="528.12" xlink:href="#m763cc79d7a" y="44.28"/>
      </g>
     </g>
     <g id="text_6">
      <!-- 500 -->
      <defs>
       <path d="
M10.7969 72.9062
L49.5156 72.9062
L49.5156 64.5938
L19.8281 64.5938
L19.8281 46.7344
Q21.9688 47.4688 24.1094 47.8281
Q26.2656 48.1875 28.4219 48.1875
Q40.625 48.1875 47.75 41.5
Q54.8906 34.8125 54.8906 23.3906
Q54.8906 11.625 47.5625 5.09375
Q40.2344 -1.42188 26.9062 -1.42188
Q22.3125 -1.42188 17.5469 -0.640625
Q12.7969 0.140625 7.71875 1.70312
L7.71875 11.625
Q12.1094 9.23438 16.7969 8.0625
Q21.4844 6.89062 26.7031 6.89062
Q35.1562 6.89062 40.0781 11.3281
Q45.0156 15.7656 45.0156 23.3906
Q45.0156 31 40.0781 35.4375
Q35.1562 39.8906 26.7031 39.8906
Q22.75 39.8906 18.8125 39.0156
Q14.8906 38.1406 10.7969 36.2812
z
" id="BitstreamVeraSans-Roman-35"/>
      </defs>
      <g transform="translate(517.5290625 411.42625)scale(0.12 -0.12)">
       <use xlink:href="#BitstreamVeraSans-Roman-35"/>
       <use x="63.623046875" xlink:href="#BitstreamVeraSans-Roman-30"/>
       <use x="127.24609375" xlink:href="#BitstreamVeraSans-Roman-30"/>
      </g>
     </g>
    </g>
    <g id="text_7">
     <!-- Time -->
     <defs>
      <path d="
M56.2031 29.5938
L56.2031 25.2031
L14.8906 25.2031
Q15.4844 15.9219 20.4844 11.0625
Q25.4844 6.20312 34.4219 6.20312
Q39.5938 6.20312 44.4531 7.46875
Q49.3125 8.73438 54.1094 11.2812
L54.1094 2.78125
Q49.2656 0.734375 44.1875 -0.34375
Q39.1094 -1.42188 33.8906 -1.42188
Q20.7969 -1.42188 13.1562 6.1875
Q5.51562 13.8125 5.51562 26.8125
Q5.51562 40.2344 12.7656 48.1094
Q20.0156 56 32.3281 56
Q43.3594 56 49.7812 48.8906
Q56.2031 41.7969 56.2031 29.5938
M47.2188 32.2344
Q47.125 39.5938 43.0938 43.9844
Q39.0625 48.3906 32.4219 48.3906
Q24.9062 48.3906 20.3906 44.1406
Q15.875 39.8906 15.1875 32.1719
z
" id="BitstreamVeraSans-Roman-65"/>
      <path d="
M9.42188 54.6875
L18.4062 54.6875
L18.4062 0
L9.42188 0
z

M9.42188 75.9844
L18.4062 75.9844
L18.4062 64.5938
L9.42188 64.5938
z
" id="BitstreamVeraSans-Roman-69"/>
      <path d="
M-0.296875 72.9062
L61.375 72.9062
L61.375 64.5938
L35.5 64.5938
L35.5 0
L25.5938 0
L25.5938 64.5938
L-0.296875 64.5938
z
" id="BitstreamVeraSans-Roman-54"/>
      <path d="
M52 44.1875
Q55.375 50.25 60.0625 53.125
Q64.75 56 71.0938 56
Q79.6406 56 84.2812 50.0156
Q88.9219 44.0469 88.9219 33.0156
L88.9219 0
L79.8906 0
L79.8906 32.7188
Q79.8906 40.5781 77.0938 44.375
Q74.3125 48.1875 68.6094 48.1875
Q61.625 48.1875 57.5625 43.5469
Q53.5156 38.9219 53.5156 30.9062
L53.5156 0
L44.4844 0
L44.4844 32.7188
Q44.4844 40.625 41.7031 44.4062
Q38.9219 48.1875 33.1094 48.1875
Q26.2188 48.1875 22.1562 43.5312
Q18.1094 38.875 18.1094 30.9062
L18.1094 0
L9.07812 0
L9.07812 54.6875
L18.1094 54.6875
L18.1094 46.1875
Q21.1875 51.2188 25.4844 53.6094
Q29.7812 56 35.6875 56
Q41.6562 56 45.8281 52.9688
Q50 49.9531 52 44.1875" id="BitstreamVeraSans-Roman-6d"/>
     </defs>
     <g transform="translate(286.3565625 425.715)scale(0.12 -0.12)">
      <use xlink:href="#BitstreamVeraSans-Roman-54"/>
      <use x="57.958984375" xlink:href="#BitstreamVeraSans-Roman-69"/>
      <use x="85.7421875" xlink:href="#BitstreamVeraSans-Roman-6d"/>
      <use x="183.154296875" xlink:href="#BitstreamVeraSans-Roman-65"/>
     </g>
    </g>
   </g>
   <g id="matplotlib.axis_2">
    <g id="ytick_1">
     <g id="line2d_16">
      <defs>
       <path d="
M0 0
L4 0" id="mb2d347af78"/>
      </defs>
      <g>
       <use style="stroke:#000000;stroke-linecap:butt;stroke-width:0.5;" x="73.35" xlink:href="#mb2d347af78" y="398.52"/>
      </g>
     </g>
     <g id="line2d_17">
      <defs>
       <path d="
M0 0
L-4 0" id="m16ceb80ea5"/>
      </defs>
      <g>
       <use style="stroke:#000000;stroke-linecap:butt;stroke-width:0.5;" x="528.12" xlink:href="#m16ceb80ea5" y="398.52"/>
      </g>
     </g>
     <g id="text_8">
      <!-- 0 -->
      <g transform="translate(63.303125 402.8878125)scale(0.12 -0.12)">
       <use xlink:href="#BitstreamVeraSans-Roman-30"/>
      </g>
     </g>
    </g>
    <g id="ytick_2">
     <g id="line2d_18">
      <defs>
       <path d="
M0 0
L4 0" id="mb2d347af78"/>
      </defs>
      <g>
       <use style="stroke:#000000;stroke-linecap:butt;stroke-width:0.5;" x="73.35" xlink:href="#mb2d347af78" y="347.914285714"/>
      </g>
     </g>
     <g id="line2d_19">
      <defs>
       <path d="
M0 0
L-4 0" id="m16ceb80ea5"/>
      </defs>
      <g>
       <use style="stroke:#000000;stroke-linecap:butt;stroke-width:0.5;" x="528.12" xlink:href="#m16ceb80ea5" y="347.914285714"/>
      </g>
     </g>
     <g id="text_9">
      <!-- 5 -->
      <g transform="translate(63.689375 352.203348214)scale(0.12 -0.12)">
       <use xlink:href="#BitstreamVeraSans-Roman-35"/>
      </g>
     </g>
    </g>
    <g id="ytick_3">
     <g id="line2d_20">
      <defs>
       <path d="
M0 0
L4 0" id="mb2d347af78"/>
      </defs>
      <g>
       <use style="stroke:#000000;stroke-linecap:butt;stroke-width:0.5;" x="73.35" xlink:href="#mb2d347af78" y="297.308571429"/>
      </g>
     </g>
     <g id="line2d_21">
      <defs>
       <path d="
M0 0
L-4 0" id="m16ceb80ea5"/>
      </defs>
      <g>
       <use style="stroke:#000000;stroke-linecap:butt;stroke-width:0.5;" x="528.12" xlink:href="#m16ceb80ea5" y="297.308571429"/>
      </g>
     </g>
     <g id="text_10">
      <!-- 10 -->
      <g transform="translate(56.195 301.676383929)scale(0.12 -0.12)">
       <use xlink:href="#BitstreamVeraSans-Roman-31"/>
       <use x="63.623046875" xlink:href="#BitstreamVeraSans-Roman-30"/>
      </g>
     </g>
    </g>
    <g id="ytick_4">
     <g id="line2d_22">
      <defs>
       <path d="
M0 0
L4 0" id="mb2d347af78"/>
      </defs>
      <g>
       <use style="stroke:#000000;stroke-linecap:butt;stroke-width:0.5;" x="73.35" xlink:href="#mb2d347af78" y="246.702857143"/>
      </g>
     </g>
     <g id="line2d_23">
      <defs>
       <path d="
M0 0
L-4 0" id="m16ceb80ea5"/>
      </defs>
      <g>
       <use style="stroke:#000000;stroke-linecap:butt;stroke-width:0.5;" x="528.12" xlink:href="#m16ceb80ea5" y="246.702857143"/>
      </g>
     </g>
     <g id="text_11">
      <!-- 15 -->
      <g transform="translate(56.44625 250.991919643)scale(0.12 -0.12)">
       <use xlink:href="#BitstreamVeraSans-Roman-31"/>
       <use x="63.623046875" xlink:href="#BitstreamVeraSans-Roman-35"/>
      </g>
     </g>
    </g>
    <g id="ytick_5">
     <g id="line2d_24">
      <defs>
       <path d="
M0 0
L4 0" id="mb2d347af78"/>
      </defs>
      <g>
       <use style="stroke:#000000;stroke-linecap:butt;stroke-width:0.5;" x="73.35" xlink:href="#mb2d347af78" y="196.097142857"/>
      </g>
     </g>
     <g id="line2d_25">
      <defs>
       <path d="
M0 0
L-4 0" id="m16ceb80ea5"/>
      </defs>
      <g>
       <use style="stroke:#000000;stroke-linecap:butt;stroke-width:0.5;" x="528.12" xlink:href="#m16ceb80ea5" y="196.097142857"/>
      </g>
     </g>
     <g id="text_12">
      <!-- 20 -->
      <g transform="translate(55.75625 200.464955357)scale(0.12 -0.12)">
       <use xlink:href="#BitstreamVeraSans-Roman-32"/>
       <use x="63.623046875" xlink:href="#BitstreamVeraSans-Roman-30"/>
      </g>
     </g>
    </g>
    <g id="ytick_6">
     <g id="line2d_26">
      <defs>
       <path d="
M0 0
L4 0" id="mb2d347af78"/>
      </defs>
      <g>
       <use style="stroke:#000000;stroke-linecap:butt;stroke-width:0.5;" x="73.35" xlink:href="#mb2d347af78" y="145.491428571"/>
      </g>
     </g>
     <g id="line2d_27">
      <defs>
       <path d="
M0 0
L-4 0" id="m16ceb80ea5"/>
      </defs>
      <g>
       <use style="stroke:#000000;stroke-linecap:butt;stroke-width:0.5;" x="528.12" xlink:href="#m16ceb80ea5" y="145.491428571"/>
      </g>
     </g>
     <g id="text_13">
      <!-- 25 -->
      <g transform="translate(56.0075 149.859241071)scale(0.12 -0.12)">
       <use xlink:href="#BitstreamVeraSans-Roman-32"/>
       <use x="63.623046875" xlink:href="#BitstreamVeraSans-Roman-35"/>
      </g>
     </g>
    </g>
    <g id="ytick_7">
     <g id="line2d_28">
      <defs>
       <path d="
M0 0
L4 0" id="mb2d347af78"/>
      </defs>
      <g>
       <use style="stroke:#000000;stroke-linecap:butt;stroke-width:0.5;" x="73.35" xlink:href="#mb2d347af78" y="94.8857142857"/>
      </g>
     </g>
     <g id="line2d_29">
      <defs>
       <path d="
M0 0
L-4 0" id="m16ceb80ea5"/>
      </defs>
      <g>
       <use style="stroke:#000000;stroke-linecap:butt;stroke-width:0.5;" x="528.12" xlink:href="#m16ceb80ea5" y="94.8857142857"/>
      </g>
     </g>
     <g id="text_14">
      <!-- 30 -->
      <g transform="translate(55.791875 99.2535267857)scale(0.12 -0.12)">
       <use xlink:href="#BitstreamVeraSans-Roman-33"/>
       <use x="63.623046875" xlink:href="#BitstreamVeraSans-Roman-30"/>
      </g>
     </g>
    </g>
    <g id="ytick_8">
     <g id="line2d_30">
      <defs>
       <path d="
M0 0
L4 0" id="mb2d347af78"/>
      </defs>
      <g>
       <use style="stroke:#000000;stroke-linecap:butt;stroke-width:0.5;" x="73.35" xlink:href="#mb2d347af78" y="44.28"/>
      </g>
     </g>
     <g id="line2d_31">
      <defs>
       <path d="
M0 0
L-4 0" id="m16ceb80ea5"/>
      </defs>
      <g>
       <use style="stroke:#000000;stroke-linecap:butt;stroke-width:0.5;" x="528.12" xlink:href="#m16ceb80ea5" y="44.28"/>
      </g>
     </g>
     <g id="text_15">
      <!-- 35 -->
      <g transform="translate(56.043125 48.6478125)scale(0.12 -0.12)">
       <use xlink:href="#BitstreamVeraSans-Roman-33"/>
       <use x="63.623046875" xlink:href="#BitstreamVeraSans-Roman-35"/>
      </g>
     </g>
    </g>
    <g id="text_16">
     <!-- Distance from Origin -->
     <defs>
      <path id="BitstreamVeraSans-Roman-20"/>
      <path d="
M39.4062 66.2188
Q28.6562 66.2188 22.3281 58.2031
Q16.0156 50.2031 16.0156 36.375
Q16.0156 22.6094 22.3281 14.5938
Q28.6562 6.59375 39.4062 6.59375
Q50.1406 6.59375 56.4219 14.5938
Q62.7031 22.6094 62.7031 36.375
Q62.7031 50.2031 56.4219 58.2031
Q50.1406 66.2188 39.4062 66.2188
M39.4062 74.2188
Q54.7344 74.2188 63.9062 63.9375
Q73.0938 53.6562 73.0938 36.375
Q73.0938 19.1406 63.9062 8.85938
Q54.7344 -1.42188 39.4062 -1.42188
Q24.0312 -1.42188 14.8125 8.82812
Q5.60938 19.0938 5.60938 36.375
Q5.60938 53.6562 14.8125 63.9375
Q24.0312 74.2188 39.4062 74.2188" id="BitstreamVeraSans-Roman-4f"/>
      <path d="
M54.8906 33.0156
L54.8906 0
L45.9062 0
L45.9062 32.7188
Q45.9062 40.4844 42.875 44.3281
Q39.8438 48.1875 33.7969 48.1875
Q26.5156 48.1875 22.3125 43.5469
Q18.1094 38.9219 18.1094 30.9062
L18.1094 0
L9.07812 0
L9.07812 54.6875
L18.1094 54.6875
L18.1094 46.1875
Q21.3438 51.125 25.7031 53.5625
Q30.0781 56 35.7969 56
Q45.2188 56 50.0469 50.1719
Q54.8906 44.3438 54.8906 33.0156" id="BitstreamVeraSans-Roman-6e"/>
      <path d="
M41.1094 46.2969
Q39.5938 47.1719 37.8125 47.5781
Q36.0312 48 33.8906 48
Q26.2656 48 22.1875 43.0469
Q18.1094 38.0938 18.1094 28.8125
L18.1094 0
L9.07812 0
L9.07812 54.6875
L18.1094 54.6875
L18.1094 46.1875
Q20.9531 51.1719 25.4844 53.5781
Q30.0312 56 36.5312 56
Q37.4531 56 38.5781 55.875
Q39.7031 55.7656 41.0625 55.5156
z
" id="BitstreamVeraSans-Roman-72"/>
      <path d="
M30.6094 48.3906
Q23.3906 48.3906 19.1875 42.75
Q14.9844 37.1094 14.9844 27.2969
Q14.9844 17.4844 19.1562 11.8438
Q23.3438 6.20312 30.6094 6.20312
Q37.7969 6.20312 41.9844 11.8594
Q46.1875 17.5312 46.1875 27.2969
Q46.1875 37.0156 41.9844 42.7031
Q37.7969 48.3906 30.6094 48.3906
M30.6094 56
Q42.3281 56 49.0156 48.375
Q55.7188 40.7656 55.7188 27.2969
Q55.7188 13.875 49.0156 6.21875
Q42.3281 -1.42188 30.6094 -1.42188
Q18.8438 -1.42188 12.1719 6.21875
Q5.51562 13.875 5.51562 27.2969
Q5.51562 40.7656 12.1719 48.375
Q18.8438 56 30.6094 56" id="BitstreamVeraSans-Roman-6f"/>
      <path d="
M19.6719 64.7969
L19.6719 8.10938
L31.5938 8.10938
Q46.6875 8.10938 53.6875 14.9375
Q60.6875 21.7812 60.6875 36.5312
Q60.6875 51.1719 53.6875 57.9844
Q46.6875 64.7969 31.5938 64.7969
z

M9.8125 72.9062
L30.0781 72.9062
Q51.2656 72.9062 61.1719 64.0938
Q71.0938 55.2812 71.0938 36.5312
Q71.0938 17.6719 61.125 8.82812
Q51.1719 0 30.0781 0
L9.8125 0
z
" id="BitstreamVeraSans-Roman-44"/>
      <path d="
M45.4062 27.9844
Q45.4062 37.75 41.375 43.1094
Q37.3594 48.4844 30.0781 48.4844
Q22.8594 48.4844 18.8281 43.1094
Q14.7969 37.75 14.7969 27.9844
Q14.7969 18.2656 18.8281 12.8906
Q22.8594 7.51562 30.0781 7.51562
Q37.3594 7.51562 41.375 12.8906
Q45.4062 18.2656 45.4062 27.9844
M54.3906 6.78125
Q54.3906 -7.17188 48.1875 -13.9844
Q42 -20.7969 29.2031 -20.7969
Q24.4688 -20.7969 20.2656 -20.0938
Q16.0625 -19.3906 12.1094 -17.9219
L12.1094 -9.1875
Q16.0625 -11.3281 19.9219 -12.3438
Q23.7812 -13.375 27.7812 -13.375
Q36.625 -13.375 41.0156 -8.76562
Q45.4062 -4.15625 45.4062 5.17188
L45.4062 9.625
Q42.625 4.78125 38.2812 2.39062
Q33.9375 0 27.875 0
Q17.8281 0 11.6719 7.65625
Q5.51562 15.3281 5.51562 27.9844
Q5.51562 40.6719 11.6719 48.3281
Q17.8281 56 27.875 56
Q33.9375 56 38.2812 53.6094
Q42.625 51.2188 45.4062 46.3906
L45.4062 54.6875
L54.3906 54.6875
z
" id="BitstreamVeraSans-Roman-67"/>
      <path d="
M18.3125 70.2188
L18.3125 54.6875
L36.8125 54.6875
L36.8125 47.7031
L18.3125 47.7031
L18.3125 18.0156
Q18.3125 11.3281 20.1406 9.42188
Q21.9688 7.51562 27.5938 7.51562
L36.8125 7.51562
L36.8125 0
L27.5938 0
Q17.1875 0 13.2344 3.875
Q9.28125 7.76562 9.28125 18.0156
L9.28125 47.7031
L2.6875 47.7031
L2.6875 54.6875
L9.28125 54.6875
L9.28125 70.2188
z
" id="BitstreamVeraSans-Roman-74"/>
      <path d="
M37.1094 75.9844
L37.1094 68.5
L28.5156 68.5
Q23.6875 68.5 21.7969 66.5469
Q19.9219 64.5938 19.9219 59.5156
L19.9219 54.6875
L34.7188 54.6875
L34.7188 47.7031
L19.9219 47.7031
L19.9219 0
L10.8906 0
L10.8906 47.7031
L2.29688 47.7031
L2.29688 54.6875
L10.8906 54.6875
L10.8906 58.5
Q10.8906 67.625 15.1406 71.7969
Q19.3906 75.9844 28.6094 75.9844
z
" id="BitstreamVeraSans-Roman-66"/>
      <path d="
M34.2812 27.4844
Q23.3906 27.4844 19.1875 25
Q14.9844 22.5156 14.9844 16.5
Q14.9844 11.7188 18.1406 8.90625
Q21.2969 6.10938 26.7031 6.10938
Q34.1875 6.10938 38.7031 11.4062
Q43.2188 16.7031 43.2188 25.4844
L43.2188 27.4844
z

M52.2031 31.2031
L52.2031 0
L43.2188 0
L43.2188 8.29688
Q40.1406 3.32812 35.5469 0.953125
Q30.9531 -1.42188 24.3125 -1.42188
Q15.9219 -1.42188 10.9531 3.29688
Q6 8.01562 6 15.9219
Q6 25.1406 12.1719 29.8281
Q18.3594 34.5156 30.6094 34.5156
L43.2188 34.5156
L43.2188 35.4062
Q43.2188 41.6094 39.1406 45
Q35.0625 48.3906 27.6875 48.3906
Q23 48.3906 18.5469 47.2656
Q14.1094 46.1406 10.0156 43.8906
L10.0156 52.2031
Q14.9375 54.1094 19.5781 55.0469
Q24.2188 56 28.6094 56
Q40.4844 56 46.3438 49.8438
Q52.2031 43.7031 52.2031 31.2031" id="BitstreamVeraSans-Roman-61"/>
      <path d="
M44.2812 53.0781
L44.2812 44.5781
Q40.4844 46.5312 36.375 47.5
Q32.2812 48.4844 27.875 48.4844
Q21.1875 48.4844 17.8438 46.4375
Q14.5 44.3906 14.5 40.2812
Q14.5 37.1562 16.8906 35.375
Q19.2812 33.5938 26.5156 31.9844
L29.5938 31.2969
Q39.1562 29.25 43.1875 25.5156
Q47.2188 21.7812 47.2188 15.0938
Q47.2188 7.46875 41.1875 3.01562
Q35.1562 -1.42188 24.6094 -1.42188
Q20.2188 -1.42188 15.4531 -0.5625
Q10.6875 0.296875 5.42188 2
L5.42188 11.2812
Q10.4062 8.6875 15.2344 7.39062
Q20.0625 6.10938 24.8125 6.10938
Q31.1562 6.10938 34.5625 8.28125
Q37.9844 10.4531 37.9844 14.4062
Q37.9844 18.0625 35.5156 20.0156
Q33.0625 21.9688 24.7031 23.7812
L21.5781 24.5156
Q13.2344 26.2656 9.51562 29.9062
Q5.8125 33.5469 5.8125 39.8906
Q5.8125 47.6094 11.2812 51.7969
Q16.75 56 26.8125 56
Q31.7812 56 36.1719 55.2656
Q40.5781 54.5469 44.2812 53.0781" id="BitstreamVeraSans-Roman-73"/>
      <path d="
M48.7812 52.5938
L48.7812 44.1875
Q44.9688 46.2969 41.1406 47.3438
Q37.3125 48.3906 33.4062 48.3906
Q24.6562 48.3906 19.8125 42.8438
Q14.9844 37.3125 14.9844 27.2969
Q14.9844 17.2812 19.8125 11.7344
Q24.6562 6.20312 33.4062 6.20312
Q37.3125 6.20312 41.1406 7.25
Q44.9688 8.29688 48.7812 10.4062
L48.7812 2.09375
Q45.0156 0.34375 40.9844 -0.53125
Q36.9688 -1.42188 32.4219 -1.42188
Q20.0625 -1.42188 12.7812 6.34375
Q5.51562 14.1094 5.51562 27.2969
Q5.51562 40.6719 12.8594 48.3281
Q20.2188 56 33.0156 56
Q37.1562 56 41.1094 55.1406
Q45.0625 54.2969 48.7812 52.5938" id="BitstreamVeraSans-Roman-63"/>
     </defs>
     <g transform="translate(50.75625 280.5384375)rotate(-90.0)scale(0.12 -0.12)">
      <use xlink:href="#BitstreamVeraSans-Roman-44"/>
      <use x="77.001953125" xlink:href="#BitstreamVeraSans-Roman-69"/>
      <use x="104.78515625" xlink:href="#BitstreamVeraSans-Roman-73"/>
      <use x="156.884765625" xlink:href="#BitstreamVeraSans-Roman-74"/>
      <use x="196.09375" xlink:href="#BitstreamVeraSans-Roman-61"/>
      <use x="257.373046875" xlink:href="#BitstreamVeraSans-Roman-6e"/>
      <use x="320.751953125" xlink:href="#BitstreamVeraSans-Roman-63"/>
      <use x="375.732421875" xlink:href="#BitstreamVeraSans-Roman-65"/>
      <use x="437.255859375" xlink:href="#BitstreamVeraSans-Roman-20"/>
      <use x="469.04296875" xlink:href="#BitstreamVeraSans-Roman-66"/>
      <use x="504.248046875" xlink:href="#BitstreamVeraSans-Roman-72"/>
      <use x="543.111328125" xlink:href="#BitstreamVeraSans-Roman-6f"/>
      <use x="604.29296875" xlink:href="#BitstreamVeraSans-Roman-6d"/>
      <use x="701.705078125" xlink:href="#BitstreamVeraSans-Roman-20"/>
      <use x="733.4921875" xlink:href="#BitstreamVeraSans-Roman-4f"/>
      <use x="812.203125" xlink:href="#BitstreamVeraSans-Roman-72"/>
      <use x="853.31640625" xlink:href="#BitstreamVeraSans-Roman-69"/>
      <use x="881.099609375" xlink:href="#BitstreamVeraSans-Roman-67"/>
      <use x="944.576171875" xlink:href="#BitstreamVeraSans-Roman-69"/>
      <use x="972.359375" xlink:href="#BitstreamVeraSans-Roman-6e"/>
     </g>
    </g>
   </g>
   <g id="patch_3">
    <path d="
M73.35 44.28
L528.12 44.28" style="fill:none;stroke:#000000;"/>
   </g>
   <g id="patch_4">
    <path d="
M528.12 398.52
L528.12 44.28" style="fill:none;stroke:#000000;"/>
   </g>
   <g id="patch_5">
    <path d="
M73.35 398.52
L528.12 398.52" style="fill:none;stroke:#000000;"/>
   </g>
   <g id="patch_6">
    <path d="
M73.35 398.52
L73.35 44.28" style="fill:none;stroke:#000000;"/>
   </g>
   <g id="text_17">
    <!-- UsualDrunk in 3 Trials -->
    <defs>
     <path d="
M8.5 21.5781
L8.5 54.6875
L17.4844 54.6875
L17.4844 21.9219
Q17.4844 14.1562 20.5 10.2656
Q23.5312 6.39062 29.5938 6.39062
Q36.8594 6.39062 41.0781 11.0312
Q45.3125 15.6719 45.3125 23.6875
L45.3125 54.6875
L54.2969 54.6875
L54.2969 0
L45.3125 0
L45.3125 8.40625
Q42.0469 3.42188 37.7188 1
Q33.4062 -1.42188 27.6875 -1.42188
Q18.2656 -1.42188 13.375 4.4375
Q8.5 10.2969 8.5 21.5781" id="BitstreamVeraSans-Roman-75"/>
     <path d="
M8.6875 72.9062
L18.6094 72.9062
L18.6094 28.6094
Q18.6094 16.8906 22.8438 11.7344
Q27.0938 6.59375 36.625 6.59375
Q46.0938 6.59375 50.3438 11.7344
Q54.5938 16.8906 54.5938 28.6094
L54.5938 72.9062
L64.5 72.9062
L64.5 27.3906
Q64.5 13.1406 57.4375 5.85938
Q50.3906 -1.42188 36.625 -1.42188
Q22.7969 -1.42188 15.7344 5.85938
Q8.6875 13.1406 8.6875 27.3906
z
" id="BitstreamVeraSans-Roman-55"/>
     <path d="
M9.42188 75.9844
L18.4062 75.9844
L18.4062 0
L9.42188 0
z
" id="BitstreamVeraSans-Roman-6c"/>
     <path d="
M9.07812 75.9844
L18.1094 75.9844
L18.1094 31.1094
L44.9219 54.6875
L56.3906 54.6875
L27.3906 29.1094
L57.625 0
L45.9062 0
L18.1094 26.7031
L18.1094 0
L9.07812 0
z
" id="BitstreamVeraSans-Roman-6b"/>
    </defs>
    <g transform="translate(222.823125 39.28)scale(0.144 -0.144)">
     <use xlink:href="#BitstreamVeraSans-Roman-55"/>
     <use x="73.193359375" xlink:href="#BitstreamVeraSans-Roman-73"/>
     <use x="125.29296875" xlink:href="#BitstreamVeraSans-Roman-75"/>
     <use x="188.671875" xlink:href="#BitstreamVeraSans-Roman-61"/>
     <use x="249.951171875" xlink:href="#BitstreamVeraSans-Roman-6c"/>
     <use x="277.734375" xlink:href="#BitstreamVeraSans-Roman-44"/>
     <use x="354.736328125" xlink:href="#BitstreamVeraSans-Roman-72"/>
     <use x="395.849609375" xlink:href="#BitstreamVeraSans-Roman-75"/>
     <use x="459.228515625" xlink:href="#BitstreamVeraSans-Roman-6e"/>
     <use x="522.607421875" xlink:href="#BitstreamVeraSans-Roman-6b"/>
     <use x="580.517578125" xlink:href="#BitstreamVeraSans-Roman-20"/>
     <use x="612.3046875" xlink:href="#BitstreamVeraSans-Roman-69"/>
     <use x="640.087890625" xlink:href="#BitstreamVeraSans-Roman-6e"/>
     <use x="703.466796875" xlink:href="#BitstreamVeraSans-Roman-20"/>
     <use x="735.25390625" xlink:href="#BitstreamVeraSans-Roman-33"/>
     <use x="798.876953125" xlink:href="#BitstreamVeraSans-Roman-20"/>
     <use x="830.6640625" xlink:href="#BitstreamVeraSans-Roman-54"/>
     <use x="876.998046875" xlink:href="#BitstreamVeraSans-Roman-72"/>
     <use x="918.111328125" xlink:href="#BitstreamVeraSans-Roman-69"/>
     <use x="945.89453125" xlink:href="#BitstreamVeraSans-Roman-61"/>
     <use x="1007.17382812" xlink:href="#BitstreamVeraSans-Roman-6c"/>
     <use x="1034.95703125" xlink:href="#BitstreamVeraSans-Roman-73"/>
    </g>
   </g>
  </g>
 </g>
 <defs>
  <clipPath id="p9061672a36">
   <rect height="354.24" width="454.77" x="73.35" y="44.28"/>
  </clipPath>
 </defs>
</svg>
