<?xml version="1.0" encoding="utf-8" standalone="no"?>
<!DOCTYPE svg PUBLIC "-//W3C//DTD SVG 1.1//EN"
  "http://www.w3.org/Graphics/SVG/1.1/DTD/svg11.dtd">
<!-- Created with matplotlib (http://matplotlib.sourceforge.net/) -->
<svg height="442pt" version="1.1" viewBox="0 0 586 442" width="586pt" xmlns="http://www.w3.org/2000/svg" xmlns:xlink="http://www.w3.org/1999/xlink">
 <defs>
  <style type="text/css">
*{stroke-linecap:square;stroke-linejoin:round;}
  </style>
 </defs>
 <g id="figure_1">
  <g id="patch_1">
   <path d="
M0 442.8
L586.8 442.8
L586.8 0
L0 0
z
" style="fill:#ffffff;"/>
  </g>
  <g id="axes_1">
   <g id="patch_2">
    <path d="
M73.35 398.52
L528.12 398.52
L528.12 44.28
L73.35 44.28
z
" style="fill:#ffffff;"/>
   </g>
   <g id="line2d_1">
    <path clip-path="url(#p9061672a36)" d="
M73.35 398.52
L74.2595 380.808
L75.1691 377.784
L76.0786 370.321
L76.9882 367.463
L77.8977 362.347
L78.8072 360.276
L80.6263 353.734
L81.5359 351.622
L83.3549 345.896
L84.2645 343.456
L85.174 340.322
L87.9026 336.121
L88.8122 333.666
L89.7217 333.782
L90.6313 330.004
L91.5408 328.342
L92.4503 327.208
L94.2694 323.193
L95.179 322.137
L96.998 319.052
L97.9076 317.828
L99.7267 313.34
L100.636 312.246
L101.546 310.464
L103.365 305.886
L104.274 304.993
L107.003 299.754
L107.913 299.565
L108.822 297.833
L109.732 298.228
L110.641 295.789
L111.551 295.083
L112.46 294.593
L113.37 293.599
L114.279 291.801
L115.189 290.365
L117.008 288.917
L117.917 286.979
L118.827 285.95
L119.737 284.291
L120.646 284.505
L121.556 283.946
L123.375 282.418
L124.284 281.043
L125.194 280.239
L126.103 278.997
L127.013 276.091
L128.832 272.952
L130.651 271.269
L131.561 269.698
L132.47 268.801
L133.38 267.664
L135.199 263.921
L136.108 262.242
L137.927 264.005
L138.837 262.747
L139.746 260.74
L142.475 259.628
L143.385 257.267
L144.294 256.958
L145.204 255.842
L146.113 255.701
L147.023 255.711
L147.932 255.134
L148.842 252.695
L150.661 249.559
L151.57 249.959
L152.48 249.617
L153.39 247.911
L154.299 247.711
L157.028 245.719
L157.937 243.989
L158.847 242.756
L160.666 240.934
L161.575 240.172
L162.485 240.447
L163.394 240.143
L164.304 238.407
L166.123 236.728
L167.033 235.016
L168.852 235.197
L171.58 233
L172.49 230.256
L173.399 228.299
L175.218 227.504
L176.128 225.64
L177.038 224.631
L177.947 222.809
L178.857 222.056
L179.766 220.934
L180.676 220.406
L181.585 220.392
L182.495 220.053
L183.404 219.537
L184.314 219.377
L185.223 218.83
L186.133 219.32
L187.043 218.01
L187.952 218.084
L188.862 217.217
L189.771 215.856
L190.681 215.183
L191.59 213.512
L192.5 211.371
L193.409 210.845
L194.319 210.144
L195.228 210.814
L196.138 210.001
L197.047 209.014
L197.957 208.799
L198.867 208.036
L199.776 206.468
L200.686 206.948
L201.595 206.362
L202.505 205.275
L203.414 203.545
L204.324 202.271
L205.233 202.871
L206.143 203.642
L207.052 202.251
L207.962 200.382
L208.871 197.263
L209.781 196.85
L212.51 199.096
L213.419 198.845
L214.329 198.023
L215.238 196.359
L216.148 196.737
L217.967 194.163
L218.876 193.937
L219.786 192.843
L220.695 194.232
L221.605 193.714
L222.515 192.201
L223.424 191.894
L224.334 190.827
L225.243 190.288
L226.153 190.005
L227.062 190.572
L227.972 190.923
L229.791 188.283
L230.7 188.617
L231.61 188.535
L232.52 187.211
L233.429 187.785
L234.339 188.534
L235.248 187.628
L236.158 186.171
L237.067 186.358
L237.977 187.549
L238.886 187.293
L239.796 186.043
L240.705 185.391
L241.615 184.005
L242.524 183.612
L243.434 183.467
L244.344 182.555
L245.253 183.336
L246.163 182.641
L247.072 181.431
L247.982 181.403
L248.891 181.581
L249.801 182.664
L250.71 182.574
L251.62 181.396
L252.529 180.481
L253.439 178.521
L254.348 178.678
L255.258 177.459
L256.168 177.601
L257.077 177.387
L258.896 173.765
L259.806 172.82
L260.715 172.486
L261.625 172.912
L263.444 170.934
L264.353 170.988
L265.263 168.938
L267.082 169.902
L267.992 169.557
L268.901 168.852
L269.811 169.053
L270.72 168.728
L271.63 167.85
L272.539 167.627
L273.449 167.271
L275.268 164.706
L276.177 164.966
L277.087 163.062
L277.997 162.554
L279.816 160.12
L280.725 160.21
L281.635 159.403
L282.544 160.177
L283.454 160.246
L284.363 159.536
L285.273 159.073
L286.182 159.781
L287.092 160.302
L288.911 159.551
L289.821 158.768
L290.73 159.602
L291.64 158.115
L292.549 158.706
L293.459 157.225
L294.368 157.275
L295.278 155.527
L296.187 155.153
L297.097 153.861
L298.006 154.91
L298.916 154.059
L299.825 152.988
L300.735 152.717
L301.645 151.696
L303.464 151.449
L304.373 151.401
L305.283 152.034
L306.192 151.816
L307.102 150.979
L308.011 150.419
L308.921 150.99
L309.83 149.016
L310.74 149.524
L312.559 146.236
L313.469 145.299
L315.288 145.187
L316.197 144.117
L317.107 144.716
L318.016 145.064
L318.926 145.731
L319.835 145.79
L320.745 145.274
L322.564 142.17
L323.474 141.038
L324.383 141.332
L325.293 142.312
L326.202 140.664
L327.112 138.067
L328.021 136.998
L328.931 137.611
L329.84 136.233
L330.75 135.322
L332.569 132.371
L333.478 132.491
L334.388 132.497
L335.298 132.733
L336.207 132.234
L337.117 132.899
L338.026 131.184
L338.936 129.885
L339.845 130.196
L340.755 132.508
L341.664 131.808
L342.574 131.564
L343.483 131.482
L344.393 130.598
L345.302 131.397
L346.212 131.141
L347.122 132.128
L348.031 131.617
L348.941 131.647
L349.85 130.085
L350.76 129.869
L351.669 128.924
L352.579 130.13
L353.488 130.678
L354.398 130.912
L355.307 131.897
L356.217 131.076
L357.126 129.772
L358.036 129.114
L358.946 127.663
L359.855 127.216
L360.765 127.085
L361.674 128.228
L362.584 126.401
L363.493 126.86
L365.312 126.999
L366.222 127.434
L367.131 126.758
L368.041 125.492
L368.951 123.98
L369.86 123.234
L370.77 122.194
L371.679 121.633
L372.589 120.146
L373.498 120.408
L374.408 119.812
L375.317 120.134
L376.227 119.614
L377.136 118.661
L378.046 119.863
L378.955 119.226
L379.865 119.074
L380.775 119.406
L382.594 118.814
L383.503 119.41
L384.413 119.535
L385.322 119.28
L386.232 118.696
L387.141 118.613
L388.051 119.253
L388.96 118.573
L389.87 116.88
L391.689 115.626
L392.599 115.435
L393.508 115.446
L394.418 115.79
L395.327 115.777
L396.237 115.283
L397.146 115.163
L398.056 115.495
L398.965 115.143
L399.875 115.977
L400.784 115.67
L401.694 114.586
L402.603 112.792
L403.513 111.947
L404.423 111.656
L405.332 111.093
L406.242 109.8
L407.151 110.706
L408.061 109.494
L410.789 107.483
L411.699 106.628
L412.608 106.453
L413.518 104.257
L415.337 103.437
L417.156 104.167
L418.066 105.477
L418.975 105.045
L419.885 103.682
L420.794 104.76
L421.704 104.636
L422.613 104.033
L423.523 103.665
L425.342 101.655
L426.252 102.403
L427.161 103.308
L428.071 102.16
L428.98 101.385
L430.799 101.27
L431.709 100.63
L432.618 101.328
L433.528 100.545
L434.437 101.923
L435.347 102.181
L436.256 100.878
L437.166 100.902
L438.076 100.175
L438.985 99.603
L439.895 100.287
L440.804 98.3405
L441.714 97.7077
L442.623 99.7622
L443.533 97.736
L445.352 97.8811
L446.261 96.1023
L447.171 95.7279
L448.08 93.9703
L448.99 94.0456
L449.9 93.6395
L450.809 92.8724
L451.719 92.6284
L452.628 91.9587
L453.538 92.2905
L454.447 91.7123
L455.357 92.5339
L456.266 91.808
L457.176 89.1208
L458.085 90.2716
L458.995 88.5594
L459.905 88.1156
L460.814 88.3433
L461.724 87.9555
L462.633 87.6977
L463.543 87.6173
L464.452 88.3583
L466.271 89.4937
L467.181 89.2517
L468.09 87.5077
L469 86.3643
L469.909 85.4874
L470.819 87.2245
L471.729 87.4311
L472.638 87.2314
L473.548 87.6281
L474.457 87.3837
L475.367 86.5711
L476.276 85.191
L477.186 85.7639
L478.095 86.022
L479.005 85.5172
L479.914 84.8848
L480.824 85.7885
L481.733 85.9358
L482.643 86.6623
L483.553 85.8961
L484.462 84.9499
L485.372 84.2918
L487.191 82.4023
L488.1 81.5956
L489.01 80.4503
L489.919 78.3524
L492.648 77.3582
L493.557 76.9041
L494.467 77.0374
L496.286 76.9854
L497.196 77.0897
L499.015 74.5871
L499.924 73.9098
L500.834 73.885
L501.743 74.6008
L502.653 74.3086
L503.562 75.1261
L505.382 71.543
L506.291 70.6583
L507.201 71.1794
L508.11 69.5902
L509.02 69.7386
L509.929 68.7271
L510.839 68.3161
L511.748 68.4685
L512.658 67.8831
L513.567 66.6698
L514.477 66.6967
L516.296 65.7596
L517.206 65.0633
L518.115 63.4769
L519.025 61.1359
L520.844 60.132
L521.753 60.0211
L522.663 60.5991
L525.391 58.8825
L526.301 58.6384
L527.21 57.9129
L528.12 58.1965
L528.12 58.1965" style="fill:none;stroke:#0000ff;"/>
   </g>
   <g id="matplotlib.axis_1">
    <g id="xtick_1">
     <g id="line2d_2">
      <defs>
       <path d="
M0 0
L0 -4" id="m39a0496978"/>
      </defs>
      <g>
       <use style="stroke:#000000;stroke-linecap:butt;stroke-width:0.5;" x="73.35" xlink:href="#m39a0496978" y="398.52"/>
      </g>
     </g>
     <g id="line2d_3">
      <defs>
       <path d="
M0 0
L0 4" id="m76eaaab397"/>
      </defs>
      <g>
       <use style="stroke:#000000;stroke-linecap:butt;stroke-width:0.5;" x="73.35" xlink:href="#m76eaaab397" y="44.28"/>
      </g>
     </g>
     <g id="text_1">
      <!-- 0 -->
      <defs>
       <path d="
M31.7812 66.4062
Q24.1719 66.4062 20.3281 58.9062
Q16.5 51.4219 16.5 36.375
Q16.5 21.3906 20.3281 13.8906
Q24.1719 6.39062 31.7812 6.39062
Q39.4531 6.39062 43.2812 13.8906
Q47.125 21.3906 47.125 36.375
Q47.125 51.4219 43.2812 58.9062
Q39.4531 66.4062 31.7812 66.4062
M31.7812 74.2188
Q44.0469 74.2188 50.5156 64.5156
Q56.9844 54.8281 56.9844 36.375
Q56.9844 17.9688 50.5156 8.26562
Q44.0469 -1.42188 31.7812 -1.42188
Q19.5312 -1.42188 13.0625 8.26562
Q6.59375 17.9688 6.59375 36.375
Q6.59375 54.8281 13.0625 64.5156
Q19.5312 74.2188 31.7812 74.2188" id="BitstreamVeraSans-Roman-30"/>
      </defs>
      <g transform="translate(70.3265625 411.42625)scale(0.12 -0.12)">
       <use xlink:href="#BitstreamVeraSans-Roman-30"/>
      </g>
     </g>
    </g>
    <g id="xtick_2">
     <g id="line2d_4">
      <defs>
       <path d="
M0 0
L0 -4" id="m39a0496978"/>
      </defs>
      <g>
       <use style="stroke:#000000;stroke-linecap:butt;stroke-width:0.5;" x="164.304" xlink:href="#m39a0496978" y="398.52"/>
      </g>
     </g>
     <g id="line2d_5">
      <defs>
       <path d="
M0 0
L0 4" id="m76eaaab397"/>
      </defs>
      <g>
       <use style="stroke:#000000;stroke-linecap:butt;stroke-width:0.5;" x="164.304" xlink:href="#m76eaaab397" y="44.28"/>
      </g>
     </g>
     <g id="text_2">
      <!-- 100 -->
      <defs>
       <path d="
M12.4062 8.29688
L28.5156 8.29688
L28.5156 63.9219
L10.9844 60.4062
L10.9844 69.3906
L28.4219 72.9062
L38.2812 72.9062
L38.2812 8.29688
L54.3906 8.29688
L54.3906 0
L12.4062 0
z
" id="BitstreamVeraSans-Roman-31"/>
      </defs>
      <g transform="translate(153.909 411.42625)scale(0.12 -0.12)">
       <use xlink:href="#BitstreamVeraSans-Roman-31"/>
       <use x="63.623046875" xlink:href="#BitstreamVeraSans-Roman-30"/>
       <use x="127.24609375" xlink:href="#BitstreamVeraSans-Roman-30"/>
      </g>
     </g>
    </g>
    <g id="xtick_3">
     <g id="line2d_6">
      <defs>
       <path d="
M0 0
L0 -4" id="m39a0496978"/>
      </defs>
      <g>
       <use style="stroke:#000000;stroke-linecap:butt;stroke-width:0.5;" x="255.258" xlink:href="#m39a0496978" y="398.52"/>
      </g>
     </g>
     <g id="line2d_7">
      <defs>
       <path d="
M0 0
L0 4" id="m76eaaab397"/>
      </defs>
      <g>
       <use style="stroke:#000000;stroke-linecap:butt;stroke-width:0.5;" x="255.258" xlink:href="#m76eaaab397" y="44.28"/>
      </g>
     </g>
     <g id="text_3">
      <!-- 200 -->
      <defs>
       <path d="
M19.1875 8.29688
L53.6094 8.29688
L53.6094 0
L7.32812 0
L7.32812 8.29688
Q12.9375 14.1094 22.625 23.8906
Q32.3281 33.6875 34.8125 36.5312
Q39.5469 41.8438 41.4219 45.5312
Q43.3125 49.2188 43.3125 52.7812
Q43.3125 58.5938 39.2344 62.25
Q35.1562 65.9219 28.6094 65.9219
Q23.9688 65.9219 18.8125 64.3125
Q13.6719 62.7031 7.8125 59.4219
L7.8125 69.3906
Q13.7656 71.7812 18.9375 73
Q24.125 74.2188 28.4219 74.2188
Q39.75 74.2188 46.4844 68.5469
Q53.2188 62.8906 53.2188 53.4219
Q53.2188 48.9219 51.5312 44.8906
Q49.8594 40.875 45.4062 35.4062
Q44.1875 33.9844 37.6406 27.2188
Q31.1094 20.4531 19.1875 8.29688" id="BitstreamVeraSans-Roman-32"/>
      </defs>
      <g transform="translate(244.643625 411.42625)scale(0.12 -0.12)">
       <use xlink:href="#BitstreamVeraSans-Roman-32"/>
       <use x="63.623046875" xlink:href="#BitstreamVeraSans-Roman-30"/>
       <use x="127.24609375" xlink:href="#BitstreamVeraSans-Roman-30"/>
      </g>
     </g>
    </g>
    <g id="xtick_4">
     <g id="line2d_8">
      <defs>
       <path d="
M0 0
L0 -4" id="m39a0496978"/>
      </defs>
      <g>
       <use style="stroke:#000000;stroke-linecap:butt;stroke-width:0.5;" x="346.212" xlink:href="#m39a0496978" y="398.52"/>
      </g>
     </g>
     <g id="line2d_9">
      <defs>
       <path d="
M0 0
L0 4" id="m76eaaab397"/>
      </defs>
      <g>
       <use style="stroke:#000000;stroke-linecap:butt;stroke-width:0.5;" x="346.212" xlink:href="#m76eaaab397" y="44.28"/>
      </g>
     </g>
     <g id="text_4">
      <!-- 300 -->
      <defs>
       <path d="
M40.5781 39.3125
Q47.6562 37.7969 51.625 33
Q55.6094 28.2188 55.6094 21.1875
Q55.6094 10.4062 48.1875 4.48438
Q40.7656 -1.42188 27.0938 -1.42188
Q22.5156 -1.42188 17.6562 -0.515625
Q12.7969 0.390625 7.625 2.20312
L7.625 11.7188
Q11.7188 9.32812 16.5938 8.10938
Q21.4844 6.89062 26.8125 6.89062
Q36.0781 6.89062 40.9375 10.5469
Q45.7969 14.2031 45.7969 21.1875
Q45.7969 27.6406 41.2812 31.2656
Q36.7656 34.9062 28.7188 34.9062
L20.2188 34.9062
L20.2188 43.0156
L29.1094 43.0156
Q36.375 43.0156 40.2344 45.9219
Q44.0938 48.8281 44.0938 54.2969
Q44.0938 59.9062 40.1094 62.9062
Q36.1406 65.9219 28.7188 65.9219
Q24.6562 65.9219 20.0156 65.0312
Q15.375 64.1562 9.8125 62.3125
L9.8125 71.0938
Q15.4375 72.6562 20.3438 73.4375
Q25.25 74.2188 29.5938 74.2188
Q40.8281 74.2188 47.3594 69.1094
Q53.9062 64.0156 53.9062 55.3281
Q53.9062 49.2656 50.4375 45.0938
Q46.9688 40.9219 40.5781 39.3125" id="BitstreamVeraSans-Roman-33"/>
      </defs>
      <g transform="translate(335.6154375 411.42625)scale(0.12 -0.12)">
       <use xlink:href="#BitstreamVeraSans-Roman-33"/>
       <use x="63.623046875" xlink:href="#BitstreamVeraSans-Roman-30"/>
       <use x="127.24609375" xlink:href="#BitstreamVeraSans-Roman-30"/>
      </g>
     </g>
    </g>
    <g id="xtick_5">
     <g id="line2d_10">
      <defs>
       <path d="
M0 0
L0 -4" id="m39a0496978"/>
      </defs>
      <g>
       <use style="stroke:#000000;stroke-linecap:butt;stroke-width:0.5;" x="437.166" xlink:href="#m39a0496978" y="398.52"/>
      </g>
     </g>
     <g id="line2d_11">
      <defs>
       <path d="
M0 0
L0 4" id="m76eaaab397"/>
      </defs>
      <g>
       <use style="stroke:#000000;stroke-linecap:butt;stroke-width:0.5;" x="437.166" xlink:href="#m76eaaab397" y="44.28"/>
      </g>
     </g>
     <g id="text_5">
      <!-- 400 -->
      <defs>
       <path d="
M37.7969 64.3125
L12.8906 25.3906
L37.7969 25.3906
z

M35.2031 72.9062
L47.6094 72.9062
L47.6094 25.3906
L58.0156 25.3906
L58.0156 17.1875
L47.6094 17.1875
L47.6094 0
L37.7969 0
L37.7969 17.1875
L4.89062 17.1875
L4.89062 26.7031
z
" id="BitstreamVeraSans-Roman-34"/>
      </defs>
      <g transform="translate(426.405375 411.42625)scale(0.12 -0.12)">
       <use xlink:href="#BitstreamVeraSans-Roman-34"/>
       <use x="63.623046875" xlink:href="#BitstreamVeraSans-Roman-30"/>
       <use x="127.24609375" xlink:href="#BitstreamVeraSans-Roman-30"/>
      </g>
     </g>
    </g>
    <g id="xtick_6">
     <g id="line2d_12">
      <defs>
       <path d="
M0 0
L0 -4" id="m39a0496978"/>
      </defs>
      <g>
       <use style="stroke:#000000;stroke-linecap:butt;stroke-width:0.5;" x="528.12" xlink:href="#m39a0496978" y="398.52"/>
      </g>
     </g>
     <g id="line2d_13">
      <defs>
       <path d="
M0 0
L0 4" id="m76eaaab397"/>
      </defs>
      <g>
       <use style="stroke:#000000;stroke-linecap:butt;stroke-width:0.5;" x="528.12" xlink:href="#m76eaaab397" y="44.28"/>
      </g>
     </g>
     <g id="text_6">
      <!-- 500 -->
      <defs>
       <path d="
M10.7969 72.9062
L49.5156 72.9062
L49.5156 64.5938
L19.8281 64.5938
L19.8281 46.7344
Q21.9688 47.4688 24.1094 47.8281
Q26.2656 48.1875 28.4219 48.1875
Q40.625 48.1875 47.75 41.5
Q54.8906 34.8125 54.8906 23.3906
Q54.8906 11.625 47.5625 5.09375
Q40.2344 -1.42188 26.9062 -1.42188
Q22.3125 -1.42188 17.5469 -0.640625
Q12.7969 0.140625 7.71875 1.70312
L7.71875 11.625
Q12.1094 9.23438 16.7969 8.0625
Q21.4844 6.89062 26.7031 6.89062
Q35.1562 6.89062 40.0781 11.3281
Q45.0156 15.7656 45.0156 23.3906
Q45.0156 31 40.0781 35.4375
Q35.1562 39.8906 26.7031 39.8906
Q22.75 39.8906 18.8125 39.0156
Q14.8906 38.1406 10.7969 36.2812
z
" id="BitstreamVeraSans-Roman-35"/>
      </defs>
      <g transform="translate(517.5290625 411.42625)scale(0.12 -0.12)">
       <use xlink:href="#BitstreamVeraSans-Roman-35"/>
       <use x="63.623046875" xlink:href="#BitstreamVeraSans-Roman-30"/>
       <use x="127.24609375" xlink:href="#BitstreamVeraSans-Roman-30"/>
      </g>
     </g>
    </g>
    <g id="text_7">
     <!-- Time -->
     <defs>
      <path d="
M56.2031 29.5938
L56.2031 25.2031
L14.8906 25.2031
Q15.4844 15.9219 20.4844 11.0625
Q25.4844 6.20312 34.4219 6.20312
Q39.5938 6.20312 44.4531 7.46875
Q49.3125 8.73438 54.1094 11.2812
L54.1094 2.78125
Q49.2656 0.734375 44.1875 -0.34375
Q39.1094 -1.42188 33.8906 -1.42188
Q20.7969 -1.42188 13.1562 6.1875
Q5.51562 13.8125 5.51562 26.8125
Q5.51562 40.2344 12.7656 48.1094
Q20.0156 56 32.3281 56
Q43.3594 56 49.7812 48.8906
Q56.2031 41.7969 56.2031 29.5938
M47.2188 32.2344
Q47.125 39.5938 43.0938 43.9844
Q39.0625 48.3906 32.4219 48.3906
Q24.9062 48.3906 20.3906 44.1406
Q15.875 39.8906 15.1875 32.1719
z
" id="BitstreamVeraSans-Roman-65"/>
      <path d="
M9.42188 54.6875
L18.4062 54.6875
L18.4062 0
L9.42188 0
z

M9.42188 75.9844
L18.4062 75.9844
L18.4062 64.5938
L9.42188 64.5938
z
" id="BitstreamVeraSans-Roman-69"/>
      <path d="
M-0.296875 72.9062
L61.375 72.9062
L61.375 64.5938
L35.5 64.5938
L35.5 0
L25.5938 0
L25.5938 64.5938
L-0.296875 64.5938
z
" id="BitstreamVeraSans-Roman-54"/>
      <path d="
M52 44.1875
Q55.375 50.25 60.0625 53.125
Q64.75 56 71.0938 56
Q79.6406 56 84.2812 50.0156
Q88.9219 44.0469 88.9219 33.0156
L88.9219 0
L79.8906 0
L79.8906 32.7188
Q79.8906 40.5781 77.0938 44.375
Q74.3125 48.1875 68.6094 48.1875
Q61.625 48.1875 57.5625 43.5469
Q53.5156 38.9219 53.5156 30.9062
L53.5156 0
L44.4844 0
L44.4844 32.7188
Q44.4844 40.625 41.7031 44.4062
Q38.9219 48.1875 33.1094 48.1875
Q26.2188 48.1875 22.1562 43.5312
Q18.1094 38.875 18.1094 30.9062
L18.1094 0
L9.07812 0
L9.07812 54.6875
L18.1094 54.6875
L18.1094 46.1875
Q21.1875 51.2188 25.4844 53.6094
Q29.7812 56 35.6875 56
Q41.6562 56 45.8281 52.9688
Q50 49.9531 52 44.1875" id="BitstreamVeraSans-Roman-6d"/>
     </defs>
     <g transform="translate(286.3565625 425.715)scale(0.12 -0.12)">
      <use xlink:href="#BitstreamVeraSans-Roman-54"/>
      <use x="57.958984375" xlink:href="#BitstreamVeraSans-Roman-69"/>
      <use x="85.7421875" xlink:href="#BitstreamVeraSans-Roman-6d"/>
      <use x="183.154296875" xlink:href="#BitstreamVeraSans-Roman-65"/>
     </g>
    </g>
   </g>
   <g id="matplotlib.axis_2">
    <g id="ytick_1">
     <g id="line2d_14">
      <defs>
       <path d="
M0 0
L4 0" id="m81fd026057"/>
      </defs>
      <g>
       <use style="stroke:#000000;stroke-linecap:butt;stroke-width:0.5;" x="73.35" xlink:href="#m81fd026057" y="398.52"/>
      </g>
     </g>
     <g id="line2d_15">
      <defs>
       <path d="
M0 0
L-4 0" id="mc459b3d9cf"/>
      </defs>
      <g>
       <use style="stroke:#000000;stroke-linecap:butt;stroke-width:0.5;" x="528.12" xlink:href="#mc459b3d9cf" y="398.52"/>
      </g>
     </g>
     <g id="text_8">
      <!-- 0 -->
      <g transform="translate(63.303125 402.8878125)scale(0.12 -0.12)">
       <use xlink:href="#BitstreamVeraSans-Roman-30"/>
      </g>
     </g>
    </g>
    <g id="ytick_2">
     <g id="line2d_16">
      <defs>
       <path d="
M0 0
L4 0" id="m81fd026057"/>
      </defs>
      <g>
       <use style="stroke:#000000;stroke-linecap:butt;stroke-width:0.5;" x="73.35" xlink:href="#m81fd026057" y="309.96"/>
      </g>
     </g>
     <g id="line2d_17">
      <defs>
       <path d="
M0 0
L-4 0" id="mc459b3d9cf"/>
      </defs>
      <g>
       <use style="stroke:#000000;stroke-linecap:butt;stroke-width:0.5;" x="528.12" xlink:href="#mc459b3d9cf" y="309.96"/>
      </g>
     </g>
     <g id="text_9">
      <!-- 5 -->
      <g transform="translate(63.689375 314.2490625)scale(0.12 -0.12)">
       <use xlink:href="#BitstreamVeraSans-Roman-35"/>
      </g>
     </g>
    </g>
    <g id="ytick_3">
     <g id="line2d_18">
      <defs>
       <path d="
M0 0
L4 0" id="m81fd026057"/>
      </defs>
      <g>
       <use style="stroke:#000000;stroke-linecap:butt;stroke-width:0.5;" x="73.35" xlink:href="#m81fd026057" y="221.4"/>
      </g>
     </g>
     <g id="line2d_19">
      <defs>
       <path d="
M0 0
L-4 0" id="mc459b3d9cf"/>
      </defs>
      <g>
       <use style="stroke:#000000;stroke-linecap:butt;stroke-width:0.5;" x="528.12" xlink:href="#mc459b3d9cf" y="221.4"/>
      </g>
     </g>
     <g id="text_10">
      <!-- 10 -->
      <g transform="translate(56.195 225.7678125)scale(0.12 -0.12)">
       <use xlink:href="#BitstreamVeraSans-Roman-31"/>
       <use x="63.623046875" xlink:href="#BitstreamVeraSans-Roman-30"/>
      </g>
     </g>
    </g>
    <g id="ytick_4">
     <g id="line2d_20">
      <defs>
       <path d="
M0 0
L4 0" id="m81fd026057"/>
      </defs>
      <g>
       <use style="stroke:#000000;stroke-linecap:butt;stroke-width:0.5;" x="73.35" xlink:href="#m81fd026057" y="132.84"/>
      </g>
     </g>
     <g id="line2d_21">
      <defs>
       <path d="
M0 0
L-4 0" id="mc459b3d9cf"/>
      </defs>
      <g>
       <use style="stroke:#000000;stroke-linecap:butt;stroke-width:0.5;" x="528.12" xlink:href="#mc459b3d9cf" y="132.84"/>
      </g>
     </g>
     <g id="text_11">
      <!-- 15 -->
      <g transform="translate(56.44625 137.1290625)scale(0.12 -0.12)">
       <use xlink:href="#BitstreamVeraSans-Roman-31"/>
       <use x="63.623046875" xlink:href="#BitstreamVeraSans-Roman-35"/>
      </g>
     </g>
    </g>
    <g id="ytick_5">
     <g id="line2d_22">
      <defs>
       <path d="
M0 0
L4 0" id="m81fd026057"/>
      </defs>
      <g>
       <use style="stroke:#000000;stroke-linecap:butt;stroke-width:0.5;" x="73.35" xlink:href="#m81fd026057" y="44.28"/>
      </g>
     </g>
     <g id="line2d_23">
      <defs>
       <path d="
M0 0
L-4 0" id="mc459b3d9cf"/>
      </defs>
      <g>
       <use style="stroke:#000000;stroke-linecap:butt;stroke-width:0.5;" x="528.12" xlink:href="#mc459b3d9cf" y="44.28"/>
      </g>
     </g>
     <g id="text_12">
      <!-- 20 -->
      <g transform="translate(55.75625 48.6478125)scale(0.12 -0.12)">
       <use xlink:href="#BitstreamVeraSans-Roman-32"/>
       <use x="63.623046875" xlink:href="#BitstreamVeraSans-Roman-30"/>
      </g>
     </g>
    </g>
    <g id="text_13">
     <!-- Distance -->
     <defs>
      <path d="
M54.8906 33.0156
L54.8906 0
L45.9062 0
L45.9062 32.7188
Q45.9062 40.4844 42.875 44.3281
Q39.8438 48.1875 33.7969 48.1875
Q26.5156 48.1875 22.3125 43.5469
Q18.1094 38.9219 18.1094 30.9062
L18.1094 0
L9.07812 0
L9.07812 54.6875
L18.1094 54.6875
L18.1094 46.1875
Q21.3438 51.125 25.7031 53.5625
Q30.0781 56 35.7969 56
Q45.2188 56 50.0469 50.1719
Q54.8906 44.3438 54.8906 33.0156" id="BitstreamVeraSans-Roman-6e"/>
      <path d="
M19.6719 64.7969
L19.6719 8.10938
L31.5938 8.10938
Q46.6875 8.10938 53.6875 14.9375
Q60.6875 21.7812 60.6875 36.5312
Q60.6875 51.1719 53.6875 57.9844
Q46.6875 64.7969 31.5938 64.7969
z

M9.8125 72.9062
L30.0781 72.9062
Q51.2656 72.9062 61.1719 64.0938
Q71.0938 55.2812 71.0938 36.5312
Q71.0938 17.6719 61.125 8.82812
Q51.1719 0 30.0781 0
L9.8125 0
z
" id="BitstreamVeraSans-Roman-44"/>
      <path d="
M18.3125 70.2188
L18.3125 54.6875
L36.8125 54.6875
L36.8125 47.7031
L18.3125 47.7031
L18.3125 18.0156
Q18.3125 11.3281 20.1406 9.42188
Q21.9688 7.51562 27.5938 7.51562
L36.8125 7.51562
L36.8125 0
L27.5938 0
Q17.1875 0 13.2344 3.875
Q9.28125 7.76562 9.28125 18.0156
L9.28125 47.7031
L2.6875 47.7031
L2.6875 54.6875
L9.28125 54.6875
L9.28125 70.2188
z
" id="BitstreamVeraSans-Roman-74"/>
      <path d="
M34.2812 27.4844
Q23.3906 27.4844 19.1875 25
Q14.9844 22.5156 14.9844 16.5
Q14.9844 11.7188 18.1406 8.90625
Q21.2969 6.10938 26.7031 6.10938
Q34.1875 6.10938 38.7031 11.4062
Q43.2188 16.7031 43.2188 25.4844
L43.2188 27.4844
z

M52.2031 31.2031
L52.2031 0
L43.2188 0
L43.2188 8.29688
Q40.1406 3.32812 35.5469 0.953125
Q30.9531 -1.42188 24.3125 -1.42188
Q15.9219 -1.42188 10.9531 3.29688
Q6 8.01562 6 15.9219
Q6 25.1406 12.1719 29.8281
Q18.3594 34.5156 30.6094 34.5156
L43.2188 34.5156
L43.2188 35.4062
Q43.2188 41.6094 39.1406 45
Q35.0625 48.3906 27.6875 48.3906
Q23 48.3906 18.5469 47.2656
Q14.1094 46.1406 10.0156 43.8906
L10.0156 52.2031
Q14.9375 54.1094 19.5781 55.0469
Q24.2188 56 28.6094 56
Q40.4844 56 46.3438 49.8438
Q52.2031 43.7031 52.2031 31.2031" id="BitstreamVeraSans-Roman-61"/>
      <path d="
M44.2812 53.0781
L44.2812 44.5781
Q40.4844 46.5312 36.375 47.5
Q32.2812 48.4844 27.875 48.4844
Q21.1875 48.4844 17.8438 46.4375
Q14.5 44.3906 14.5 40.2812
Q14.5 37.1562 16.8906 35.375
Q19.2812 33.5938 26.5156 31.9844
L29.5938 31.2969
Q39.1562 29.25 43.1875 25.5156
Q47.2188 21.7812 47.2188 15.0938
Q47.2188 7.46875 41.1875 3.01562
Q35.1562 -1.42188 24.6094 -1.42188
Q20.2188 -1.42188 15.4531 -0.5625
Q10.6875 0.296875 5.42188 2
L5.42188 11.2812
Q10.4062 8.6875 15.2344 7.39062
Q20.0625 6.10938 24.8125 6.10938
Q31.1562 6.10938 34.5625 8.28125
Q37.9844 10.4531 37.9844 14.4062
Q37.9844 18.0625 35.5156 20.0156
Q33.0625 21.9688 24.7031 23.7812
L21.5781 24.5156
Q13.2344 26.2656 9.51562 29.9062
Q5.8125 33.5469 5.8125 39.8906
Q5.8125 47.6094 11.2812 51.7969
Q16.75 56 26.8125 56
Q31.7812 56 36.1719 55.2656
Q40.5781 54.5469 44.2812 53.0781" id="BitstreamVeraSans-Roman-73"/>
      <path d="
M48.7812 52.5938
L48.7812 44.1875
Q44.9688 46.2969 41.1406 47.3438
Q37.3125 48.3906 33.4062 48.3906
Q24.6562 48.3906 19.8125 42.8438
Q14.9844 37.3125 14.9844 27.2969
Q14.9844 17.2812 19.8125 11.7344
Q24.6562 6.20312 33.4062 6.20312
Q37.3125 6.20312 41.1406 7.25
Q44.9688 8.29688 48.7812 10.4062
L48.7812 2.09375
Q45.0156 0.34375 40.9844 -0.53125
Q36.9688 -1.42188 32.4219 -1.42188
Q20.0625 -1.42188 12.7812 6.34375
Q5.51562 14.1094 5.51562 27.2969
Q5.51562 40.6719 12.8594 48.3281
Q20.2188 56 33.0156 56
Q37.1562 56 41.1094 55.1406
Q45.0625 54.2969 48.7812 52.5938" id="BitstreamVeraSans-Roman-63"/>
     </defs>
     <g transform="translate(50.75625 246.5559375)rotate(-90.0)scale(0.12 -0.12)">
      <use xlink:href="#BitstreamVeraSans-Roman-44"/>
      <use x="77.001953125" xlink:href="#BitstreamVeraSans-Roman-69"/>
      <use x="104.78515625" xlink:href="#BitstreamVeraSans-Roman-73"/>
      <use x="156.884765625" xlink:href="#BitstreamVeraSans-Roman-74"/>
      <use x="196.09375" xlink:href="#BitstreamVeraSans-Roman-61"/>
      <use x="257.373046875" xlink:href="#BitstreamVeraSans-Roman-6e"/>
      <use x="320.751953125" xlink:href="#BitstreamVeraSans-Roman-63"/>
      <use x="375.732421875" xlink:href="#BitstreamVeraSans-Roman-65"/>
     </g>
    </g>
   </g>
   <g id="patch_3">
    <path d="
M73.35 44.28
L528.12 44.28" style="fill:none;stroke:#000000;"/>
   </g>
   <g id="patch_4">
    <path d="
M528.12 398.52
L528.12 44.28" style="fill:none;stroke:#000000;"/>
   </g>
   <g id="patch_5">
    <path d="
M73.35 398.52
L528.12 398.52" style="fill:none;stroke:#000000;"/>
   </g>
   <g id="patch_6">
    <path d="
M73.35 398.52
L73.35 44.28" style="fill:none;stroke:#000000;"/>
   </g>
   <g id="text_14">
    <!-- UsualDrunk Simulation in 200 Trials -->
    <defs>
     <path id="BitstreamVeraSans-Roman-20"/>
     <path d="
M30.6094 48.3906
Q23.3906 48.3906 19.1875 42.75
Q14.9844 37.1094 14.9844 27.2969
Q14.9844 17.4844 19.1562 11.8438
Q23.3438 6.20312 30.6094 6.20312
Q37.7969 6.20312 41.9844 11.8594
Q46.1875 17.5312 46.1875 27.2969
Q46.1875 37.0156 41.9844 42.7031
Q37.7969 48.3906 30.6094 48.3906
M30.6094 56
Q42.3281 56 49.0156 48.375
Q55.7188 40.7656 55.7188 27.2969
Q55.7188 13.875 49.0156 6.21875
Q42.3281 -1.42188 30.6094 -1.42188
Q18.8438 -1.42188 12.1719 6.21875
Q5.51562 13.875 5.51562 27.2969
Q5.51562 40.7656 12.1719 48.375
Q18.8438 56 30.6094 56" id="BitstreamVeraSans-Roman-6f"/>
     <path d="
M9.42188 75.9844
L18.4062 75.9844
L18.4062 0
L9.42188 0
z
" id="BitstreamVeraSans-Roman-6c"/>
     <path d="
M9.07812 75.9844
L18.1094 75.9844
L18.1094 31.1094
L44.9219 54.6875
L56.3906 54.6875
L27.3906 29.1094
L57.625 0
L45.9062 0
L18.1094 26.7031
L18.1094 0
L9.07812 0
z
" id="BitstreamVeraSans-Roman-6b"/>
     <path d="
M53.5156 70.5156
L53.5156 60.8906
Q47.9062 63.5781 42.9219 64.8906
Q37.9375 66.2188 33.2969 66.2188
Q25.25 66.2188 20.875 63.0938
Q16.5 59.9688 16.5 54.2031
Q16.5 49.3594 19.4062 46.8906
Q22.3125 44.4375 30.4219 42.9219
L36.375 41.7031
Q47.4062 39.5938 52.6562 34.2969
Q57.9062 29 57.9062 20.125
Q57.9062 9.51562 50.7969 4.04688
Q43.7031 -1.42188 29.9844 -1.42188
Q24.8125 -1.42188 18.9688 -0.25
Q13.1406 0.921875 6.89062 3.21875
L6.89062 13.375
Q12.8906 10.0156 18.6562 8.29688
Q24.4219 6.59375 29.9844 6.59375
Q38.4219 6.59375 43.0156 9.90625
Q47.6094 13.2344 47.6094 19.3906
Q47.6094 24.75 44.3125 27.7812
Q41.0156 30.8125 33.5 32.3281
L27.4844 33.5
Q16.4531 35.6875 11.5156 40.375
Q6.59375 45.0625 6.59375 53.4219
Q6.59375 63.0938 13.4062 68.6562
Q20.2188 74.2188 32.1719 74.2188
Q37.3125 74.2188 42.625 73.2812
Q47.9531 72.3594 53.5156 70.5156" id="BitstreamVeraSans-Roman-53"/>
     <path d="
M8.6875 72.9062
L18.6094 72.9062
L18.6094 28.6094
Q18.6094 16.8906 22.8438 11.7344
Q27.0938 6.59375 36.625 6.59375
Q46.0938 6.59375 50.3438 11.7344
Q54.5938 16.8906 54.5938 28.6094
L54.5938 72.9062
L64.5 72.9062
L64.5 27.3906
Q64.5 13.1406 57.4375 5.85938
Q50.3906 -1.42188 36.625 -1.42188
Q22.7969 -1.42188 15.7344 5.85938
Q8.6875 13.1406 8.6875 27.3906
z
" id="BitstreamVeraSans-Roman-55"/>
     <path d="
M8.5 21.5781
L8.5 54.6875
L17.4844 54.6875
L17.4844 21.9219
Q17.4844 14.1562 20.5 10.2656
Q23.5312 6.39062 29.5938 6.39062
Q36.8594 6.39062 41.0781 11.0312
Q45.3125 15.6719 45.3125 23.6875
L45.3125 54.6875
L54.2969 54.6875
L54.2969 0
L45.3125 0
L45.3125 8.40625
Q42.0469 3.42188 37.7188 1
Q33.4062 -1.42188 27.6875 -1.42188
Q18.2656 -1.42188 13.375 4.4375
Q8.5 10.2969 8.5 21.5781" id="BitstreamVeraSans-Roman-75"/>
     <path d="
M41.1094 46.2969
Q39.5938 47.1719 37.8125 47.5781
Q36.0312 48 33.8906 48
Q26.2656 48 22.1875 43.0469
Q18.1094 38.0938 18.1094 28.8125
L18.1094 0
L9.07812 0
L9.07812 54.6875
L18.1094 54.6875
L18.1094 46.1875
Q20.9531 51.1719 25.4844 53.5781
Q30.0312 56 36.5312 56
Q37.4531 56 38.5781 55.875
Q39.7031 55.7656 41.0625 55.5156
z
" id="BitstreamVeraSans-Roman-72"/>
    </defs>
    <g transform="translate(173.021625 39.28)scale(0.144 -0.144)">
     <use xlink:href="#BitstreamVeraSans-Roman-55"/>
     <use x="73.193359375" xlink:href="#BitstreamVeraSans-Roman-73"/>
     <use x="125.29296875" xlink:href="#BitstreamVeraSans-Roman-75"/>
     <use x="188.671875" xlink:href="#BitstreamVeraSans-Roman-61"/>
     <use x="249.951171875" xlink:href="#BitstreamVeraSans-Roman-6c"/>
     <use x="277.734375" xlink:href="#BitstreamVeraSans-Roman-44"/>
     <use x="354.736328125" xlink:href="#BitstreamVeraSans-Roman-72"/>
     <use x="395.849609375" xlink:href="#BitstreamVeraSans-Roman-75"/>
     <use x="459.228515625" xlink:href="#BitstreamVeraSans-Roman-6e"/>
     <use x="522.607421875" xlink:href="#BitstreamVeraSans-Roman-6b"/>
     <use x="580.517578125" xlink:href="#BitstreamVeraSans-Roman-20"/>
     <use x="612.3046875" xlink:href="#BitstreamVeraSans-Roman-53"/>
     <use x="675.78125" xlink:href="#BitstreamVeraSans-Roman-69"/>
     <use x="703.564453125" xlink:href="#BitstreamVeraSans-Roman-6d"/>
     <use x="800.9765625" xlink:href="#BitstreamVeraSans-Roman-75"/>
     <use x="864.35546875" xlink:href="#BitstreamVeraSans-Roman-6c"/>
     <use x="892.138671875" xlink:href="#BitstreamVeraSans-Roman-61"/>
     <use x="953.41796875" xlink:href="#BitstreamVeraSans-Roman-74"/>
     <use x="992.626953125" xlink:href="#BitstreamVeraSans-Roman-69"/>
     <use x="1020.41015625" xlink:href="#BitstreamVeraSans-Roman-6f"/>
     <use x="1081.59179688" xlink:href="#BitstreamVeraSans-Roman-6e"/>
     <use x="1144.97070312" xlink:href="#BitstreamVeraSans-Roman-20"/>
     <use x="1176.7578125" xlink:href="#BitstreamVeraSans-Roman-69"/>
     <use x="1204.54101562" xlink:href="#BitstreamVeraSans-Roman-6e"/>
     <use x="1267.91992188" xlink:href="#BitstreamVeraSans-Roman-20"/>
     <use x="1299.70703125" xlink:href="#BitstreamVeraSans-Roman-32"/>
     <use x="1363.33007812" xlink:href="#BitstreamVeraSans-Roman-30"/>
     <use x="1426.953125" xlink:href="#BitstreamVeraSans-Roman-30"/>
     <use x="1490.57617188" xlink:href="#BitstreamVeraSans-Roman-20"/>
     <use x="1522.36328125" xlink:href="#BitstreamVeraSans-Roman-54"/>
     <use x="1568.69726562" xlink:href="#BitstreamVeraSans-Roman-72"/>
     <use x="1609.81054688" xlink:href="#BitstreamVeraSans-Roman-69"/>
     <use x="1637.59375" xlink:href="#BitstreamVeraSans-Roman-61"/>
     <use x="1698.87304688" xlink:href="#BitstreamVeraSans-Roman-6c"/>
     <use x="1726.65625" xlink:href="#BitstreamVeraSans-Roman-73"/>
    </g>
   </g>
  </g>
 </g>
 <defs>
  <clipPath id="p9061672a36">
   <rect height="354.24" width="454.77" x="73.35" y="44.28"/>
  </clipPath>
 </defs>
</svg>
